<svg width="100%" viewBox="0 0 467 175" fill="none" xmlns="http://www.w3.org/2000/svg">
  <path d="M6.55841 69.262H47.5062" stroke="#DFE1E5" stroke-miterlimit="10" />
  <path d="M458.649 125.296H6.55841" stroke="#DFE1E5" stroke-miterlimit="10" />
  <path
    d="M415.898 69.2623C415.919 69.2623 415.938 69.2542 415.953 69.2398C415.967 69.2254 415.975 69.2059 415.975 69.1856V26.3894C415.975 25.3409 415.769 24.3027 415.367 23.334C414.966 22.3654 414.378 21.4852 413.637 20.7438C412.895 20.0024 412.015 19.4143 411.047 19.0131C410.078 18.6119 409.04 18.4054 407.991 18.4054H55.6435C54.6019 18.4003 53.5695 18.6011 52.6057 18.9962C51.642 19.3914 50.7657 19.973 50.0274 20.7078C49.2891 21.4425 48.7032 22.3159 48.3034 23.2778C47.9036 24.2397 47.6978 25.2711 47.6979 26.3127V69.1856C47.6979 69.2059 47.7059 69.2254 47.7203 69.2398C47.7347 69.2542 47.7542 69.2623 47.7746 69.2623"
    stroke="#DFE1E5" stroke-miterlimit="10" />
  <path
    d="M445.841 34.7417H449.86V41.3605H456.517V44.8655H449.86V51.492H445.825V44.8655H439.168V41.3605H445.825L445.841 34.7417Z"
    fill="#999999" />
  <path
    d="M73.8504 45.4355V36.1934H76.8719C77.8748 36.1934 78.6281 36.4007 79.1317 36.8154C79.6395 37.2301 79.8934 37.8438 79.8934 38.6562C79.8934 39.0879 79.7707 39.4709 79.5252 39.8052C79.2798 40.1353 78.9455 40.3913 78.5223 40.5732C79.0216 40.7129 79.4152 40.9795 79.7029 41.373C79.9949 41.7624 80.1409 42.2279 80.1409 42.7695C80.1409 43.599 79.8722 44.2507 79.3348 44.7246C78.7973 45.1986 78.0377 45.4355 77.056 45.4355H73.8504ZM75.0692 41.1128V44.439H77.0814C77.6484 44.439 78.0949 44.293 78.4207 44.001C78.7508 43.7048 78.9158 43.2985 78.9158 42.7822C78.9158 41.6693 78.3107 41.1128 77.1004 41.1128H75.0692ZM75.0692 40.1353H76.91C77.4432 40.1353 77.8685 40.002 78.1859 39.7354C78.5075 39.4688 78.6683 39.1069 78.6683 38.6499C78.6683 38.1421 78.5202 37.7739 78.2239 37.5454C77.9277 37.3127 77.477 37.1963 76.8719 37.1963H75.0692V40.1353Z"
    fill="#999999" />
  <path
    d="M105.619 49.2289V37.7246H109.929C110.65 37.6992 111.367 37.8409 112.023 38.1387C112.535 38.3764 112.966 38.7574 113.266 39.2355C113.557 39.7249 113.7 40.2886 113.677 40.8578C113.654 41.427 113.466 41.9772 113.135 42.4414C112.729 42.9599 112.149 43.314 111.502 43.4384C111.95 43.501 112.377 43.6722 112.744 43.9369C113.088 44.1801 113.374 44.4972 113.58 44.8649C113.778 45.2352 113.881 45.6491 113.879 46.0691C113.881 46.4581 113.816 46.8447 113.687 47.2118C113.55 47.5964 113.324 47.9432 113.028 48.2242C112.683 48.5502 112.269 48.794 111.816 48.9375C111.206 49.1266 110.568 49.2147 109.929 49.1983L105.619 49.2289ZM107.03 38.9594V42.8785H109.853C110.465 42.911 111.069 42.7233 111.555 42.3493C111.769 42.167 111.937 41.9378 112.048 41.6798C112.158 41.4217 112.207 41.1417 112.192 40.8614C112.205 40.6066 112.162 40.352 112.065 40.116C111.968 39.8799 111.82 39.6683 111.632 39.4962C111.136 39.1391 110.532 38.9631 109.922 38.9977L107.03 38.9594ZM107.03 47.9865H109.883C110.56 48.0491 111.234 47.8517 111.77 47.4343C111.958 47.2516 112.105 47.0317 112.203 46.7886C112.301 46.5456 112.347 46.2848 112.338 46.0231C112.346 45.7585 112.295 45.4955 112.188 45.2537C112.08 45.0119 111.919 44.7977 111.716 44.6272C111.185 44.2449 110.536 44.0604 109.883 44.1057H107.03V47.9865Z"
    fill="#999999" />
  <path
    d="M117 49.2294V37.7251H124.087V38.9522H118.427V42.787H123.757V44.0141H118.427V47.9486H124.087V49.1911L117 49.2294Z"
    fill="#999999" />
  <path
    d="M127.277 49.2294V37.7251H134.364V38.9522H128.704V42.787H134.073V44.0141H128.704V47.9486H134.364V49.1911L127.277 49.2294Z"
    fill="#999999" />
  <path
    d="M137.547 49.2293V37.725H141.251C142.313 37.6624 143.355 38.0238 144.15 38.7297C144.49 39.0674 144.755 39.4726 144.928 39.9192C145.101 40.3657 145.178 40.8436 145.155 41.322C145.178 41.7969 145.101 42.2714 144.928 42.7143C144.755 43.1571 144.49 43.5583 144.15 43.8913C143.344 44.572 142.304 44.913 141.251 44.8423H138.996V49.2677L137.547 49.2293ZM138.996 43.5538H141.251C141.58 43.5767 141.909 43.5342 142.221 43.4289C142.533 43.3236 142.821 43.1575 143.069 42.9403C143.28 42.7212 143.443 42.461 143.549 42.176C143.654 41.8909 143.7 41.5871 143.682 41.2836C143.7 40.9744 143.654 40.6648 143.549 40.3736C143.443 40.0823 143.28 39.8154 143.069 39.5887C142.825 39.3657 142.537 39.195 142.225 39.0868C141.912 38.9787 141.581 38.9355 141.251 38.9598H138.996V43.5538Z"
    fill="#999999" />
  <path d="M149.151 37.7328V47.987H154.281V49.2294H147.724V37.7251L149.151 37.7328Z" fill="#999999" />
  <path
    d="M156.269 49.2294V37.7251H163.355V38.9522H157.695V42.787H163.018V44.0141H157.687V47.9486H163.348V49.1911L156.269 49.2294Z"
    fill="#999999" />
  <path d="M170.925 51.4685V35.5005H172.359V51.4685H170.925Z" fill="#999999" />
  <path
    d="M179.178 41.4676V40.4782H184.761V41.4676H179.178ZM183.097 49.467C182.654 49.4744 182.216 49.3799 181.816 49.1909C181.441 49.0137 181.129 48.7277 180.919 48.3702C180.685 47.9515 180.571 47.4766 180.589 46.9974V38.0393H182V46.9437C182 47.8487 182.422 48.3012 183.258 48.3012C183.516 48.304 183.774 48.2756 184.025 48.2168C184.285 48.1499 184.541 48.0679 184.792 47.9714L184.991 48.9915C184.69 49.1239 184.38 49.2341 184.063 49.3212C183.75 49.4171 183.424 49.4662 183.097 49.467Z"
    fill="#999999" />
  <path
    d="M187.292 49.2295V36.7434H188.719V49.2295H187.292ZM193.52 49.2295V44.0985C193.57 43.4079 193.353 42.7245 192.914 42.1888C192.704 41.9698 192.45 41.7983 192.168 41.6858C191.886 41.5734 191.583 41.5226 191.28 41.5369C190.791 41.5313 190.313 41.6817 189.915 41.9664C189.51 42.2864 189.205 42.7145 189.033 43.2012C188.811 43.8129 188.705 44.4604 188.719 45.1109H188.167C188.146 44.222 188.284 43.3365 188.573 42.4956C188.796 41.8439 189.204 41.2711 189.747 40.8466C190.295 40.4524 190.958 40.2502 191.633 40.2714C192.257 40.2521 192.872 40.4147 193.405 40.7393C193.905 41.0554 194.298 41.5152 194.532 42.0584C194.809 42.7023 194.945 43.3978 194.931 44.0985V49.2448L193.52 49.2295Z"
    fill="#999999" />
  <path
    d="M201.365 49.4673C200.648 49.4795 199.942 49.2765 199.341 48.8844C198.733 48.4851 198.246 47.9284 197.93 47.2738C197.572 46.5304 197.393 45.7135 197.408 44.8886C197.388 44.0369 197.564 43.1919 197.922 42.419C198.233 41.7675 198.723 41.2171 199.333 40.8314C199.941 40.4496 200.647 40.2524 201.365 40.2638C201.959 40.2468 202.546 40.3871 203.068 40.6703C203.535 40.9285 203.926 41.3039 204.203 41.7594C204.499 42.2279 204.702 42.7486 204.801 43.2933C204.916 43.8843 204.949 44.488 204.901 45.088H198.566V44.2137H203.935L203.513 44.4898C203.535 44.1281 203.514 43.7652 203.452 43.4084C203.402 43.06 203.293 42.7227 203.129 42.4113C202.975 42.1163 202.744 41.8676 202.462 41.6904C202.131 41.4952 201.75 41.3994 201.365 41.4143C200.86 41.3927 200.362 41.5442 199.954 41.8438C199.57 42.132 199.275 42.5228 199.103 42.9712C198.908 43.4587 198.811 43.9801 198.819 44.5051V45.088C198.811 45.6473 198.904 46.2035 199.095 46.7293C199.259 47.1824 199.549 47.579 199.931 47.872C200.343 48.1635 200.839 48.3117 201.342 48.2939C201.842 48.3145 202.335 48.1718 202.746 47.8874C202.934 47.7402 203.091 47.5562 203.205 47.3465C203.32 47.1368 203.391 46.9059 203.413 46.6679H204.893C204.825 47.225 204.611 47.7541 204.272 48.2018C203.945 48.6192 203.521 48.9508 203.037 49.1682C202.507 49.3828 201.938 49.4846 201.365 49.4673V49.4673Z"
    fill="#999999" />
  <path
    d="M210.569 40.4777H212.049L214.289 47.7868H214.105L216.283 40.8842H217.471L219.634 47.7868H219.466L221.705 40.4624H223.132L220.256 49.2134H218.86L216.735 42.7479H216.958L214.856 49.2134H213.46L210.569 40.4777Z"
    fill="#999999" />
  <path
    d="M228.531 49.467C227.797 49.4793 227.073 49.2995 226.43 48.9454C225.806 48.5884 225.301 48.0547 224.98 47.4115C224.601 46.6178 224.42 45.7442 224.451 44.8652C224.421 43.9913 224.603 43.123 224.98 42.3343C225.304 41.6927 225.808 41.1596 226.43 40.8004C227.076 40.4579 227.796 40.2788 228.527 40.2788C229.259 40.2788 229.979 40.4579 230.625 40.8004C231.247 41.1596 231.751 41.6927 232.075 42.3343C232.446 43.1249 232.625 43.9922 232.596 44.8652C232.622 45.7356 232.444 46.5999 232.075 47.3885C231.753 48.0316 231.249 48.5653 230.625 48.9224C229.987 49.2839 229.265 49.4716 228.531 49.467V49.467ZM228.493 48.2245C228.997 48.2522 229.498 48.1184 229.921 47.8426C230.344 47.5668 230.669 47.1633 230.847 46.6906C231.059 46.1219 231.161 45.518 231.147 44.9112C231.195 44.041 230.969 43.1775 230.502 42.4416C230.28 42.1424 229.988 41.903 229.65 41.7451C229.313 41.5871 228.941 41.5155 228.57 41.5366C228.056 41.52 227.55 41.6619 227.12 41.9431C226.709 42.2315 226.396 42.6382 226.223 43.1089C226.008 43.6692 225.901 44.2652 225.908 44.8652C225.861 45.7293 226.089 46.5861 226.56 47.3118C226.781 47.6112 227.074 47.8502 227.412 48.007C227.75 48.1638 228.121 48.2333 228.493 48.2092V48.2245Z"
    fill="#999999" />
  <path
    d="M235.372 49.2289V40.4626H236.799V49.2289H235.372ZM236.362 45.2791C236.34 44.3457 236.448 43.4137 236.684 42.5104C236.829 41.8815 237.154 41.3085 237.62 40.8614C238.04 40.4857 238.59 40.2878 239.154 40.3092C239.503 40.3104 239.85 40.3673 240.181 40.4779L240.089 41.8891C239.921 41.8354 239.736 41.7894 239.529 41.7434C239.353 41.7084 239.173 41.6904 238.993 41.6897C238.533 41.6687 238.082 41.8253 237.735 42.1269C237.393 42.4717 237.154 42.9045 237.044 43.377C236.89 43.9989 236.818 44.6384 236.83 45.2791H236.362Z"
    fill="#999999" />
  <path
    d="M242.014 49.2295V36.7434H243.441V49.2295H242.014ZM243.226 44.2136L247.69 40.4785H249.684L243.218 45.7321L243.226 44.2136ZM248.134 49.2295L243.978 43.6997L245.419 43.4466L249.891 49.2295H248.134Z"
    fill="#999999" />
  <path
    d="M259.83 49.4667C259.096 49.479 258.372 49.2992 257.729 48.9451C257.105 48.5881 256.601 48.0543 256.279 47.4112C255.898 46.6263 255.714 45.7602 255.743 44.8879C255.712 44.0131 255.897 43.1442 256.279 42.357C256.603 41.7154 257.107 41.1823 257.729 40.8231C258.375 40.4806 259.095 40.3015 259.827 40.3015C260.558 40.3015 261.278 40.4806 261.924 40.8231C262.544 41.1824 263.046 41.7157 263.366 42.357C263.744 43.1457 263.925 44.014 263.895 44.8879C263.923 45.7592 263.741 46.6244 263.366 47.4112C263.048 48.0538 262.546 48.5876 261.924 48.9451C261.284 49.2986 260.562 49.4783 259.83 49.4667V49.4667ZM259.792 48.2242C260.296 48.2527 260.795 48.1191 261.218 47.8431C261.64 47.567 261.963 47.1631 262.139 46.6903C262.358 46.1232 262.462 45.5185 262.446 44.9109C262.496 44.0395 262.267 43.1747 261.794 42.4413C261.574 42.1417 261.283 41.9019 260.947 41.7438C260.61 41.5857 260.24 41.5144 259.869 41.5363C259.353 41.5211 258.845 41.6628 258.412 41.9428C258.005 42.2356 257.693 42.6408 257.514 43.1086C257.3 43.6848 257.196 44.2962 257.207 44.9109C257.162 45.7758 257.393 46.6327 257.867 47.3575C258.092 47.6479 258.386 47.8777 258.722 48.0263C259.058 48.1749 259.426 48.2376 259.792 48.2089V48.2242Z"
    fill="#999999" />
  <path
    d="M265.713 41.4675V40.4782H270.392V41.4675H265.713ZM267.147 49.2291V39.1207C267.126 38.6265 267.24 38.1359 267.477 37.7018C267.687 37.344 268 37.0579 268.375 36.8811C268.769 36.6999 269.198 36.6082 269.632 36.6127C269.889 36.6156 270.145 36.6335 270.399 36.6664C270.659 36.7038 270.915 36.7602 271.166 36.8351L270.898 37.9626C270.722 37.8889 270.54 37.8324 270.353 37.7938C270.184 37.7615 270.012 37.7435 269.839 37.7401C269.637 37.7412 269.437 37.7803 269.249 37.8552C269.047 37.9338 268.878 38.0767 268.766 38.2617C268.621 38.5294 268.555 38.8324 268.574 39.136V49.2291H267.147Z"
    fill="#999999" />
  <path
    d="M277.294 49.2293V40.4784H278.521L278.69 42.2347C278.929 41.6461 279.331 41.1379 279.848 40.7698C280.378 40.421 281.001 40.2417 281.635 40.2559C282.259 40.2366 282.874 40.3992 283.407 40.7238C283.909 41.0395 284.305 41.4992 284.542 42.0429C284.829 42.6898 284.973 43.3909 284.964 44.0984V49.2447H283.553V44.0984C283.601 43.4091 283.388 42.727 282.954 42.1887C282.745 41.9697 282.49 41.7982 282.208 41.6857C281.927 41.5733 281.624 41.5225 281.321 41.5368C280.831 41.5273 280.352 41.6781 279.956 41.9662C279.549 42.2858 279.24 42.7138 279.066 43.201C278.847 43.8133 278.743 44.4607 278.759 45.1108V49.2447L277.294 49.2293ZM289.604 49.2293V44.0984C289.653 43.4091 289.439 42.727 289.006 42.1887C288.798 41.9704 288.547 41.7993 288.267 41.6868C287.988 41.5744 287.688 41.5232 287.387 41.5368C287.031 41.5197 286.676 41.5956 286.357 41.7569C286.038 41.9182 285.767 42.1595 285.57 42.4571C285.107 43.2201 284.886 44.1048 284.933 44.9957H284.274C284.262 44.3006 284.342 43.6069 284.511 42.9326C284.637 42.3982 284.869 41.8948 285.194 41.4524C285.474 41.0689 285.85 40.7649 286.283 40.5704C286.741 40.364 287.238 40.2619 287.74 40.2713C288.364 40.2529 288.979 40.4154 289.512 40.7391C290.012 41.0553 290.405 41.5151 290.639 42.0583C290.911 42.7033 291.042 43.3988 291.023 44.0984V49.2447L289.604 49.2293Z"
    fill="#999999" />
  <path
    d="M295.226 38.4076C295.1 38.4142 294.974 38.3952 294.855 38.3517C294.736 38.3082 294.628 38.2412 294.536 38.1545C294.448 38.0695 294.379 37.9667 294.334 37.8529C294.289 37.7392 294.269 37.6171 294.275 37.495C294.269 37.3751 294.289 37.2554 294.334 37.1442C294.379 37.0329 294.448 36.9328 294.536 36.8507C294.734 36.6971 294.979 36.6138 295.23 36.6138C295.481 36.6138 295.725 36.6971 295.924 36.8507C296.009 36.9344 296.075 37.035 296.119 37.146C296.162 37.2569 296.182 37.3758 296.177 37.495C296.182 37.6164 296.163 37.7377 296.119 37.8512C296.076 37.9647 296.009 38.068 295.924 38.1545C295.831 38.2421 295.721 38.3097 295.601 38.3533C295.481 38.3968 295.353 38.4153 295.226 38.4076ZM294.513 49.2294V40.4631H295.939V49.2294H294.513Z"
    fill="#999999" />
  <path
    d="M299.881 49.2295V36.7434H301.307V49.2295H299.881ZM301.069 44.2136L305.541 40.4785H307.535L301.069 45.7321V44.2136ZM305.978 49.2295L301.836 43.6997L303.286 43.4466L307.75 49.2295H305.978Z"
    fill="#999999" />
  <path
    d="M313.242 49.4671C312.521 49.4794 311.814 49.2765 311.209 48.8843C310.604 48.4829 310.116 47.9268 309.798 47.2736C309.443 46.5297 309.267 45.7127 309.284 44.8884C309.26 44.0364 309.436 43.1906 309.798 42.4188C310.102 41.7652 310.589 41.2141 311.2 40.8328C311.812 40.4515 312.521 40.2564 313.242 40.2713C313.835 40.2565 314.422 40.3966 314.944 40.6778C315.407 40.9412 315.797 41.3154 316.08 41.7669C316.368 42.2386 316.571 42.758 316.678 43.3008C316.793 43.8916 316.824 44.4959 316.77 45.0955H310.435V44.2135H315.803L315.382 44.4896C315.396 44.128 315.375 43.7659 315.32 43.4082C315.263 43.0617 315.154 42.7256 314.998 42.4111C314.843 42.1141 314.609 41.8649 314.323 41.6902C313.992 41.4938 313.611 41.3979 313.226 41.4141C312.721 41.3938 312.224 41.5452 311.815 41.8436C311.436 42.1364 311.142 42.5258 310.964 42.971C310.772 43.4595 310.676 43.9802 310.68 44.5049V45.0878C310.67 45.648 310.766 46.205 310.964 46.7291C311.129 47.179 311.423 47.5709 311.808 47.8565C312.217 48.1511 312.714 48.2997 313.219 48.2784C313.716 48.2973 314.205 48.1547 314.615 47.8719C314.803 47.7247 314.959 47.5406 315.074 47.331C315.189 47.1213 315.259 46.8904 315.282 46.6524H316.77C316.698 47.1876 316.489 47.6953 316.164 48.1265C315.839 48.5577 315.408 48.8979 314.914 49.1143C314.387 49.3465 313.818 49.4666 313.242 49.4671V49.4671Z"
    fill="#999999" />
  <path
    d="M318.304 48.3779C318.304 48.2393 318.331 48.102 318.384 47.974C318.437 47.846 318.516 47.7299 318.614 47.6322C318.712 47.5345 318.829 47.4573 318.957 47.4049C319.086 47.3526 319.223 47.3262 319.362 47.3272C319.649 47.3268 319.925 47.4398 320.129 47.6416C320.235 47.7384 320.319 47.8572 320.374 47.9896C320.43 48.1221 320.456 48.265 320.451 48.4086C320.459 48.5525 320.434 48.6963 320.378 48.8292C320.322 48.962 320.237 49.0805 320.129 49.1755C319.919 49.3649 319.645 49.4689 319.362 49.467C319.22 49.4718 319.08 49.4477 318.948 49.3963C318.816 49.3449 318.696 49.2672 318.595 49.1679C318.491 49.0661 318.411 48.9424 318.36 48.8057C318.31 48.6691 318.29 48.523 318.304 48.3779Z"
    fill="#999999" />
  <path
    d="M321.571 48.3778C321.565 48.2362 321.589 48.095 321.64 47.963C321.692 47.831 321.77 47.7111 321.87 47.6108C321.969 47.5087 322.089 47.4282 322.221 47.3741C322.353 47.32 322.494 47.2936 322.637 47.2963C322.779 47.2957 322.92 47.3232 323.052 47.3772C323.183 47.4311 323.303 47.5105 323.404 47.6108C323.51 47.7076 323.594 47.8263 323.649 47.9588C323.705 48.0912 323.731 48.2342 323.726 48.3778C323.734 48.5216 323.709 48.6655 323.653 48.7983C323.597 48.9312 323.512 49.0496 323.404 49.1447C323.194 49.3347 322.92 49.4388 322.637 49.4362C322.495 49.4401 322.355 49.4156 322.223 49.3642C322.091 49.3128 321.971 49.2356 321.87 49.137C321.768 49.0393 321.689 48.921 321.638 48.79C321.586 48.6589 321.563 48.5184 321.571 48.3778V48.3778Z"
    fill="#999999" />
  <path
    d="M324.845 48.3779C324.846 48.2389 324.875 48.1015 324.929 47.9735C324.983 47.8454 325.062 47.7293 325.161 47.6317C325.26 47.5342 325.377 47.4571 325.506 47.4048C325.635 47.3525 325.773 47.3262 325.911 47.3272C326.054 47.3262 326.195 47.3534 326.327 47.4074C326.458 47.4614 326.578 47.541 326.678 47.6416C326.785 47.7384 326.868 47.8572 326.924 47.9896C326.98 48.1221 327.006 48.265 327.001 48.4086C327.008 48.5525 326.984 48.6963 326.928 48.8292C326.872 48.962 326.787 49.0805 326.678 49.1755C326.469 49.3662 326.195 49.4704 325.911 49.467C325.77 49.4727 325.629 49.4491 325.497 49.3976C325.365 49.3461 325.245 49.2679 325.145 49.1679C325.038 49.0678 324.955 48.9445 324.903 48.8076C324.851 48.6707 324.832 48.5237 324.845 48.3779Z"
    fill="#999999" />
  <path d="M67.9774 76.2349H456.522V116.328H67.9774V76.2349Z" stroke="#F1F3F4" />
  <path
    d="M440.449 93.9045C439.426 94.6715 437.325 96.277 434.145 98.721C434.413 99.5647 434.804 100.838 435.318 102.556C435.832 104.274 436.223 105.509 436.476 106.345L429.919 101.82C429.96 101.82 427.789 103.318 423.407 106.314C424.91 101.405 425.677 98.8923 425.708 98.7747C425.708 98.7747 423.591 97.1487 419.358 93.9505L426.59 93.7665H427.296C427.833 92.2325 428.699 89.7399 429.896 86.2656C430.944 89.1801 431.823 91.665 432.534 93.7204C432.685 93.7563 432.839 93.7819 432.994 93.7971C434.819 93.8023 437.304 93.838 440.449 93.9045Z"
    fill="#0080FF" />
  <path d="M385.022 37.1895L383.937 38.2742L394.377 48.7138L395.461 47.6292L385.022 37.1895Z" fill="#999999" />
  <path d="M395.465 38.2624L394.38 37.1777L383.941 47.6174L385.025 48.702L395.465 38.2624Z" fill="#999999" />
  <path
    d="M39.2073 88.5818C37.5472 88.2528 35.828 88.3967 34.2458 88.9971C32.6635 89.5975 31.2816 90.6303 30.2576 91.9777C29.2337 93.3252 28.6088 94.9331 28.4541 96.6184C28.2994 98.3037 28.6212 99.9986 29.3828 101.51C30.1444 103.021 31.3151 104.288 32.7617 105.167C34.2083 106.045 35.8725 106.5 37.5647 106.478C39.257 106.457 40.9092 105.961 42.3332 105.046C43.7572 104.132 44.8957 102.836 45.619 101.306C46.4425 99.5537 46.6886 97.5857 46.322 95.6851C45.9553 93.7844 44.9949 92.0491 43.5789 90.7292"
    stroke="#999999" stroke-width="1.59" stroke-miterlimit="10" />
  <path d="M35.565 83.4507L34.66 84.2637L38.7018 88.7427L33.939 92.4471L34.6906 93.4058L40.4888 88.8961L35.565 83.4507Z"
    fill="#999999" />
  <path
    d="M103.494 96.3281H92.4501C91.8867 96.3281 91.4301 96.7848 91.4301 97.3482V104.972C91.4301 105.535 91.8867 105.992 92.4501 105.992H103.494C104.058 105.992 104.514 105.535 104.514 104.972V97.3482C104.514 96.7848 104.058 96.3281 103.494 96.3281Z"
    fill="#DFE1E5" />
  <path fill-rule="evenodd" clip-rule="evenodd"
    d="M98.6775 101.367C98.9199 101.215 99.1061 100.988 99.2082 100.72C99.3103 100.453 99.3226 100.16 99.2434 99.8847C99.1642 99.6097 98.9977 99.3679 98.769 99.1958C98.5404 99.0237 98.262 98.9307 97.9758 98.9307C97.6896 98.9307 97.4112 99.0237 97.1825 99.1958C96.9539 99.3679 96.7874 99.6097 96.7082 99.8847C96.6289 100.16 96.6413 100.453 96.7434 100.72C96.8454 100.988 97.0317 101.215 97.274 101.367L96.8138 103.376H99.1147L98.6775 101.367Z"
    fill="white" />
  <path
    d="M103.279 96.3278V92.7768C103.279 91.45 102.512 90.3762 101.339 90.3762H94.4896C93.3162 90.3762 92.5492 91.45 92.5492 92.7768V96.3278"
    stroke="#DFE1E5" stroke-width="1.31" stroke-miterlimit="10" />
  <path
    d="M130.527 103.676C129.963 103.676 129.45 103.526 128.988 103.226C128.532 102.92 128.166 102.47 127.89 101.876C127.62 101.282 127.485 100.553 127.485 99.6888H128.07C128.07 100.193 128.178 100.628 128.394 100.994C128.616 101.36 128.898 101.642 129.24 101.84C129.582 102.032 129.939 102.128 130.311 102.128C130.755 102.128 131.154 102.005 131.508 101.759C131.868 101.513 132.153 101.162 132.363 100.706C132.579 100.244 132.687 99.7008 132.687 99.0768C132.687 98.4588 132.582 97.9278 132.372 97.4838C132.162 97.0338 131.877 96.6888 131.517 96.4488C131.157 96.2028 130.749 96.0798 130.293 96.0798C129.909 96.0798 129.546 96.1728 129.204 96.3588C128.868 96.5448 128.595 96.8208 128.385 97.1868C128.175 97.5468 128.07 97.9878 128.07 98.5098H127.485C127.485 97.6638 127.617 96.9468 127.881 96.3588C128.145 95.7708 128.511 95.3238 128.979 95.0178C129.453 94.7058 130.008 94.5498 130.644 94.5498C131.334 94.5498 131.964 94.7358 132.534 95.1078C133.11 95.4738 133.569 95.9958 133.911 96.6738C134.259 97.3518 134.433 98.1528 134.433 99.0768C134.433 100.007 134.256 100.817 133.902 101.507C133.548 102.191 133.074 102.725 132.48 103.109C131.892 103.487 131.241 103.676 130.527 103.676ZM126.36 103.442V91.1388H128.07V101.363L127.521 103.442H126.36Z"
    fill="#999999" />
  <path
    d="M140.293 103.676C139.549 103.676 138.877 103.484 138.277 103.1C137.677 102.716 137.2 102.182 136.846 101.498C136.498 100.814 136.324 100.022 136.324 99.1218C136.324 98.1678 136.498 97.3518 136.846 96.6738C137.194 95.9898 137.668 95.4648 138.268 95.0988C138.868 94.7328 139.543 94.5498 140.293 94.5498C140.965 94.5498 141.541 94.6878 142.021 94.9638C142.501 95.2338 142.888 95.5998 143.182 96.0618C143.476 96.5178 143.677 97.0368 143.785 97.6188C143.899 98.2008 143.92 98.8008 143.848 99.4188H137.692V98.4288H142.678L142.264 98.6988C142.282 98.3748 142.264 98.0508 142.21 97.7268C142.162 97.4028 142.066 97.1058 141.922 96.8358C141.778 96.5598 141.574 96.3408 141.31 96.1788C141.052 96.0108 140.722 95.9268 140.32 95.9268C139.816 95.9268 139.393 96.0528 139.051 96.3048C138.715 96.5568 138.46 96.8958 138.286 97.3218C138.112 97.7418 138.025 98.2038 138.025 98.7078V99.4008C138.025 99.9588 138.109 100.454 138.277 100.886C138.445 101.318 138.694 101.66 139.024 101.912C139.36 102.158 139.783 102.281 140.293 102.281C140.791 102.281 141.202 102.164 141.526 101.93C141.856 101.696 142.06 101.345 142.138 100.877H143.884C143.794 101.441 143.587 101.933 143.263 102.353C142.939 102.773 142.522 103.1 142.012 103.334C141.508 103.562 140.935 103.676 140.293 103.676Z"
    fill="#999999" />
  <path
    d="M149.662 103.676C148.918 103.676 148.246 103.484 147.646 103.1C147.046 102.716 146.569 102.182 146.215 101.498C145.867 100.814 145.693 100.022 145.693 99.1218C145.693 98.1678 145.867 97.3518 146.215 96.6738C146.563 95.9898 147.037 95.4648 147.637 95.0988C148.237 94.7328 148.912 94.5498 149.662 94.5498C150.334 94.5498 150.91 94.6878 151.39 94.9638C151.87 95.2338 152.257 95.5998 152.551 96.0618C152.845 96.5178 153.046 97.0368 153.154 97.6188C153.268 98.2008 153.289 98.8008 153.217 99.4188H147.061V98.4288H152.047L151.633 98.6988C151.651 98.3748 151.633 98.0508 151.579 97.7268C151.531 97.4028 151.435 97.1058 151.291 96.8358C151.147 96.5598 150.943 96.3408 150.679 96.1788C150.421 96.0108 150.091 95.9268 149.689 95.9268C149.185 95.9268 148.762 96.0528 148.42 96.3048C148.084 96.5568 147.829 96.8958 147.655 97.3218C147.481 97.7418 147.394 98.2038 147.394 98.7078V99.4008C147.394 99.9588 147.478 100.454 147.646 100.886C147.814 101.318 148.063 101.66 148.393 101.912C148.729 102.158 149.152 102.281 149.662 102.281C150.16 102.281 150.571 102.164 150.895 101.93C151.225 101.696 151.429 101.345 151.507 100.877H153.253C153.163 101.441 152.956 101.933 152.632 102.353C152.308 102.773 151.891 103.1 151.381 103.334C150.877 103.562 150.304 103.676 149.662 103.676Z"
    fill="#999999" />
  <path
    d="M160.03 103.676C159.4 103.676 158.854 103.535 158.392 103.253C157.93 102.965 157.576 102.545 157.33 101.993C157.09 101.435 156.97 100.745 156.97 99.9228H157.636C157.636 100.397 157.738 100.799 157.942 101.129C158.146 101.453 158.413 101.702 158.743 101.876C159.079 102.044 159.436 102.128 159.814 102.128C160.21 102.128 160.594 102.017 160.966 101.795C161.344 101.567 161.653 101.228 161.893 100.778C162.133 100.328 162.253 99.7698 162.253 99.1038C162.253 98.4678 162.145 97.9248 161.929 97.4748C161.719 97.0248 161.431 96.6798 161.065 96.4398C160.699 96.1998 160.288 96.0798 159.832 96.0798C159.448 96.0798 159.088 96.1728 158.752 96.3588C158.416 96.5388 158.146 96.8058 157.942 97.1598C157.738 97.5078 157.636 97.9338 157.636 98.4378H156.97C156.97 97.5678 157.108 96.8448 157.384 96.2688C157.666 95.6928 158.044 95.2638 158.518 94.9818C158.992 94.6938 159.517 94.5498 160.093 94.5498C160.771 94.5498 161.407 94.7328 162.001 95.0988C162.595 95.4588 163.075 95.9778 163.441 96.6558C163.813 97.3338 163.999 98.1498 163.999 99.1038C163.999 100.058 163.813 100.877 163.441 101.561C163.069 102.245 162.58 102.77 161.974 103.136C161.374 103.496 160.726 103.676 160.03 103.676ZM155.926 107.69V94.7838H157.339L157.636 96.8628V107.69H155.926Z"
    fill="#999999" />
  <path d="M166.649 103.442V91.1388H168.359V103.442H166.649Z" fill="#999999" />
  <path
    d="M174.975 103.676C174.231 103.676 173.559 103.484 172.959 103.1C172.359 102.716 171.882 102.182 171.528 101.498C171.18 100.814 171.006 100.022 171.006 99.1218C171.006 98.1678 171.18 97.3518 171.528 96.6738C171.876 95.9898 172.35 95.4648 172.95 95.0988C173.55 94.7328 174.225 94.5498 174.975 94.5498C175.647 94.5498 176.223 94.6878 176.703 94.9638C177.183 95.2338 177.57 95.5998 177.864 96.0618C178.158 96.5178 178.359 97.0368 178.467 97.6188C178.581 98.2008 178.602 98.8008 178.53 99.4188H172.374V98.4288H177.36L176.946 98.6988C176.964 98.3748 176.946 98.0508 176.892 97.7268C176.844 97.4028 176.748 97.1058 176.604 96.8358C176.46 96.5598 176.256 96.3408 175.992 96.1788C175.734 96.0108 175.404 95.9268 175.002 95.9268C174.498 95.9268 174.075 96.0528 173.733 96.3048C173.397 96.5568 173.142 96.8958 172.968 97.3218C172.794 97.7418 172.707 98.2038 172.707 98.7078V99.4008C172.707 99.9588 172.791 100.454 172.959 100.886C173.127 101.318 173.376 101.66 173.706 101.912C174.042 102.158 174.465 102.281 174.975 102.281C175.473 102.281 175.884 102.164 176.208 101.93C176.538 101.696 176.742 101.345 176.82 100.877H178.566C178.476 101.441 178.269 101.933 177.945 102.353C177.621 102.773 177.204 103.1 176.694 103.334C176.19 103.562 175.617 103.676 174.975 103.676Z"
    fill="#999999" />
  <path
    d="M179.979 102.434C179.979 102.098 180.093 101.813 180.321 101.579C180.555 101.345 180.849 101.228 181.203 101.228C181.557 101.228 181.857 101.345 182.103 101.579C182.349 101.813 182.472 102.098 182.472 102.434C182.472 102.764 182.349 103.043 182.103 103.271C181.857 103.493 181.557 103.604 181.203 103.604C180.849 103.604 180.555 103.49 180.321 103.262C180.093 103.034 179.979 102.758 179.979 102.434Z"
    fill="#999999" />
  <path
    d="M190.803 103.442V98.3658C190.803 97.6158 190.623 97.0488 190.263 96.6648C189.909 96.2748 189.429 96.0798 188.823 96.0798C188.343 96.0798 187.923 96.2118 187.563 96.4758C187.209 96.7338 186.933 97.1148 186.735 97.6188C186.543 98.1168 186.447 98.7258 186.447 99.4458H185.835C185.835 98.3838 185.97 97.4898 186.24 96.7638C186.516 96.0378 186.909 95.4888 187.419 95.1168C187.929 94.7388 188.541 94.5498 189.255 94.5498C189.951 94.5498 190.539 94.7058 191.019 95.0178C191.505 95.3298 191.874 95.7738 192.126 96.3498C192.378 96.9198 192.504 97.5918 192.504 98.3658V103.442H190.803ZM184.737 103.442V94.7838H186.222L186.447 96.6558V103.442H184.737Z"
    fill="#999999" />
  <path
    d="M196.244 103.442V93.5688C196.244 92.9688 196.358 92.4828 196.586 92.1108C196.82 91.7328 197.129 91.4538 197.513 91.2738C197.897 91.0938 198.32 91.0038 198.782 91.0038C199.046 91.0038 199.316 91.0218 199.592 91.0578C199.874 91.0938 200.15 91.1478 200.42 91.2198L200.096 92.5518C199.928 92.4918 199.757 92.4438 199.583 92.4078C199.415 92.3718 199.253 92.3538 199.097 92.3538C198.911 92.3538 198.731 92.3898 198.557 92.4618C198.383 92.5278 198.239 92.6508 198.125 92.8308C198.017 93.0108 197.963 93.2658 197.963 93.5958V103.442H196.244ZM194.885 95.9448V94.7838H199.664V95.9448H194.885Z"
    fill="#999999" />
  <path
    d="M204.885 103.676C204.393 103.676 203.949 103.583 203.553 103.397C203.157 103.211 202.842 102.932 202.608 102.56C202.38 102.182 202.266 101.708 202.266 101.138V92.4258H203.967V101.084C203.967 101.9 204.348 102.308 205.11 102.308C205.344 102.308 205.572 102.284 205.794 102.236C206.016 102.182 206.268 102.104 206.55 102.002L206.793 103.217C206.475 103.349 206.16 103.457 205.848 103.541C205.542 103.631 205.221 103.676 204.885 103.676ZM200.943 95.9448V94.7838H206.532V95.9448H200.943Z"
    fill="#999999" />
  <path d="M208.256 104.801L212.819 90.1758H214.565L209.975 104.801H208.256Z" fill="#999999" />
  <rect x="356.326" y="2.18579" width="110.395" height="138.814" fill="url(#paint0_linear--browser-eg)" />
  <rect x="110.395" y="138.814" width="110.395" height="138.814" transform="rotate(-180 110.395 138.814)"
    fill="url(#paint1_linear--browser-eg)" />
  <path
    d="M12.544 25.8511C11.9654 25.8511 11.4474 25.7041 10.99 25.4101C10.5374 25.1115 10.178 24.6985 9.91203 24.1711C9.6507 23.6438 9.52003 23.0371 9.52003 22.3511C9.52003 21.6185 9.6507 20.9885 9.91203 20.4611C10.1734 19.9338 10.5304 19.5301 10.983 19.2501C11.4404 18.9655 11.9607 18.8231 12.544 18.8231C13.0527 18.8231 13.4867 18.9258 13.846 19.1311C14.2054 19.3365 14.4947 19.6141 14.714 19.9641C14.9334 20.3141 15.085 20.7108 15.169 21.1541C15.2577 21.5928 15.2834 22.0478 15.246 22.5191H10.402V21.8471H14.525L14.203 22.0571C14.217 21.7818 14.2007 21.5065 14.154 21.2311C14.112 20.9558 14.0304 20.7038 13.909 20.4751C13.7877 20.2418 13.6174 20.0551 13.398 19.9151C13.1787 19.7751 12.8987 19.7051 12.558 19.7051C12.1287 19.7051 11.7694 19.8148 11.48 20.0341C11.1907 20.2535 10.9737 20.5428 10.829 20.9021C10.6844 21.2568 10.612 21.6418 10.612 22.0571V22.5051C10.612 22.9718 10.682 23.3895 10.822 23.7581C10.9667 24.1268 11.1814 24.4185 11.466 24.6331C11.7507 24.8478 12.11 24.9551 12.544 24.9551C12.978 24.9551 13.335 24.8501 13.615 24.6401C13.895 24.4301 14.0654 24.1198 14.126 23.7091H15.26C15.19 24.1525 15.0314 24.5351 14.784 24.8571C14.5367 25.1745 14.2217 25.4195 13.839 25.5921C13.4564 25.7648 13.0247 25.8511 12.544 25.8511Z"
    fill="black" />
  <path
    d="M16.4174 25.0321C16.4174 24.8128 16.4944 24.6238 16.6484 24.4651C16.8024 24.3065 16.9961 24.2271 17.2294 24.2271C17.4628 24.2271 17.6611 24.3065 17.8244 24.4651C17.9878 24.6238 18.0694 24.8128 18.0694 25.0321C18.0694 25.2515 17.9878 25.4358 17.8244 25.5851C17.6611 25.7345 17.4628 25.8091 17.2294 25.8091C16.9961 25.8091 16.8024 25.7345 16.6484 25.5851C16.4944 25.4311 16.4174 25.2468 16.4174 25.0321Z"
    fill="black" />
  <path
    d="M22.2794 29.1271C21.5934 29.1271 20.9984 29.0291 20.4944 28.8331C19.9904 28.6418 19.5984 28.3828 19.3184 28.0561C19.0431 27.7341 18.9054 27.3771 18.9054 26.9851C18.9054 26.4671 19.0944 26.0705 19.4724 25.7951C19.8551 25.5245 20.3474 25.3891 20.9494 25.3891L21.5514 25.7671C21.0474 25.7671 20.6577 25.8721 20.3824 26.0821C20.1071 26.2921 19.9694 26.5791 19.9694 26.9431C19.9694 27.3071 20.1654 27.6151 20.5574 27.8671C20.9494 28.1191 21.5234 28.2451 22.2794 28.2451C22.8394 28.2451 23.3294 28.1635 23.7494 28.0001C24.1741 27.8415 24.5031 27.6315 24.7364 27.3701C24.9744 27.1135 25.0934 26.8358 25.0934 26.5371C25.0934 26.3271 25.0164 26.1451 24.8624 25.9911C24.7084 25.8418 24.4727 25.7671 24.1554 25.7671H21.5514C21.0987 25.7671 20.7067 25.6995 20.3754 25.5641C20.0487 25.4241 19.7967 25.2421 19.6194 25.0181C19.4421 24.7941 19.3534 24.5491 19.3534 24.2831C19.3534 24.0031 19.4327 23.7651 19.5914 23.5691C19.7501 23.3731 19.9554 23.2238 20.2074 23.1211C20.4641 23.0185 20.7394 22.9671 21.0334 22.9671L21.2434 23.3731C21.1034 23.3731 20.9611 23.4058 20.8164 23.4711C20.6764 23.5318 20.5574 23.6251 20.4594 23.7511C20.3661 23.8725 20.3194 24.0265 20.3194 24.2131C20.3194 24.4278 20.4081 24.6075 20.5854 24.7521C20.7627 24.8968 21.0847 24.9691 21.5514 24.9691H24.1554C24.7854 24.9691 25.2801 25.1021 25.6394 25.3681C26.0034 25.6341 26.1854 26.0051 26.1854 26.4811C26.1854 26.9198 26.0291 27.3398 25.7164 27.7411C25.4037 28.1471 24.9557 28.4785 24.3724 28.7351C23.7891 28.9965 23.0914 29.1271 22.2794 29.1271ZM22.4754 23.7231C21.9621 23.7231 21.4977 23.6205 21.0824 23.4151C20.6717 23.2098 20.3451 22.9228 20.1024 22.5541C19.8644 22.1855 19.7454 21.7585 19.7454 21.2731C19.7454 20.7831 19.8644 20.3538 20.1024 19.9851C20.3451 19.6165 20.6717 19.3318 21.0824 19.1311C21.4977 18.9258 21.9621 18.8231 22.4754 18.8231C22.9747 18.8231 23.4274 18.9258 23.8334 19.1311C24.2441 19.3318 24.5707 19.6165 24.8134 19.9851C25.0561 20.3538 25.1774 20.7831 25.1774 21.2731C25.1774 21.7585 25.0561 22.1855 24.8134 22.5541C24.5707 22.9228 24.2441 23.2098 23.8334 23.4151C23.4274 23.6205 22.9747 23.7231 22.4754 23.7231ZM22.4754 22.9391C22.9887 22.9391 23.3877 22.7805 23.6724 22.4631C23.9571 22.1458 24.0994 21.7491 24.0994 21.2731C24.0994 20.7831 23.9571 20.3865 23.6724 20.0831C23.3877 19.7751 22.9887 19.6211 22.4754 19.6211C21.9667 19.6211 21.5654 19.7751 21.2714 20.0831C20.9821 20.3865 20.8374 20.7831 20.8374 21.2731C20.8374 21.7491 20.9821 22.1458 21.2714 22.4631C21.5654 22.7805 21.9667 22.9391 22.4754 22.9391ZM24.6734 19.8871L24.1554 19.6771C24.1554 19.2851 24.2324 18.9421 24.3864 18.6481C24.5404 18.3495 24.7597 18.1185 25.0444 17.9551C25.3291 17.7871 25.6674 17.7031 26.0594 17.7031L25.9754 18.7811C25.5554 18.7811 25.2334 18.8721 25.0094 19.0541C24.7854 19.2315 24.6734 19.5091 24.6734 19.8871Z"
    fill="black" />
  <path
    d="M26.8217 25.0321C26.8217 24.8128 26.8987 24.6238 27.0527 24.4651C27.2067 24.3065 27.4004 24.2271 27.6337 24.2271C27.8671 24.2271 28.0654 24.3065 28.2287 24.4651C28.3921 24.6238 28.4737 24.8128 28.4737 25.0321C28.4737 25.2515 28.3921 25.4358 28.2287 25.5851C28.0654 25.7345 27.8671 25.8091 27.6337 25.8091C27.4004 25.8091 27.2067 25.7345 27.0527 25.5851C26.8987 25.4311 26.8217 25.2468 26.8217 25.0321Z"
    fill="black" />
  <path d="M378.749 134.678H340.84V107H378.749L369.708 121.579L378.749 134.678Z" fill="black" stroke="black"
    stroke-miterlimit="10" />
  <path d="M340.84 175V134.451" stroke="black" stroke-miterlimit="10" />
  <defs>
    <linearGradient id="paint0_linear--browser-eg" x1="457.689" y1="74.5091" x2="349.301" y2="74.5091"
      gradientUnits="userSpaceOnUse">
      <stop stop-color="white" />
      <stop offset="0.859375" stop-color="white" stop-opacity="0" />
    </linearGradient>
    <linearGradient id="paint1_linear--browser-eg" x1="211.759" y1="211.138" x2="103.37" y2="211.138"
      gradientUnits="userSpaceOnUse">
      <stop stop-color="white" />
      <stop offset="0.838542" stop-color="white" stop-opacity="0" />
    </linearGradient>
  </defs>
</svg>