<svg width="100%" height="100%" viewBox="0 0 306 284" fill="none" xmlns="http://www.w3.org/2000/svg">
  <path
    d="M287.808 141.167C287.808 142.573 287.335 143.971 286.578 145.389C285.82 146.81 284.797 148.218 283.726 149.649C283.606 149.811 283.485 149.972 283.363 150.134C282.415 151.398 281.452 152.681 280.663 153.973C279.773 155.432 279.079 156.944 278.874 158.51C278.669 160.076 278.949 161.724 279.43 163.374C279.862 164.853 280.468 166.37 281.063 167.862C281.132 168.034 281.2 168.205 281.268 168.376C281.932 170.045 282.557 171.675 282.925 173.237C283.292 174.798 283.391 176.251 283.037 177.571C282.683 178.892 281.872 180.099 280.775 181.266C279.678 182.434 278.324 183.532 276.918 184.645C276.779 184.755 276.64 184.864 276.501 184.974C275.236 185.973 273.948 186.99 272.831 188.064C271.59 189.256 270.524 190.549 269.917 192.017C269.31 193.484 269.151 195.15 269.187 196.867C269.22 198.408 269.412 200.028 269.601 201.619C269.622 201.8 269.644 201.981 269.665 202.161C269.873 203.938 270.055 205.666 270.004 207.264C269.953 208.861 269.671 210.287 268.984 211.473C268.296 212.659 267.198 213.614 265.836 214.455C264.472 215.297 262.88 216.003 261.232 216.711C261.071 216.78 260.91 216.849 260.748 216.919C259.266 217.553 257.756 218.2 256.396 218.946C254.886 219.775 253.52 220.747 252.549 222.01C251.577 223.273 250.991 224.841 250.582 226.51C250.214 228.009 249.982 229.627 249.754 231.216C249.728 231.394 249.703 231.572 249.677 231.749C249.421 233.52 249.15 235.238 248.688 236.773C248.226 238.305 247.583 239.616 246.606 240.592C245.63 241.569 244.32 242.212 242.788 242.674C241.255 243.137 239.538 243.407 237.768 243.663C237.59 243.689 237.412 243.715 237.233 243.74C235.646 243.968 234.029 244.201 232.53 244.568C230.86 244.977 229.29 245.563 228.024 246.534C226.758 247.505 225.788 248.87 224.964 250.377C224.224 251.729 223.586 253.229 222.958 254.703C222.887 254.87 222.815 255.038 222.744 255.204C222.041 256.849 221.339 258.44 220.495 259.805C219.653 261.168 218.69 262.272 217.487 262.97C216.284 263.668 214.851 263.955 213.254 264.008C211.655 264.062 209.932 263.88 208.161 263.67C207.968 263.648 207.775 263.624 207.582 263.601C206.009 263.412 204.408 263.22 202.884 263.184C201.17 263.144 199.506 263.299 198.032 263.903C196.557 264.507 195.266 265.57 194.081 266.81C193.018 267.921 192.015 269.202 191.028 270.461C190.914 270.606 190.801 270.751 190.687 270.895C189.582 272.301 188.491 273.655 187.321 274.754C186.152 275.851 184.934 276.665 183.586 277.023C182.238 277.381 180.78 277.282 179.225 276.915C177.669 276.547 176.054 275.921 174.398 275.256C174.241 275.193 174.082 275.129 173.924 275.066C172.432 274.465 170.91 273.852 169.417 273.418C167.763 272.937 166.101 272.662 164.498 272.873C162.894 273.084 161.364 273.781 159.896 274.673C158.578 275.474 157.279 276.453 156.005 277.414C155.863 277.522 155.72 277.629 155.578 277.736C154.156 278.805 152.763 279.826 151.354 280.582C149.949 281.336 148.561 281.807 147.155 281.807C145.748 281.807 144.35 281.334 142.929 280.577C141.508 279.819 140.098 278.796 138.665 277.725C138.504 277.605 138.342 277.483 138.18 277.362C136.915 276.414 135.63 275.451 134.337 274.662C132.876 273.772 131.364 273.078 129.798 272.873C128.232 272.668 126.585 272.949 124.935 273.433C123.464 273.865 121.953 274.47 120.469 275.064C120.291 275.135 120.113 275.207 119.936 275.277C118.269 275.942 116.64 276.568 115.077 276.935C113.516 277.301 112.062 277.397 110.739 277.037C109.414 276.676 108.206 275.861 107.041 274.763C105.874 273.665 104.78 272.312 103.67 270.907C103.564 270.773 103.457 270.638 103.351 270.503C102.352 269.236 101.334 267.945 100.259 266.826C99.0682 265.587 97.7749 264.523 96.3042 263.916C94.8336 263.309 93.1658 263.15 91.447 263.186C89.9038 263.219 88.2815 263.411 86.6892 263.6C86.5092 263.622 86.3297 263.643 86.1507 263.664C84.3737 263.872 82.6462 264.054 81.0494 264.003C79.4542 263.952 78.0309 263.67 76.8485 262.983C75.6658 262.296 74.7129 261.197 73.8736 259.835C73.0335 258.471 72.3285 256.879 71.6215 255.231C71.5536 255.073 71.4857 254.914 71.4176 254.755C70.7824 253.27 70.1353 251.758 69.3878 250.395C68.5596 248.885 67.5868 247.519 66.3244 246.548C65.0608 245.576 63.4889 244.993 61.8161 244.59C60.3262 244.23 58.7188 244.004 57.1388 243.782C56.9463 243.755 56.7542 243.728 56.5628 243.7C54.7861 243.448 53.0626 243.18 51.5235 242.715C49.9863 242.25 48.6715 241.599 47.6918 240.608C46.7103 239.614 46.066 238.295 45.6045 236.76C45.1424 235.224 44.8739 233.509 44.619 231.743C44.5938 231.568 44.5688 231.394 44.5437 231.218C44.3167 229.632 44.0856 228.017 43.7178 226.519C43.3091 224.854 42.7218 223.288 41.7474 222.023C40.7729 220.757 39.407 219.787 37.8992 218.962C36.547 218.223 35.0474 217.585 33.5741 216.958C33.406 216.886 33.2383 216.815 33.0711 216.743C31.4262 216.04 29.8357 215.338 28.4698 214.494C27.1056 213.652 25.9996 212.689 25.2986 211.485C24.5979 210.282 24.3092 208.849 24.2553 207.253C24.2012 205.654 24.3829 203.931 24.5938 202.16C24.6171 201.964 24.6407 201.768 24.6644 201.572C24.8537 200.002 25.0462 198.405 25.0828 196.883C25.124 195.17 24.9699 193.505 24.3665 192.031C23.7625 190.556 22.6989 189.265 21.4585 188.08C20.3462 187.016 19.0635 186.011 17.803 185.024C17.659 184.911 17.5153 184.799 17.3722 184.686C15.965 183.581 14.6101 182.49 13.5098 181.319C12.4109 180.151 11.5938 178.932 11.2329 177.584C10.8722 176.238 10.9743 174.78 11.3473 173.226C11.7209 171.67 12.356 170.055 13.0297 168.399C13.0917 168.247 13.154 168.094 13.2164 167.941C13.8274 166.444 14.4506 164.916 14.8908 163.417C15.3764 161.763 15.6532 160.1 15.4348 158.495C15.2167 156.892 14.5174 155.363 13.624 153.895C12.824 152.581 11.8488 151.286 10.8922 150.017C10.782 149.87 10.672 149.724 10.5625 149.579C9.49498 148.158 8.47662 146.766 7.72305 145.359C6.97075 143.955 6.50098 142.57 6.50098 141.167C6.50098 139.763 6.97389 138.367 7.73085 136.947C8.48875 135.526 9.5124 134.115 10.5829 132.682C10.7025 132.522 10.8228 132.361 10.9433 132.2C11.8926 130.933 12.8567 129.646 13.6459 128.35C14.536 126.889 15.2302 125.376 15.4351 123.81C15.64 122.244 15.3604 120.596 14.8786 118.946C14.4463 117.465 13.8392 115.946 13.2425 114.452C13.1745 114.281 13.1067 114.112 13.0392 113.942C12.3747 112.273 11.7482 110.642 11.3788 109.077C11.0098 107.514 10.9079 106.059 11.2592 104.735C11.6103 103.411 12.4199 102.204 13.5156 101.039C14.6124 99.8733 15.9664 98.7792 17.3745 97.6691C17.5154 97.5581 17.6568 97.4469 17.7985 97.3354C19.0626 96.3414 20.3503 95.3287 21.4682 94.2588C22.7123 93.0681 23.7811 91.7749 24.3916 90.3041C25.0021 88.8332 25.1622 87.165 25.1253 85.4459C25.0922 83.9015 24.8983 82.2781 24.708 80.6848C24.6866 80.5058 24.6653 80.3273 24.6443 80.1493C24.4341 78.3722 24.2512 76.645 24.3015 75.0483C24.3517 73.4533 24.6344 72.0304 25.3244 70.8484C26.0151 69.6651 27.1148 68.7119 28.4767 67.8725C29.8399 67.0324 31.4301 66.3274 33.0753 65.6204C33.2324 65.553 33.39 65.4854 33.5479 65.4178C35.0314 64.7822 36.5428 64.1347 37.9042 63.3866C39.4116 62.5584 40.7765 61.5857 41.7475 60.3234C42.7192 59.0602 43.3038 57.4887 43.7109 55.816C44.0747 54.3212 44.3047 52.7082 44.5307 51.1229C44.5574 50.9357 44.5841 50.7489 44.6109 50.5627C44.8665 48.7859 45.1371 47.0621 45.6025 45.5225C46.0673 43.9847 46.7158 42.6696 47.7016 41.6898C48.6884 40.709 50.003 40.065 51.5352 39.6035C53.0694 39.1414 54.7836 38.8729 56.5508 38.618C56.7265 38.5926 56.9028 38.5674 57.0794 38.5422C58.6654 38.3153 60.2806 38.0843 61.7796 37.7169C63.4471 37.3082 65.0161 36.721 66.285 35.7468C67.5541 34.7724 68.5262 33.4063 69.3511 31.8983C70.0925 30.5429 70.732 29.0393 71.3601 27.5626C71.4301 27.3979 71.5 27.2336 71.5699 27.0699C72.2719 25.4249 72.9735 23.8345 73.8161 22.4686C74.6576 21.1045 75.6196 19.9986 76.8229 19.2976C78.0259 18.5969 79.459 18.3083 81.0555 18.2543C82.6542 18.2003 84.3774 18.3819 86.1482 18.5928C86.3437 18.6161 86.5399 18.6397 86.7365 18.6634C88.3063 18.8527 89.9036 19.0453 91.425 19.0818C93.1386 19.1231 94.8031 18.9689 96.2768 18.3655C97.7516 17.7617 99.043 16.7 100.23 15.4621C101.294 14.3526 102.3 13.0734 103.288 11.8162C103.402 11.6721 103.515 11.5282 103.628 11.3849C104.734 9.98105 105.828 8.62927 106.999 7.53129C108.169 6.43474 109.389 5.61896 110.737 5.25792C112.084 4.89711 113.542 4.99775 115.097 5.36845C116.654 5.73969 118.269 6.37166 119.924 7.04199C120.081 7.10545 120.238 7.16926 120.395 7.2332C121.887 7.83941 123.408 8.45737 124.899 8.89394C126.549 9.37708 128.206 9.65226 129.801 9.43376C131.394 9.21557 132.919 8.51606 134.386 7.62302C135.69 6.82889 136.978 5.86202 138.244 4.91214C138.4 4.7951 138.556 4.67831 138.711 4.56214C140.137 3.49478 141.537 2.47628 142.951 1.72261C144.363 0.970152 145.757 0.5 147.168 0.5C148.577 0.5 149.977 0.973122 151.396 1.72987C152.817 2.48765 154.225 3.51116 155.655 4.58163C155.817 4.70316 155.98 4.82534 156.143 4.94777C157.405 5.89516 158.686 6.857 159.976 7.64466C161.434 8.53489 162.945 9.22923 164.511 9.43416C166.077 9.63901 167.725 9.35853 169.375 8.87567C170.854 8.44287 172.372 7.83551 173.864 7.23859C174.036 7.16991 174.207 7.10137 174.378 7.03324C176.046 6.36792 177.676 5.74108 179.238 5.37237C180.799 5.00395 182.252 4.90382 183.572 5.25788C184.893 5.61205 186.1 6.42358 187.267 7.52026C188.435 8.61791 189.533 9.97181 190.646 11.3791C190.757 11.5193 190.868 11.6601 190.979 11.8011C191.977 13.065 192.993 14.3521 194.064 15.4695C195.257 16.7123 196.549 17.78 198.017 18.3904C199.484 19.0012 201.15 19.1612 202.868 19.1244C204.41 19.0913 206.032 18.8975 207.624 18.7073C207.804 18.6859 207.983 18.6644 208.162 18.6433C209.939 18.4332 211.667 18.2502 213.266 18.3005C214.862 18.3507 216.288 18.6334 217.473 19.3237C218.66 20.0146 219.615 21.1143 220.456 22.4761C221.298 23.8393 222.004 25.4294 222.712 27.0745C222.781 27.2345 222.85 27.3951 222.919 27.556C223.554 29.0365 224.201 30.5446 224.947 31.9033C225.776 33.4107 226.748 34.7755 228.011 35.7465C229.274 36.7181 230.844 37.3028 232.514 37.7099C234.006 38.0736 235.615 38.3036 237.196 38.5295C237.383 38.5563 237.57 38.583 237.757 38.6099C239.529 38.8655 241.249 39.1361 242.784 39.6014C244.317 40.0662 245.628 40.7145 246.605 41.7001C247.583 42.687 248.226 44.0019 248.688 45.5343C249.151 47.0687 249.421 48.7831 249.677 50.5503C249.703 50.7271 249.728 50.9046 249.754 51.0824C249.982 52.6673 250.214 54.281 250.582 55.7787C250.991 57.446 251.577 59.0147 252.548 60.2833C253.519 61.5529 254.884 62.5252 256.391 63.35C257.746 64.0916 259.25 64.7312 260.727 65.3594C260.891 65.4293 261.055 65.4991 261.219 65.5689C262.864 66.2709 264.454 66.9725 265.819 67.815C267.182 68.6565 268.286 69.6183 268.984 70.8211C269.682 72.0243 269.969 73.4576 270.022 75.0544C270.076 76.6532 269.894 78.3766 269.684 80.1475C269.661 80.3403 269.638 80.5338 269.615 80.7276C269.426 82.3001 269.234 83.9003 269.198 85.4244C269.158 87.1379 269.313 88.8022 269.917 90.2758C270.521 91.7511 271.584 93.041 272.825 94.2257C273.936 95.2871 275.217 96.2895 276.475 97.2746C276.62 97.3881 276.765 97.5014 276.909 97.6145C278.316 98.7179 279.669 99.8078 280.768 100.977C281.865 102.144 282.679 103.362 283.037 104.709C283.395 106.057 283.295 107.518 282.927 109.075C282.558 110.635 281.93 112.253 281.264 113.911C281.199 114.073 281.134 114.235 281.068 114.398C280.467 115.888 279.855 117.407 279.421 118.894C278.939 120.546 278.663 122.204 278.874 123.798C279.085 125.392 279.782 126.918 280.674 128.385C281.47 129.695 282.443 130.988 283.398 132.259C283.511 132.41 283.624 132.56 283.736 132.71C284.806 134.137 285.826 135.537 286.582 136.951C287.337 138.363 287.808 139.757 287.808 141.167Z"
    stroke="black" stroke-miterlimit="10" />
  <circle cx="148.308" cy="141.307" r="121.5" stroke="black" />
  <mask id="path-3-inside-1" fill="white">
    <path
      d="M147.45 263.296C144.186 261.276 76.9177 218.308 78.5773 138.54C80.1816 62.5945 142.858 22.5743 147.45 19.7898" />
  </mask>
  <path
    d="M78.5773 138.54L77.5775 138.519L77.5775 138.519L78.5773 138.54ZM147.976 262.446C146.399 261.47 128.866 250.292 111.944 229.443C95.0268 208.602 78.7536 178.141 79.5771 138.561L77.5775 138.519C76.7414 178.707 93.2727 209.614 110.391 230.704C127.504 251.787 145.237 263.103 146.924 264.147L147.976 262.446ZM79.5771 138.561C81.1696 63.1735 143.418 23.4046 147.968 20.6448L146.931 18.9347C142.299 21.744 79.1936 62.0156 77.5775 138.519L79.5771 138.561Z"
    fill="black" mask="url(#path-3-inside-1)" />
  <mask id="path-5-inside-2" fill="white">
    <path
      d="M147.448 263.296C150.712 261.276 217.981 218.308 216.321 138.54C214.717 62.5945 152.04 22.5743 147.448 19.7898" />
  </mask>
  <path
    d="M216.321 138.54L217.321 138.519L217.321 138.519L216.321 138.54ZM147.975 264.147C149.662 263.103 167.395 251.787 184.507 230.704C201.626 209.614 218.157 178.707 217.321 138.519L215.321 138.561C216.145 178.141 199.872 208.602 182.955 229.443C166.032 250.292 148.499 261.47 146.922 262.446L147.975 264.147ZM217.321 138.519C215.705 62.0156 152.599 21.744 147.967 18.9347L146.93 20.6448C151.481 23.4046 213.729 63.1735 215.321 138.561L217.321 138.519Z"
    fill="black" mask="url(#path-5-inside-2)" />
  <path d="M147.448 263.296L147.946 141.543L147.448 19.7898" stroke="black" stroke-miterlimit="10" />
  <path d="M25.5 141.761L146.67 141.761L270.032 141.324" stroke="black" stroke-miterlimit="10" />
  <path d="M42 201H254" stroke="black" stroke-miterlimit="10" />
  <path d="M41 84.0001L255.5 84" stroke="black" stroke-miterlimit="10" />
  <path d="M136 230.765L173.47 262.023L183.505 270L192.334 260.85L298 153" stroke="#0080FF" stroke-width="20"
    stroke-miterlimit="10" />
  <path
    d="M215.165 186.197C215.733 186.616 216.911 187.495 218.698 188.835C218.548 189.3 218.327 189.997 218.036 190.923C217.749 191.851 217.531 192.542 217.39 193L221.061 190.536C221.037 190.536 222.248 191.358 224.695 193C223.858 190.313 223.441 188.935 223.443 188.866C223.443 188.866 224.626 187.978 227.001 186.221L222.963 186.122L222.559 186.122C222.249 185.277 221.761 183.903 221.093 182C220.509 183.598 220.016 184.96 219.615 186.087C219.529 186.107 219.441 186.121 219.353 186.13C218.324 186.138 216.928 186.16 215.165 186.197Z"
    fill="black" />
  <path
    d="M203.123 186.197C203.697 186.616 204.874 187.495 206.657 188.835C206.508 189.3 206.289 189.997 205.998 190.923C205.708 191.85 205.491 192.542 205.348 193L209.019 190.536C208.995 190.536 210.23 191.358 212.653 193C211.813 190.313 211.392 188.935 211.389 188.866C211.389 188.866 212.577 187.978 214.947 186.221L210.909 186.122L210.505 186.122C210.209 185.277 209.724 183.903 209.051 182C208.467 183.598 207.974 184.96 207.573 186.087C207.488 186.106 207.402 186.121 207.315 186.13C206.281 186.138 204.884 186.16 203.123 186.197Z"
    fill="black" />
  <path
    d="M191.061 186.197C191.634 186.616 192.813 187.495 194.598 188.835C194.445 189.3 194.227 189.995 193.936 190.923C193.645 191.851 193.427 192.542 193.286 193L196.957 190.536C196.935 190.536 198.147 191.357 200.591 193C199.746 190.313 199.323 188.935 199.323 188.866C199.323 188.866 200.51 187.978 202.885 186.221L198.826 186.122L198.423 186.122C198.124 185.285 197.615 183.915 196.969 182.012C196.379 183.61 195.885 184.972 195.487 186.098C195.402 186.119 195.315 186.133 195.228 186.142C194.224 186.142 192.835 186.16 191.061 186.197Z"
    fill="black" />
  <path
    d="M179.039 186.197C179.612 186.616 180.791 187.495 182.576 188.835C182.423 189.3 182.205 189.995 181.914 190.923C181.623 191.851 181.409 192.542 181.264 193L184.935 190.536C184.935 190.536 186.146 191.358 188.569 193C187.724 190.313 187.302 188.935 187.305 188.866C187.305 188.866 188.488 187.978 190.863 186.221L186.825 186.122L186.421 186.122C186.122 185.277 185.639 183.903 184.971 182C184.381 183.598 183.887 184.96 183.489 186.087C183.404 186.107 183.318 186.121 183.231 186.13C182.177 186.138 180.804 186.162 179.039 186.197Z"
    fill="black" />
  <path
    d="M167.001 186.197C167.572 186.616 168.75 187.495 170.534 188.835C170.386 189.3 170.166 189.997 169.872 190.923C169.586 191.851 169.367 192.542 169.226 193L172.889 190.536C172.865 190.536 174.076 191.358 176.523 193C175.678 190.313 175.257 188.935 175.259 188.866C175.259 188.866 176.442 187.978 178.817 186.221L174.779 186.122L174.375 186.122C174.079 185.277 173.597 183.903 172.929 182C172.345 183.598 171.852 184.96 171.451 186.087C171.365 186.107 171.277 186.121 171.189 186.13C170.168 186.138 168.772 186.16 167.001 186.197Z"
    fill="black" />
  <path
    d="M189.777 175.203C189.777 175.533 189.51 175.801 189.179 175.801C188.849 175.801 188.581 175.533 188.581 175.203C188.581 171.975 189.173 167.918 190.158 163.972C187.713 165.043 185.153 165.834 182.692 166.222C182.366 166.274 182.059 166.051 182.008 165.724C181.956 165.398 182.179 165.092 182.505 165.04C185.157 164.622 187.94 163.711 190.551 162.479C191.056 160.657 191.642 158.885 192.287 157.259C194.84 150.834 197.903 147.597 200.877 149.58C203.88 151.581 202.523 155.3 198.244 158.981C196.347 160.612 194.039 162.104 191.562 163.32C190.455 167.463 189.777 171.82 189.777 175.203ZM197.463 158.074C201.23 154.834 202.281 151.953 200.214 150.575C198.231 149.253 195.688 151.94 193.399 157.701C192.894 158.974 192.426 160.34 192.005 161.75C194.022 160.679 195.892 159.425 197.463 158.074ZM198.553 166.076C198.307 166.297 197.929 166.277 197.708 166.031C197.487 165.786 197.507 165.407 197.752 165.186L202.995 160.468C203.486 160.026 204.243 160.066 204.685 160.557C204.816 160.702 204.909 160.877 204.956 161.067L205.707 164.069L209.302 161.697C209.843 161.34 210.569 161.478 210.941 162.008L212.173 163.765L220.757 161.89C221.08 161.819 221.399 162.024 221.469 162.346C221.54 162.669 221.335 162.988 221.013 163.059L212.428 164.934C211.957 165.037 211.47 164.847 211.193 164.452L209.961 162.695L206.366 165.067C206.253 165.142 206.128 165.196 205.997 165.229C205.356 165.389 204.706 165 204.546 164.359L203.796 161.357L198.553 166.076Z"
    fill="black" />
  <path d="M61.3286 245.997L70.2336 260.992L79.1405 245.994L70.2202 231.002L61.3286 245.997Z" fill="#CEE9FF"
    stroke="black" stroke-linejoin="bevel" />
  <path d="M79.1437 246.001L96.9537 246.001L88.0468 261L70.2349 260.983L79.1437 246.001Z" fill="#CEE9FF" stroke="black"
    stroke-linejoin="bevel" />
  <path d="M79.1437 245.999L96.9537 245.999L88.0468 231L70.2349 231.017L79.1437 245.999Z" fill="#CEE9FF" stroke="black"
    stroke-linejoin="bevel" />
  <path d="M31.1787 245.997L40.0837 260.992L48.9906 245.994L40.0703 231.002L31.1787 245.997Z" fill="#CEE9FF"
    stroke="black" stroke-linejoin="bevel" />
  <path d="M48.9938 246.001L66.8038 246.001L57.8969 261L40.085 260.983L48.9938 246.001Z" fill="#CEE9FF" stroke="black"
    stroke-linejoin="bevel" />
  <path d="M48.9938 245.999L66.8038 245.999L57.8969 231L40.085 231.017L48.9938 245.999Z" fill="#CEE9FF" stroke="black"
    stroke-linejoin="bevel" />
  <path d="M1.02808 245.997L9.93306 260.992L18.84 245.994L9.91962 231.002L1.02808 245.997Z" fill="#CEE9FF"
    stroke="black" stroke-linejoin="bevel" />
  <path d="M18.8434 246.001L36.6534 246.001L27.7465 261L9.93457 260.983L18.8434 246.001Z" fill="#CEE9FF" stroke="black"
    stroke-linejoin="bevel" />
  <path d="M18.8434 245.999L36.6534 245.999L27.7465 231L9.93457 231.017L18.8434 245.999Z" fill="#CEE9FF" stroke="black"
    stroke-linejoin="bevel" />
</svg>