<svg width="425" height="560" viewBox="0 0 425 560" fill="none" xmlns="http://www.w3.org/2000/svg">
  <path d="M32.5 394.5V351.5H391.5V394.5H32.5Z" fill="#F1F3F4" stroke="black" />
  <path
    d="M90.351 378.313V373.255C90.351 372.433 90.153 371.809 89.757 371.383C89.367 370.951 88.839 370.735 88.173 370.735C87.393 370.735 86.796 371.038 86.382 371.644C85.968 372.244 85.761 373.075 85.761 374.137H85.113C85.113 373.363 85.188 372.685 85.338 372.103C85.494 371.521 85.719 371.038 86.013 370.654C86.307 370.264 86.664 369.973 87.084 369.781C87.504 369.589 87.981 369.493 88.515 369.493C89.193 369.493 89.772 369.646 90.252 369.952C90.738 370.252 91.11 370.684 91.368 371.248C91.626 371.812 91.755 372.481 91.755 373.255V378.313H90.351ZM78.255 378.313V369.709H79.461L79.623 371.437C79.893 370.813 80.271 370.333 80.757 369.997C81.249 369.661 81.837 369.493 82.521 369.493C83.199 369.493 83.778 369.646 84.258 369.952C84.744 370.252 85.116 370.684 85.374 371.248C85.632 371.812 85.761 372.481 85.761 373.255V378.313H84.375V373.255C84.375 372.433 84.177 371.809 83.781 371.383C83.391 370.951 82.857 370.735 82.179 370.735C81.663 370.735 81.216 370.876 80.838 371.158C80.46 371.44 80.169 371.845 79.965 372.373C79.761 372.895 79.659 373.519 79.659 374.245V378.313H78.255ZM93.6729 369.709H95.2389L98.0469 377.089H97.7229L99.9009 369.709H101.341L98.1009 380.041C97.8309 380.905 97.4709 381.571 97.0209 382.039C96.5709 382.507 95.9949 382.741 95.2929 382.741C94.9149 382.741 94.5549 382.687 94.2129 382.579C93.8769 382.471 93.5289 382.315 93.1689 382.111V380.815C93.4869 381.067 93.7929 381.247 94.0869 381.355C94.3869 381.463 94.6989 381.517 95.0229 381.517C95.3829 381.517 95.6829 381.403 95.9229 381.175C96.1689 380.947 96.3729 380.653 96.5349 380.293C96.6969 379.939 96.8349 379.567 96.9489 379.177L97.2009 378.313L93.6729 369.709ZM108.808 378.313L108.628 376.423V372.733C108.628 371.959 108.463 371.404 108.133 371.068C107.803 370.726 107.308 370.555 106.648 370.555C106.276 370.555 105.937 370.609 105.631 370.717C105.331 370.825 105.091 370.993 104.911 371.221C104.737 371.443 104.65 371.731 104.65 372.085H103.084C103.084 371.461 103.237 370.96 103.543 370.582C103.849 370.198 104.269 369.922 104.803 369.754C105.343 369.58 105.958 369.493 106.648 369.493C107.308 369.493 107.893 369.604 108.403 369.826C108.913 370.048 109.312 370.402 109.6 370.888C109.888 371.368 110.032 371.995 110.032 372.769V378.313H108.808ZM105.874 378.529C105.166 378.529 104.581 378.403 104.119 378.151C103.657 377.899 103.312 377.572 103.084 377.17C102.856 376.768 102.742 376.345 102.742 375.901C102.742 375.319 102.886 374.845 103.174 374.479C103.468 374.113 103.867 373.846 104.371 373.678C104.875 373.504 105.442 373.417 106.072 373.417C106.522 373.417 106.972 373.462 107.422 373.552C107.878 373.642 108.322 373.765 108.754 373.921V374.803C108.394 374.659 107.986 374.545 107.53 374.461C107.08 374.377 106.666 374.335 106.288 374.335C105.712 374.335 105.226 374.455 104.83 374.695C104.434 374.929 104.236 375.331 104.236 375.901C104.236 376.321 104.386 376.681 104.686 376.981C104.992 377.281 105.478 377.431 106.144 377.431C106.612 377.431 107.032 377.323 107.404 377.107C107.782 376.885 108.079 376.609 108.295 376.279C108.517 375.949 108.628 375.619 108.628 375.289H108.97C108.97 375.865 108.844 376.399 108.592 376.891C108.346 377.383 107.992 377.779 107.53 378.079C107.068 378.379 106.516 378.529 105.874 378.529ZM116.49 378.529C115.656 378.529 114.96 378.412 114.402 378.178C113.844 377.938 113.421 377.611 113.133 377.197C112.845 376.777 112.692 376.297 112.674 375.757H114.024C114.054 376.303 114.273 376.714 114.681 376.99C115.095 377.26 115.656 377.395 116.364 377.395C116.736 377.395 117.078 377.335 117.39 377.215C117.702 377.095 117.951 376.93 118.137 376.72C118.323 376.51 118.416 376.273 118.416 376.009C118.416 375.673 118.293 375.409 118.047 375.217C117.801 375.025 117.408 374.857 116.868 374.713L115.194 374.173C114.468 373.945 113.91 373.633 113.52 373.237C113.136 372.835 112.944 372.355 112.944 371.797C112.944 371.101 113.25 370.543 113.862 370.123C114.474 369.703 115.278 369.493 116.274 369.493C117.33 369.493 118.149 369.709 118.731 370.141C119.313 370.573 119.616 371.113 119.64 371.761H118.254C118.2 371.383 118.008 371.098 117.678 370.906C117.348 370.708 116.88 370.609 116.274 370.609C115.692 370.609 115.236 370.741 114.906 371.005C114.582 371.263 114.42 371.551 114.42 371.869C114.42 372.463 114.93 372.901 115.95 373.183L117.66 373.759C118.398 373.981 118.962 374.272 119.352 374.632C119.748 374.992 119.946 375.451 119.946 376.009C119.946 376.441 119.805 376.849 119.523 377.233C119.241 377.617 118.842 377.929 118.326 378.169C117.81 378.409 117.198 378.529 116.49 378.529ZM125.947 378.529C125.113 378.529 124.417 378.412 123.859 378.178C123.301 377.938 122.878 377.611 122.59 377.197C122.302 376.777 122.149 376.297 122.131 375.757H123.481C123.511 376.303 123.73 376.714 124.138 376.99C124.552 377.26 125.113 377.395 125.821 377.395C126.193 377.395 126.535 377.335 126.847 377.215C127.159 377.095 127.408 376.93 127.594 376.72C127.78 376.51 127.873 376.273 127.873 376.009C127.873 375.673 127.75 375.409 127.504 375.217C127.258 375.025 126.865 374.857 126.325 374.713L124.651 374.173C123.925 373.945 123.367 373.633 122.977 373.237C122.593 372.835 122.401 372.355 122.401 371.797C122.401 371.101 122.707 370.543 123.319 370.123C123.931 369.703 124.735 369.493 125.731 369.493C126.787 369.493 127.606 369.709 128.188 370.141C128.77 370.573 129.073 371.113 129.097 371.761H127.711C127.657 371.383 127.465 371.098 127.135 370.906C126.805 370.708 126.337 370.609 125.731 370.609C125.149 370.609 124.693 370.741 124.363 371.005C124.039 371.263 123.877 371.551 123.877 371.869C123.877 372.463 124.387 372.901 125.407 373.183L127.117 373.759C127.855 373.981 128.419 374.272 128.809 374.632C129.205 374.992 129.403 375.451 129.403 376.009C129.403 376.441 129.262 376.849 128.98 377.233C128.698 377.617 128.299 377.929 127.783 378.169C127.267 378.409 126.655 378.529 125.947 378.529ZM135.296 378.529C134.552 378.529 133.886 378.34 133.298 377.962C132.716 377.578 132.254 377.047 131.912 376.369C131.576 375.691 131.408 374.911 131.408 374.029C131.408 373.087 131.576 372.277 131.912 371.599C132.248 370.921 132.707 370.402 133.289 370.042C133.877 369.676 134.546 369.493 135.296 369.493C135.95 369.493 136.508 369.625 136.97 369.889C137.432 370.153 137.804 370.51 138.086 370.96C138.368 371.41 138.563 371.92 138.671 372.49C138.785 373.054 138.818 373.639 138.77 374.245H132.542V373.381H137.843L137.429 373.651C137.447 373.297 137.426 372.943 137.366 372.589C137.312 372.235 137.207 371.911 137.051 371.617C136.895 371.317 136.676 371.077 136.394 370.897C136.112 370.717 135.752 370.627 135.314 370.627C134.762 370.627 134.3 370.768 133.928 371.05C133.556 371.332 133.277 371.704 133.091 372.166C132.905 372.622 132.812 373.117 132.812 373.651V374.227C132.812 374.827 132.902 375.364 133.082 375.838C133.268 376.312 133.544 376.687 133.91 376.963C134.276 377.239 134.738 377.377 135.296 377.377C135.854 377.377 136.313 377.242 136.673 376.972C137.033 376.702 137.252 376.303 137.33 375.775H138.788C138.698 376.345 138.494 376.837 138.176 377.251C137.858 377.659 137.453 377.974 136.961 378.196C136.469 378.418 135.914 378.529 135.296 378.529ZM144.2 378.529C143.732 378.529 143.312 378.439 142.94 378.259C142.568 378.079 142.274 377.809 142.058 377.449C141.842 377.089 141.734 376.639 141.734 376.099V367.315H143.12V376.063C143.12 376.951 143.534 377.395 144.362 377.395C144.608 377.395 144.845 377.368 145.073 377.314C145.307 377.26 145.568 377.179 145.856 377.071L146.054 378.079C145.748 378.211 145.442 378.319 145.136 378.403C144.836 378.487 144.524 378.529 144.2 378.529ZM140.348 370.681V369.709H145.838V370.681H140.348ZM151.417 378.529C150.583 378.529 149.887 378.412 149.329 378.178C148.771 377.938 148.348 377.611 148.06 377.197C147.772 376.777 147.619 376.297 147.601 375.757H148.951C148.981 376.303 149.2 376.714 149.608 376.99C150.022 377.26 150.583 377.395 151.291 377.395C151.663 377.395 152.005 377.335 152.317 377.215C152.629 377.095 152.878 376.93 153.064 376.72C153.25 376.51 153.343 376.273 153.343 376.009C153.343 375.673 153.22 375.409 152.974 375.217C152.728 375.025 152.335 374.857 151.795 374.713L150.121 374.173C149.395 373.945 148.837 373.633 148.447 373.237C148.063 372.835 147.871 372.355 147.871 371.797C147.871 371.101 148.177 370.543 148.789 370.123C149.401 369.703 150.205 369.493 151.201 369.493C152.257 369.493 153.076 369.709 153.658 370.141C154.24 370.573 154.543 371.113 154.567 371.761H153.181C153.127 371.383 152.935 371.098 152.605 370.906C152.275 370.708 151.807 370.609 151.201 370.609C150.619 370.609 150.163 370.741 149.833 371.005C149.509 371.263 149.347 371.551 149.347 371.869C149.347 372.463 149.857 372.901 150.877 373.183L152.587 373.759C153.325 373.981 153.889 374.272 154.279 374.632C154.675 374.992 154.873 375.451 154.873 376.009C154.873 376.441 154.732 376.849 154.45 377.233C154.168 377.617 153.769 377.929 153.253 378.169C152.737 378.409 152.125 378.529 151.417 378.529ZM156.5 377.476C156.5 377.194 156.599 376.951 156.797 376.747C156.995 376.543 157.244 376.441 157.544 376.441C157.844 376.441 158.099 376.543 158.309 376.747C158.519 376.951 158.624 377.194 158.624 377.476C158.624 377.758 158.519 377.995 158.309 378.187C158.099 378.379 157.844 378.475 157.544 378.475C157.244 378.475 156.995 378.379 156.797 378.187C156.599 377.989 156.5 377.752 156.5 377.476ZM167.115 378.313V373.255C167.115 372.433 166.917 371.809 166.521 371.383C166.131 370.951 165.597 370.735 164.919 370.735C164.403 370.735 163.956 370.876 163.578 371.158C163.2 371.44 162.909 371.845 162.705 372.373C162.501 372.895 162.399 373.519 162.399 374.245H161.859C161.859 373.243 161.991 372.388 162.255 371.68C162.519 370.972 162.903 370.432 163.407 370.06C163.917 369.682 164.535 369.493 165.261 369.493C165.939 369.493 166.518 369.646 166.998 369.952C167.484 370.252 167.856 370.684 168.114 371.248C168.372 371.812 168.501 372.481 168.501 373.255V378.313H167.115ZM160.995 378.313V369.709H162.201L162.399 371.689V378.313H160.995ZM172.327 378.313V368.377C172.327 367.807 172.435 367.342 172.651 366.982C172.873 366.616 173.167 366.346 173.533 366.172C173.905 365.998 174.319 365.911 174.775 365.911C175.021 365.911 175.27 365.929 175.522 365.965C175.78 366.001 176.035 366.055 176.287 366.127L176.017 367.243C175.837 367.171 175.657 367.117 175.477 367.081C175.303 367.045 175.135 367.027 174.973 367.027C174.781 367.027 174.589 367.063 174.397 367.135C174.205 367.207 174.046 367.342 173.92 367.54C173.794 367.738 173.731 368.023 173.731 368.395V378.313H172.327ZM170.923 370.681V369.709H175.513V370.681H170.923ZM180.674 378.529C180.206 378.529 179.786 378.439 179.414 378.259C179.042 378.079 178.748 377.809 178.532 377.449C178.316 377.089 178.208 376.639 178.208 376.099V367.315H179.594V376.063C179.594 376.951 180.008 377.395 180.836 377.395C181.082 377.395 181.319 377.368 181.547 377.314C181.781 377.26 182.042 377.179 182.33 377.071L182.528 378.079C182.222 378.211 181.916 378.319 181.61 378.403C181.31 378.487 180.998 378.529 180.674 378.529ZM176.822 370.681V369.709H182.312V370.681H176.822ZM184.004 379.609L188.522 365.155H189.962L185.408 379.609H184.004Z"
    fill="#1A1A1A" />
  <path
    d="M64.9256 371.563H54.278C53.7352 371.563 53.2952 372.006 53.2952 372.553V379.953C53.2952 380.5 53.7352 380.944 54.278 380.944H64.9256C65.4684 380.944 65.9085 380.5 65.9085 379.953V372.553C65.9085 372.006 65.4684 371.563 64.9256 371.563Z"
    fill="#1A1A1A" />
  <path fill-rule="evenodd" clip-rule="evenodd"
    d="M60.2944 376.456C60.5268 376.309 60.7054 376.089 60.8032 375.831C60.9011 375.572 60.9129 375.288 60.8368 375.022C60.7607 374.757 60.601 374.523 60.3816 374.356C60.1622 374.19 59.8951 374.1 59.6205 374.1C59.346 374.1 59.0789 374.19 58.8595 374.356C58.6401 374.523 58.4803 374.757 58.4043 375.022C58.3282 375.288 58.34 375.572 58.4378 375.831C58.5357 376.089 58.7143 376.309 58.9467 376.456L58.5074 378.415H60.7411L60.2944 376.456Z"
    fill="#E8E8E8" />
  <path
    d="M64.7096 371.563V368.118C64.7096 366.827 63.965 365.784 62.8407 365.784H56.2437C55.1119 365.784 54.3748 366.827 54.3748 368.118V371.563"
    stroke="#1A1A1A" stroke-width="1.3" stroke-miterlimit="10" />
  <path
    d="M379.774 369.762C378.798 370.512 376.796 372.013 373.75 374.4C374.008 375.21 374.383 376.431 374.875 378.062C375.373 379.69 375.738 380.906 375.984 381.709L369.737 377.386C369.772 377.386 367.699 378.827 363.52 381.709C364.954 376.991 365.674 374.572 365.679 374.452C365.679 374.452 363.654 372.891 359.618 369.807L366.52 369.634H367.198C367.704 368.133 368.538 365.762 369.677 362.422C370.67 365.229 371.509 367.62 372.194 369.597C372.341 369.632 372.49 369.657 372.641 369.672C374.391 369.672 376.743 369.709 379.774 369.762Z"
    fill="#0080FF" />
  <rect x="0.5" y="444.055" width="409.495" height="115.445" fill="#B3FFF2" stroke="black" />
  <rect x="15.2911" y="429.5" width="409.209" height="115" fill="white" stroke="black" />
  <line y1="-0.5" x2="20.4419" y2="-0.5" transform="matrix(-0.702133 0.712046 -0.702133 -0.712046 423.413 543.987)"
    stroke="black" />
  <line y1="-0.5" x2="20.4419" y2="-0.5" transform="matrix(-0.702133 0.712046 -0.702133 -0.712046 14.353 543.987)"
    stroke="black" />
  <line y1="-0.5" x2="20.4419" y2="-0.5" transform="matrix(-0.702133 0.712046 -0.702133 -0.712046 14.353 429)"
    stroke="black" />
  <path
    d="M76.5686 459.234C75.7886 459.234 75.0716 459.096 74.4176 458.82C73.7636 458.538 73.2356 458.121 72.8336 457.569C72.4376 457.017 72.2306 456.327 72.2126 455.499H73.8866C73.8866 455.997 74.0066 456.405 74.2466 456.723C74.4926 457.041 74.8166 457.278 75.2186 457.434C75.6206 457.584 76.0646 457.659 76.5506 457.659C77.0426 457.659 77.4776 457.584 77.8556 457.434C78.2336 457.284 78.5246 457.083 78.7286 456.831C78.9386 456.579 79.0436 456.291 79.0436 455.967C79.0436 455.529 78.9086 455.178 78.6386 454.914C78.3686 454.644 77.9576 454.416 77.4056 454.23L75.2726 453.438C74.3546 453.096 73.6556 452.703 73.1756 452.259C72.6956 451.809 72.4556 451.185 72.4556 450.387C72.4556 449.481 72.8096 448.746 73.5176 448.182C74.2256 447.612 75.2216 447.327 76.5056 447.327C77.7236 447.327 78.6686 447.609 79.3406 448.173C80.0186 448.737 80.4056 449.505 80.5016 450.477H78.8186C78.7346 449.985 78.5036 449.595 78.1256 449.307C77.7536 449.019 77.2136 448.875 76.5056 448.875C75.8216 448.875 75.2876 449.025 74.9036 449.325C74.5196 449.619 74.3276 449.991 74.3276 450.441C74.3276 450.813 74.4476 451.11 74.6876 451.332C74.9336 451.554 75.3146 451.755 75.8306 451.935L78.2606 452.826C79.0946 453.12 79.7456 453.516 80.2136 454.014C80.6816 454.512 80.9156 455.145 80.9156 455.913C80.9156 456.561 80.7476 457.134 80.4116 457.632C80.0756 458.13 79.5836 458.523 78.9356 458.811C78.2876 459.093 77.4986 459.234 76.5686 459.234ZM86.9845 459.234C86.2405 459.234 85.5685 459.042 84.9685 458.658C84.3685 458.274 83.8915 457.74 83.5375 457.056C83.1895 456.372 83.0155 455.58 83.0155 454.68C83.0155 453.726 83.1895 452.91 83.5375 452.232C83.8855 451.548 84.3595 451.023 84.9595 450.657C85.5595 450.291 86.2345 450.108 86.9845 450.108C87.6565 450.108 88.2325 450.246 88.7125 450.522C89.1925 450.792 89.5795 451.158 89.8735 451.62C90.1675 452.076 90.3685 452.595 90.4765 453.177C90.5905 453.759 90.6115 454.359 90.5395 454.977H84.3835V453.987H89.3695L88.9555 454.257C88.9735 453.933 88.9555 453.609 88.9015 453.285C88.8535 452.961 88.7575 452.664 88.6135 452.394C88.4695 452.118 88.2655 451.899 88.0015 451.737C87.7435 451.569 87.4135 451.485 87.0115 451.485C86.5075 451.485 86.0845 451.611 85.7425 451.863C85.4065 452.115 85.1515 452.454 84.9775 452.88C84.8035 453.3 84.7165 453.762 84.7165 454.266V454.959C84.7165 455.517 84.8005 456.012 84.9685 456.444C85.1365 456.876 85.3855 457.218 85.7155 457.47C86.0515 457.716 86.4745 457.839 86.9845 457.839C87.4825 457.839 87.8935 457.722 88.2175 457.488C88.5475 457.254 88.7515 456.903 88.8295 456.435H90.5755C90.4855 456.999 90.2785 457.491 89.9545 457.911C89.6305 458.331 89.2135 458.658 88.7035 458.892C88.1995 459.12 87.6265 459.234 86.9845 459.234ZM96.3537 459.234C95.6097 459.234 94.9377 459.042 94.3377 458.658C93.7377 458.274 93.2607 457.74 92.9067 457.056C92.5587 456.372 92.3847 455.58 92.3847 454.68C92.3847 453.726 92.5587 452.91 92.9067 452.232C93.2547 451.548 93.7287 451.023 94.3287 450.657C94.9287 450.291 95.6037 450.108 96.3537 450.108C97.0257 450.108 97.6017 450.246 98.0817 450.522C98.5617 450.792 98.9487 451.158 99.2427 451.62C99.5367 452.076 99.7377 452.595 99.8457 453.177C99.9597 453.759 99.9807 454.359 99.9087 454.977H93.7527V453.987H98.7387L98.3247 454.257C98.3427 453.933 98.3247 453.609 98.2707 453.285C98.2227 452.961 98.1267 452.664 97.9827 452.394C97.8387 452.118 97.6347 451.899 97.3707 451.737C97.1127 451.569 96.7827 451.485 96.3807 451.485C95.8767 451.485 95.4537 451.611 95.1117 451.863C94.7757 452.115 94.5207 452.454 94.3467 452.88C94.1727 453.3 94.0857 453.762 94.0857 454.266V454.959C94.0857 455.517 94.1697 456.012 94.3377 456.444C94.5057 456.876 94.7547 457.218 95.0847 457.47C95.4207 457.716 95.8437 457.839 96.3537 457.839C96.8517 457.839 97.2627 457.722 97.5867 457.488C97.9167 457.254 98.1207 456.903 98.1987 456.435H99.9447C99.8547 456.999 99.6477 457.491 99.3237 457.911C98.9997 458.331 98.5827 458.658 98.0727 458.892C97.5687 459.12 96.9957 459.234 96.3537 459.234ZM112.439 459L112.223 457.011V453.402C112.223 452.694 112.076 452.181 111.782 451.863C111.488 451.539 111.023 451.377 110.387 451.377C110.027 451.377 109.706 451.431 109.424 451.539C109.148 451.641 108.929 451.797 108.767 452.007C108.611 452.217 108.533 452.481 108.533 452.799H106.643C106.643 452.163 106.799 451.647 107.111 451.251C107.423 450.855 107.858 450.567 108.416 450.387C108.98 450.201 109.637 450.108 110.387 450.108C111.089 450.108 111.707 450.225 112.241 450.459C112.775 450.687 113.189 451.047 113.483 451.539C113.783 452.031 113.933 452.667 113.933 453.447V459H112.439ZM109.541 459.234C108.815 459.234 108.212 459.108 107.732 458.856C107.252 458.598 106.892 458.262 106.652 457.848C106.418 457.434 106.301 456.993 106.301 456.525C106.301 455.955 106.445 455.487 106.733 455.121C107.027 454.749 107.432 454.473 107.948 454.293C108.464 454.113 109.058 454.023 109.73 454.023C110.192 454.023 110.642 454.065 111.08 454.149C111.518 454.233 111.95 454.344 112.376 454.482V455.517C112.028 455.391 111.641 455.292 111.215 455.22C110.795 455.142 110.402 455.103 110.036 455.103C109.49 455.103 109.034 455.211 108.668 455.427C108.302 455.643 108.119 456.009 108.119 456.525C108.119 456.903 108.263 457.23 108.551 457.506C108.839 457.776 109.295 457.911 109.919 457.911C110.375 457.911 110.777 457.809 111.125 457.605C111.473 457.395 111.743 457.134 111.935 456.822C112.127 456.51 112.223 456.198 112.223 455.886H112.637C112.637 456.486 112.514 457.041 112.268 457.551C112.028 458.055 111.677 458.463 111.215 458.775C110.753 459.081 110.195 459.234 109.541 459.234ZM117.19 459V446.697H118.9V459H117.19ZM122.411 459V446.697H124.121V459H122.411ZM134.807 459.234C134.315 459.234 133.871 459.141 133.475 458.955C133.079 458.769 132.764 458.49 132.53 458.118C132.302 457.74 132.188 457.266 132.188 456.696V447.984H133.889V456.642C133.889 457.458 134.27 457.866 135.032 457.866C135.266 457.866 135.494 457.842 135.716 457.794C135.938 457.74 136.19 457.662 136.472 457.56L136.715 458.775C136.397 458.907 136.082 459.015 135.77 459.099C135.464 459.189 135.143 459.234 134.807 459.234ZM130.865 451.503V450.342H136.454V451.503H130.865ZM145 459V453.924C145 453.174 144.82 452.607 144.46 452.223C144.106 451.833 143.626 451.638 143.02 451.638C142.54 451.638 142.12 451.77 141.76 452.034C141.406 452.292 141.13 452.673 140.932 453.177C140.74 453.675 140.644 454.284 140.644 455.004H140.032C140.032 453.942 140.167 453.048 140.437 452.322C140.713 451.596 141.106 451.047 141.616 450.675C142.126 450.297 142.738 450.108 143.452 450.108C144.148 450.108 144.736 450.264 145.216 450.576C145.702 450.888 146.071 451.332 146.323 451.908C146.575 452.478 146.701 453.15 146.701 453.924V459H145ZM138.934 459V446.697H140.644V459H138.934ZM153.061 459.234C152.317 459.234 151.645 459.042 151.045 458.658C150.445 458.274 149.968 457.74 149.614 457.056C149.266 456.372 149.092 455.58 149.092 454.68C149.092 453.726 149.266 452.91 149.614 452.232C149.962 451.548 150.436 451.023 151.036 450.657C151.636 450.291 152.311 450.108 153.061 450.108C153.733 450.108 154.309 450.246 154.789 450.522C155.269 450.792 155.656 451.158 155.95 451.62C156.244 452.076 156.445 452.595 156.553 453.177C156.667 453.759 156.688 454.359 156.616 454.977H150.46V453.987H155.446L155.032 454.257C155.05 453.933 155.032 453.609 154.978 453.285C154.93 452.961 154.834 452.664 154.69 452.394C154.546 452.118 154.342 451.899 154.078 451.737C153.82 451.569 153.49 451.485 153.088 451.485C152.584 451.485 152.161 451.611 151.819 451.863C151.483 452.115 151.228 452.454 151.054 452.88C150.88 453.3 150.793 453.762 150.793 454.266V454.959C150.793 455.517 150.877 456.012 151.045 456.444C151.213 456.876 151.462 457.218 151.792 457.47C152.128 457.716 152.551 457.839 153.061 457.839C153.559 457.839 153.97 457.722 154.294 457.488C154.624 457.254 154.828 456.903 154.906 456.435H156.652C156.562 456.999 156.355 457.491 156.031 457.911C155.707 458.331 155.29 458.658 154.78 458.892C154.276 459.12 153.703 459.234 153.061 459.234ZM162.243 450.342H164.025L166.086 457.29H165.897L167.886 450.783H169.371L171.351 457.308H171.171L173.232 450.342H174.942L172.098 459H170.424L168.462 452.88H168.723L166.788 459H165.114L162.243 450.342ZM182.435 459L182.219 457.011V453.402C182.219 452.694 182.072 452.181 181.778 451.863C181.484 451.539 181.019 451.377 180.383 451.377C180.023 451.377 179.702 451.431 179.42 451.539C179.144 451.641 178.925 451.797 178.763 452.007C178.607 452.217 178.529 452.481 178.529 452.799H176.639C176.639 452.163 176.795 451.647 177.107 451.251C177.419 450.855 177.854 450.567 178.412 450.387C178.976 450.201 179.633 450.108 180.383 450.108C181.085 450.108 181.703 450.225 182.237 450.459C182.771 450.687 183.185 451.047 183.479 451.539C183.779 452.031 183.929 452.667 183.929 453.447V459H182.435ZM179.537 459.234C178.811 459.234 178.208 459.108 177.728 458.856C177.248 458.598 176.888 458.262 176.648 457.848C176.414 457.434 176.297 456.993 176.297 456.525C176.297 455.955 176.441 455.487 176.729 455.121C177.023 454.749 177.428 454.473 177.944 454.293C178.46 454.113 179.054 454.023 179.726 454.023C180.188 454.023 180.638 454.065 181.076 454.149C181.514 454.233 181.946 454.344 182.372 454.482V455.517C182.024 455.391 181.637 455.292 181.211 455.22C180.791 455.142 180.398 455.103 180.032 455.103C179.486 455.103 179.03 455.211 178.664 455.427C178.298 455.643 178.115 456.009 178.115 456.525C178.115 456.903 178.259 457.23 178.547 457.506C178.835 457.776 179.291 457.911 179.915 457.911C180.371 457.911 180.773 457.809 181.121 457.605C181.469 457.395 181.739 457.134 181.931 456.822C182.123 456.51 182.219 456.198 182.219 455.886H182.633C182.633 456.486 182.51 457.041 182.264 457.551C182.024 458.055 181.673 458.463 181.211 458.775C180.749 459.081 180.191 459.234 179.537 459.234ZM185.809 450.342H187.726L190.336 457.506H189.985L192.082 450.342H193.828L190.543 460.665C190.243 461.601 189.856 462.3 189.382 462.762C188.914 463.23 188.326 463.464 187.618 463.464C187.222 463.464 186.841 463.413 186.475 463.311C186.115 463.209 185.746 463.059 185.368 462.861V461.322C185.692 461.55 186.004 461.715 186.304 461.817C186.604 461.919 186.916 461.97 187.24 461.97C187.564 461.97 187.84 461.871 188.068 461.673C188.302 461.481 188.497 461.223 188.653 460.899C188.815 460.581 188.953 460.233 189.067 459.855L189.328 459L185.809 450.342ZM199.02 459.234C198.18 459.234 197.472 459.117 196.896 458.883C196.32 458.643 195.879 458.313 195.573 457.893C195.273 457.467 195.117 456.969 195.105 456.399H196.716C196.74 456.897 196.938 457.266 197.31 457.506C197.688 457.746 198.198 457.866 198.84 457.866C199.182 457.866 199.491 457.812 199.767 457.704C200.049 457.596 200.271 457.449 200.433 457.263C200.601 457.077 200.685 456.867 200.685 456.633C200.685 456.339 200.577 456.108 200.361 455.94C200.145 455.766 199.797 455.613 199.317 455.481L197.544 454.878C196.836 454.638 196.293 454.32 195.915 453.924C195.537 453.522 195.348 453.042 195.348 452.484C195.348 451.77 195.666 451.197 196.302 450.765C196.938 450.327 197.781 450.108 198.831 450.108C199.917 450.108 200.754 450.339 201.342 450.801C201.936 451.257 202.245 451.83 202.269 452.52H200.622C200.58 452.178 200.409 451.917 200.109 451.737C199.815 451.551 199.389 451.458 198.831 451.458C198.309 451.458 197.898 451.572 197.598 451.8C197.304 452.028 197.157 452.286 197.157 452.574C197.157 453.09 197.601 453.474 198.489 453.726L200.352 454.383C201.06 454.611 201.606 454.905 201.99 455.265C202.374 455.625 202.566 456.081 202.566 456.633C202.566 457.077 202.419 457.497 202.125 457.893C201.831 458.289 201.417 458.613 200.883 458.865C200.355 459.111 199.734 459.234 199.02 459.234ZM208.344 450.342H210.261L212.871 457.506H212.52L214.617 450.342H216.363L213.078 460.665C212.778 461.601 212.391 462.3 211.917 462.762C211.449 463.23 210.861 463.464 210.153 463.464C209.757 463.464 209.376 463.413 209.01 463.311C208.65 463.209 208.281 463.059 207.903 462.861V461.322C208.227 461.55 208.539 461.715 208.839 461.817C209.139 461.919 209.451 461.97 209.775 461.97C210.099 461.97 210.375 461.871 210.603 461.673C210.837 461.481 211.032 461.223 211.188 460.899C211.35 460.581 211.488 460.233 211.602 459.855L211.863 459L208.344 450.342ZM221.645 459.234C220.859 459.234 220.154 459.063 219.53 458.721C218.912 458.379 218.423 457.869 218.063 457.191C217.703 456.513 217.523 455.676 217.523 454.68C217.523 453.666 217.703 452.823 218.063 452.151C218.423 451.473 218.912 450.963 219.53 450.621C220.154 450.279 220.859 450.108 221.645 450.108C222.419 450.108 223.115 450.279 223.733 450.621C224.351 450.963 224.837 451.473 225.191 452.151C225.551 452.823 225.731 453.666 225.731 454.68C225.731 455.676 225.551 456.513 225.191 457.191C224.837 457.869 224.351 458.379 223.733 458.721C223.115 459.063 222.419 459.234 221.645 459.234ZM221.591 457.74C222.089 457.74 222.518 457.62 222.878 457.38C223.244 457.14 223.523 456.792 223.715 456.336C223.913 455.874 224.012 455.322 224.012 454.68C224.012 453.696 223.811 452.934 223.409 452.394C223.013 451.854 222.44 451.584 221.69 451.584C221.186 451.584 220.751 451.707 220.385 451.953C220.025 452.193 219.746 452.544 219.548 453.006C219.356 453.462 219.26 454.02 219.26 454.68C219.26 455.646 219.461 456.399 219.863 456.939C220.265 457.473 220.841 457.74 221.591 457.74ZM234.204 450.315H235.923V459H234.204V450.315ZM228.156 450.315H229.866V455.679C229.866 456.333 230.025 456.828 230.343 457.164C230.667 457.5 231.12 457.668 231.702 457.668C232.194 457.668 232.626 457.539 232.998 457.281C233.376 457.023 233.67 456.657 233.88 456.183C234.096 455.709 234.204 455.148 234.204 454.5H234.753C234.753 455.514 234.615 456.366 234.339 457.056C234.063 457.746 233.676 458.271 233.178 458.631C232.68 458.985 232.098 459.162 231.432 459.162C230.796 459.162 230.229 459.045 229.731 458.811C229.239 458.577 228.852 458.217 228.57 457.731C228.294 457.239 228.156 456.606 228.156 455.832V450.315ZM239.428 459V450.315H241.138V459H239.428ZM240.67 455.13C240.67 454.02 240.784 453.099 241.012 452.367C241.246 451.629 241.57 451.08 241.984 450.72C242.404 450.36 242.896 450.18 243.46 450.18C243.628 450.18 243.784 450.192 243.928 450.216C244.078 450.24 244.225 450.273 244.369 450.315L244.306 452.016C244.144 451.974 243.967 451.938 243.775 451.908C243.589 451.872 243.418 451.854 243.262 451.854C242.77 451.854 242.368 451.986 242.056 452.25C241.744 452.508 241.513 452.883 241.363 453.375C241.213 453.861 241.138 454.446 241.138 455.13H240.67ZM253.705 459.234C252.997 459.234 252.337 459.045 251.725 458.667C251.113 458.289 250.621 457.758 250.249 457.074C249.877 456.39 249.691 455.586 249.691 454.662C249.691 453.69 249.877 452.868 250.249 452.196C250.621 451.518 251.113 451.002 251.725 450.648C252.337 450.288 252.997 450.108 253.705 450.108C254.227 450.108 254.692 450.192 255.1 450.36C255.508 450.522 255.859 450.744 256.153 451.026C256.447 451.302 256.684 451.614 256.864 451.962C257.05 452.31 257.179 452.67 257.251 453.042L255.514 453.132C255.388 452.682 255.166 452.322 254.848 452.052C254.536 451.776 254.149 451.638 253.687 451.638C253.297 451.638 252.928 451.749 252.58 451.971C252.238 452.187 251.959 452.52 251.743 452.97C251.533 453.414 251.428 453.978 251.428 454.662C251.428 455.298 251.527 455.841 251.725 456.291C251.923 456.741 252.193 457.086 252.535 457.326C252.877 457.566 253.261 457.686 253.687 457.686C254.299 457.686 254.755 457.539 255.055 457.245C255.361 456.945 255.514 456.534 255.514 456.012H257.251C257.251 456.618 257.11 457.164 256.828 457.65C256.546 458.136 256.138 458.523 255.604 458.811C255.076 459.093 254.443 459.234 253.705 459.234ZM265.774 450.315H267.493V459H265.774V450.315ZM259.726 450.315H261.436V455.679C261.436 456.333 261.595 456.828 261.913 457.164C262.237 457.5 262.69 457.668 263.272 457.668C263.764 457.668 264.196 457.539 264.568 457.281C264.946 457.023 265.24 456.657 265.45 456.183C265.666 455.709 265.774 455.148 265.774 454.5H266.323C266.323 455.514 266.185 456.366 265.909 457.056C265.633 457.746 265.246 458.271 264.748 458.631C264.25 458.985 263.668 459.162 263.002 459.162C262.366 459.162 261.799 459.045 261.301 458.811C260.809 458.577 260.422 458.217 260.14 457.731C259.864 457.239 259.726 456.606 259.726 455.832V450.315ZM274.167 459.234C273.327 459.234 272.619 459.117 272.043 458.883C271.467 458.643 271.026 458.313 270.72 457.893C270.42 457.467 270.264 456.969 270.252 456.399H271.863C271.887 456.897 272.085 457.266 272.457 457.506C272.835 457.746 273.345 457.866 273.987 457.866C274.329 457.866 274.638 457.812 274.914 457.704C275.196 457.596 275.418 457.449 275.58 457.263C275.748 457.077 275.832 456.867 275.832 456.633C275.832 456.339 275.724 456.108 275.508 455.94C275.292 455.766 274.944 455.613 274.464 455.481L272.691 454.878C271.983 454.638 271.44 454.32 271.062 453.924C270.684 453.522 270.495 453.042 270.495 452.484C270.495 451.77 270.813 451.197 271.449 450.765C272.085 450.327 272.928 450.108 273.978 450.108C275.064 450.108 275.901 450.339 276.489 450.801C277.083 451.257 277.392 451.83 277.416 452.52H275.769C275.727 452.178 275.556 451.917 275.256 451.737C274.962 451.551 274.536 451.458 273.978 451.458C273.456 451.458 273.045 451.572 272.745 451.8C272.451 452.028 272.304 452.286 272.304 452.574C272.304 453.09 272.748 453.474 273.636 453.726L275.499 454.383C276.207 454.611 276.753 454.905 277.137 455.265C277.521 455.625 277.713 456.081 277.713 456.633C277.713 457.077 277.566 457.497 277.272 457.893C276.978 458.289 276.564 458.613 276.03 458.865C275.502 459.111 274.881 459.234 274.167 459.234ZM283.254 459.234C282.762 459.234 282.318 459.141 281.922 458.955C281.526 458.769 281.211 458.49 280.977 458.118C280.749 457.74 280.635 457.266 280.635 456.696V447.984H282.336V456.642C282.336 457.458 282.717 457.866 283.479 457.866C283.713 457.866 283.941 457.842 284.163 457.794C284.385 457.74 284.637 457.662 284.919 457.56L285.162 458.775C284.844 458.907 284.529 459.015 284.217 459.099C283.911 459.189 283.59 459.234 283.254 459.234ZM279.312 451.503V450.342H284.901V451.503H279.312ZM290.639 459.234C289.853 459.234 289.148 459.063 288.524 458.721C287.906 458.379 287.417 457.869 287.057 457.191C286.697 456.513 286.517 455.676 286.517 454.68C286.517 453.666 286.697 452.823 287.057 452.151C287.417 451.473 287.906 450.963 288.524 450.621C289.148 450.279 289.853 450.108 290.639 450.108C291.413 450.108 292.109 450.279 292.727 450.621C293.345 450.963 293.831 451.473 294.185 452.151C294.545 452.823 294.725 453.666 294.725 454.68C294.725 455.676 294.545 456.513 294.185 457.191C293.831 457.869 293.345 458.379 292.727 458.721C292.109 459.063 291.413 459.234 290.639 459.234ZM290.585 457.74C291.083 457.74 291.512 457.62 291.872 457.38C292.238 457.14 292.517 456.792 292.709 456.336C292.907 455.874 293.006 455.322 293.006 454.68C293.006 453.696 292.805 452.934 292.403 452.394C292.007 451.854 291.434 451.584 290.684 451.584C290.18 451.584 289.745 451.707 289.379 451.953C289.019 452.193 288.74 452.544 288.542 453.006C288.35 453.462 288.254 454.02 288.254 454.68C288.254 455.646 288.455 456.399 288.857 456.939C289.259 457.473 289.835 457.74 290.585 457.74ZM309.363 459V453.924C309.363 453.174 309.183 452.607 308.823 452.223C308.469 451.833 307.992 451.638 307.392 451.638C306.672 451.638 306.114 451.92 305.718 452.484C305.328 453.048 305.133 453.858 305.133 454.914H304.386C304.386 454.08 304.467 453.36 304.629 452.754C304.791 452.148 305.022 451.65 305.322 451.26C305.628 450.87 305.991 450.582 306.411 450.396C306.837 450.204 307.311 450.108 307.833 450.108C308.529 450.108 309.117 450.264 309.597 450.576C310.083 450.888 310.452 451.332 310.704 451.908C310.956 452.478 311.082 453.15 311.082 453.924V459H309.363ZM297.366 459V450.342H298.851L299.04 451.971C299.316 451.365 299.694 450.903 300.174 450.585C300.66 450.267 301.23 450.108 301.884 450.108C302.58 450.108 303.168 450.264 303.648 450.576C304.134 450.888 304.503 451.332 304.755 451.908C305.007 452.478 305.133 453.15 305.133 453.924V459H303.432V453.924C303.432 453.174 303.252 452.607 302.892 452.223C302.538 451.833 302.058 451.638 301.452 451.638C300.972 451.638 300.552 451.77 300.192 452.034C299.838 452.292 299.562 452.673 299.364 453.177C299.172 453.675 299.076 454.284 299.076 455.004V459H297.366ZM317.383 457.758C317.383 457.35 317.521 457.008 317.797 456.732C318.073 456.456 318.427 456.318 318.859 456.318C319.291 456.318 319.651 456.456 319.939 456.732C320.227 457.008 320.371 457.35 320.371 457.758C320.371 458.16 320.227 458.496 319.939 458.766C319.651 459.03 319.291 459.162 318.859 459.162C318.427 459.162 318.073 459.027 317.797 458.757C317.521 458.487 317.383 458.154 317.383 457.758ZM328.486 459V453.888C328.486 453.24 328.33 452.751 328.018 452.421C327.706 452.091 327.298 451.926 326.794 451.926C326.368 451.926 325.99 452.043 325.66 452.277C325.336 452.511 325.081 452.865 324.895 453.339C324.709 453.807 324.616 454.392 324.616 455.094H323.914C323.914 453.96 324.055 453.018 324.337 452.268C324.619 451.512 325.018 450.948 325.534 450.576C326.05 450.204 326.656 450.018 327.352 450.018C328.072 450.018 328.672 450.18 329.152 450.504C329.638 450.822 330.001 451.272 330.241 451.854C330.487 452.436 330.61 453.114 330.61 453.888V459H328.486ZM322.492 459V450.27H324.346L324.616 451.998V459H322.492ZM334.211 459V449.208C334.211 448.578 334.334 448.065 334.58 447.669C334.826 447.273 335.15 446.982 335.552 446.796C335.96 446.604 336.401 446.508 336.875 446.508C337.169 446.508 337.472 446.529 337.784 446.571C338.096 446.613 338.399 446.664 338.693 446.724L338.279 448.362C338.129 448.308 337.973 448.266 337.811 448.236C337.649 448.2 337.493 448.182 337.343 448.182C337.175 448.182 337.016 448.215 336.866 448.281C336.716 448.341 336.593 448.449 336.497 448.605C336.401 448.761 336.353 448.974 336.353 449.244V459H334.211ZM332.915 451.674V450.27H337.955V451.674H332.915ZM343.268 459.252C342.752 459.252 342.278 459.156 341.846 458.964C341.42 458.772 341.078 458.478 340.82 458.082C340.568 457.686 340.442 457.182 340.442 456.57V447.948H342.566V456.498C342.566 457.218 342.908 457.578 343.592 457.578C343.802 457.578 344.012 457.554 344.222 457.506C344.432 457.458 344.672 457.386 344.942 457.29L345.248 458.784C344.912 458.916 344.585 459.027 344.267 459.117C343.949 459.207 343.616 459.252 343.268 459.252ZM339.218 451.674V450.27H344.942V451.674H339.218ZM76.9196 480.234C76.3556 480.234 75.8426 480.084 75.3806 479.784C74.9246 479.478 74.5586 479.028 74.2826 478.434C74.0126 477.84 73.8776 477.111 73.8776 476.247H74.4626C74.4626 476.751 74.5706 477.186 74.7866 477.552C75.0086 477.918 75.2906 478.2 75.6326 478.398C75.9746 478.59 76.3316 478.686 76.7036 478.686C77.1476 478.686 77.5466 478.563 77.9006 478.317C78.2606 478.071 78.5456 477.72 78.7556 477.264C78.9716 476.802 79.0796 476.259 79.0796 475.635C79.0796 475.017 78.9746 474.486 78.7646 474.042C78.5546 473.592 78.2696 473.247 77.9096 473.007C77.5496 472.761 77.1416 472.638 76.6856 472.638C76.3016 472.638 75.9386 472.731 75.5966 472.917C75.2606 473.103 74.9876 473.379 74.7776 473.745C74.5676 474.105 74.4626 474.546 74.4626 475.068H73.8776C73.8776 474.222 74.0096 473.505 74.2736 472.917C74.5376 472.329 74.9036 471.882 75.3716 471.576C75.8456 471.264 76.4006 471.108 77.0366 471.108C77.7266 471.108 78.3566 471.294 78.9266 471.666C79.5026 472.032 79.9616 472.554 80.3036 473.232C80.6516 473.91 80.8256 474.711 80.8256 475.635C80.8256 476.565 80.6486 477.375 80.2946 478.065C79.9406 478.749 79.4666 479.283 78.8726 479.667C78.2846 480.045 77.6336 480.234 76.9196 480.234ZM72.7526 480V467.697H74.4626V477.921L73.9136 480H72.7526ZM83.5807 480V471.315H85.2907V480H83.5807ZM84.8227 476.13C84.8227 475.02 84.9367 474.099 85.1647 473.367C85.3987 472.629 85.7227 472.08 86.1367 471.72C86.5567 471.36 87.0487 471.18 87.6127 471.18C87.7807 471.18 87.9367 471.192 88.0807 471.216C88.2307 471.24 88.3777 471.273 88.5217 471.315L88.4587 473.016C88.2967 472.974 88.1197 472.938 87.9277 472.908C87.7417 472.872 87.5707 472.854 87.4147 472.854C86.9227 472.854 86.5207 472.986 86.2087 473.25C85.8967 473.508 85.6657 473.883 85.5157 474.375C85.3657 474.861 85.2907 475.446 85.2907 476.13H84.8227ZM91.3031 469.497C90.9611 469.497 90.6911 469.404 90.4931 469.218C90.3011 469.026 90.2051 468.768 90.2051 468.444C90.2051 468.132 90.3011 467.886 90.4931 467.706C90.6911 467.52 90.9611 467.427 91.3031 467.427C91.6391 467.427 91.9031 467.52 92.0951 467.706C92.2931 467.886 92.3921 468.132 92.3921 468.444C92.3921 468.768 92.2931 469.026 92.0951 469.218C91.9031 469.404 91.6391 469.497 91.3031 469.497ZM90.4481 480V471.315H92.1581V480H90.4481ZM101.969 480V474.924C101.969 474.174 101.789 473.607 101.429 473.223C101.075 472.833 100.595 472.638 99.9889 472.638C99.5089 472.638 99.0889 472.77 98.7289 473.034C98.3749 473.292 98.0989 473.673 97.9009 474.177C97.7089 474.675 97.6129 475.284 97.6129 476.004H97.0009C97.0009 474.942 97.1359 474.048 97.4059 473.322C97.6819 472.596 98.0749 472.047 98.5849 471.675C99.0949 471.297 99.7069 471.108 100.421 471.108C101.117 471.108 101.705 471.264 102.185 471.576C102.671 471.888 103.04 472.332 103.292 472.908C103.544 473.478 103.67 474.15 103.67 474.924V480H101.969ZM95.9029 480V471.342H97.3879L97.6129 473.214V480H95.9029ZM110.11 484.464C109.174 484.464 108.367 484.335 107.689 484.077C107.017 483.819 106.498 483.474 106.132 483.042C105.766 482.61 105.583 482.139 105.583 481.629C105.583 480.981 105.82 480.483 106.294 480.135C106.768 479.793 107.371 479.622 108.103 479.622L109.21 480.144C108.586 480.144 108.103 480.27 107.761 480.522C107.425 480.774 107.257 481.116 107.257 481.548C107.257 481.998 107.503 482.367 107.995 482.655C108.487 482.949 109.192 483.096 110.11 483.096C110.776 483.096 111.361 482.997 111.865 482.799C112.369 482.607 112.759 482.352 113.035 482.034C113.311 481.722 113.449 481.386 113.449 481.026C113.449 480.78 113.359 480.57 113.179 480.396C113.005 480.228 112.738 480.144 112.378 480.144H109.21C108.622 480.144 108.103 480.054 107.653 479.874C107.209 479.688 106.861 479.445 106.609 479.145C106.357 478.845 106.231 478.512 106.231 478.146C106.231 477.786 106.333 477.477 106.537 477.219C106.741 476.955 107.011 476.757 107.347 476.625C107.683 476.487 108.052 476.418 108.454 476.418L108.841 477.012C108.667 477.012 108.493 477.051 108.319 477.129C108.145 477.201 108.001 477.312 107.887 477.462C107.773 477.612 107.716 477.798 107.716 478.02C107.716 478.278 107.824 478.494 108.04 478.668C108.262 478.836 108.652 478.92 109.21 478.92H112.378C113.242 478.92 113.92 479.091 114.412 479.433C114.904 479.775 115.15 480.273 115.15 480.927C115.15 481.521 114.946 482.088 114.538 482.628C114.13 483.168 113.548 483.609 112.792 483.951C112.042 484.293 111.148 484.464 110.11 484.464ZM110.299 477.399C109.627 477.399 109.015 477.27 108.463 477.012C107.917 476.748 107.482 476.382 107.158 475.914C106.834 475.44 106.672 474.888 106.672 474.258C106.672 473.622 106.834 473.07 107.158 472.602C107.482 472.128 107.917 471.762 108.463 471.504C109.015 471.24 109.627 471.108 110.299 471.108C110.953 471.108 111.55 471.24 112.09 471.504C112.636 471.762 113.071 472.128 113.395 472.602C113.725 473.07 113.89 473.622 113.89 474.258C113.89 474.888 113.725 475.44 113.395 475.914C113.071 476.382 112.636 476.748 112.09 477.012C111.55 477.27 110.953 477.399 110.299 477.399ZM110.299 476.193C110.917 476.193 111.388 476.01 111.712 475.644C112.042 475.272 112.207 474.81 112.207 474.258C112.207 473.682 112.042 473.217 111.712 472.863C111.388 472.509 110.917 472.332 110.299 472.332C109.693 472.332 109.219 472.509 108.877 472.863C108.541 473.217 108.373 473.682 108.373 474.258C108.373 474.81 108.541 475.272 108.877 475.644C109.219 476.01 109.693 476.193 110.299 476.193ZM113.242 472.494L112.441 472.107C112.441 471.591 112.549 471.141 112.765 470.757C112.981 470.373 113.281 470.073 113.665 469.857C114.049 469.641 114.49 469.533 114.988 469.533L114.88 471.198C114.346 471.198 113.938 471.303 113.656 471.513C113.38 471.723 113.242 472.05 113.242 472.494ZM120.393 480.234C119.553 480.234 118.845 480.117 118.269 479.883C117.693 479.643 117.252 479.313 116.946 478.893C116.646 478.467 116.49 477.969 116.478 477.399H118.089C118.113 477.897 118.311 478.266 118.683 478.506C119.061 478.746 119.571 478.866 120.213 478.866C120.555 478.866 120.864 478.812 121.14 478.704C121.422 478.596 121.644 478.449 121.806 478.263C121.974 478.077 122.058 477.867 122.058 477.633C122.058 477.339 121.95 477.108 121.734 476.94C121.518 476.766 121.17 476.613 120.69 476.481L118.917 475.878C118.209 475.638 117.666 475.32 117.288 474.924C116.91 474.522 116.721 474.042 116.721 473.484C116.721 472.77 117.039 472.197 117.675 471.765C118.311 471.327 119.154 471.108 120.204 471.108C121.29 471.108 122.127 471.339 122.715 471.801C123.309 472.257 123.618 472.83 123.642 473.52H121.995C121.953 473.178 121.782 472.917 121.482 472.737C121.188 472.551 120.762 472.458 120.204 472.458C119.682 472.458 119.271 472.572 118.971 472.8C118.677 473.028 118.53 473.286 118.53 473.574C118.53 474.09 118.974 474.474 119.862 474.726L121.725 475.383C122.433 475.611 122.979 475.905 123.363 476.265C123.747 476.625 123.939 477.081 123.939 477.633C123.939 478.077 123.792 478.497 123.498 478.893C123.204 479.289 122.79 479.613 122.256 479.865C121.728 480.111 121.107 480.234 120.393 480.234ZM136.926 471.315H138.645V480H136.926V471.315ZM130.878 471.315H132.588V476.679C132.588 477.333 132.747 477.828 133.065 478.164C133.389 478.5 133.842 478.668 134.424 478.668C134.916 478.668 135.348 478.539 135.72 478.281C136.098 478.023 136.392 477.657 136.602 477.183C136.818 476.709 136.926 476.148 136.926 475.5H137.475C137.475 476.514 137.337 477.366 137.061 478.056C136.785 478.746 136.398 479.271 135.9 479.631C135.402 479.985 134.82 480.162 134.154 480.162C133.518 480.162 132.951 480.045 132.453 479.811C131.961 479.577 131.574 479.217 131.292 478.731C131.016 478.239 130.878 477.606 130.878 476.832V471.315ZM144.932 480.234C144.44 480.234 143.996 480.141 143.6 479.955C143.204 479.769 142.889 479.49 142.655 479.118C142.427 478.74 142.313 478.266 142.313 477.696V468.984H144.014V477.642C144.014 478.458 144.395 478.866 145.157 478.866C145.391 478.866 145.619 478.842 145.841 478.794C146.063 478.74 146.315 478.662 146.597 478.56L146.84 479.775C146.522 479.907 146.207 480.015 145.895 480.099C145.589 480.189 145.268 480.234 144.932 480.234ZM140.99 472.503V471.342H146.579V472.503H140.99ZM150.049 469.497C149.707 469.497 149.437 469.404 149.239 469.218C149.047 469.026 148.951 468.768 148.951 468.444C148.951 468.132 149.047 467.886 149.239 467.706C149.437 467.52 149.707 467.427 150.049 467.427C150.385 467.427 150.649 467.52 150.841 467.706C151.039 467.886 151.138 468.132 151.138 468.444C151.138 468.768 151.039 469.026 150.841 469.218C150.649 469.404 150.385 469.497 150.049 469.497ZM149.194 480V471.315H150.904V480H149.194ZM154.649 480V467.697H156.359V480H154.649ZM160.86 469.497C160.518 469.497 160.248 469.404 160.05 469.218C159.858 469.026 159.762 468.768 159.762 468.444C159.762 468.132 159.858 467.886 160.05 467.706C160.248 467.52 160.518 467.427 160.86 467.427C161.196 467.427 161.46 467.52 161.652 467.706C161.85 467.886 161.949 468.132 161.949 468.444C161.949 468.768 161.85 469.026 161.652 469.218C161.46 469.404 161.196 469.497 160.86 469.497ZM160.005 480V471.315H161.715V480H160.005ZM168.241 480.234C167.749 480.234 167.305 480.141 166.909 479.955C166.513 479.769 166.198 479.49 165.964 479.118C165.736 478.74 165.622 478.266 165.622 477.696V468.984H167.323V477.642C167.323 478.458 167.704 478.866 168.466 478.866C168.7 478.866 168.928 478.842 169.15 478.794C169.372 478.74 169.624 478.662 169.906 478.56L170.149 479.775C169.831 479.907 169.516 480.015 169.204 480.099C168.898 480.189 168.577 480.234 168.241 480.234ZM164.299 472.503V471.342H169.888V472.503H164.299ZM170.991 471.342H172.908L175.518 478.506H175.167L177.264 471.342H179.01L175.725 481.665C175.425 482.601 175.038 483.3 174.564 483.762C174.096 484.23 173.508 484.464 172.8 484.464C172.404 484.464 172.023 484.413 171.657 484.311C171.297 484.209 170.928 484.059 170.55 483.861V482.322C170.874 482.55 171.186 482.715 171.486 482.817C171.786 482.919 172.098 482.97 172.422 482.97C172.746 482.97 173.022 482.871 173.25 482.673C173.484 482.481 173.679 482.223 173.835 481.899C173.997 481.581 174.135 481.233 174.249 480.855L174.51 480L170.991 471.342ZM190.855 480L190.639 478.011V474.402C190.639 473.694 190.492 473.181 190.198 472.863C189.904 472.539 189.439 472.377 188.803 472.377C188.443 472.377 188.122 472.431 187.84 472.539C187.564 472.641 187.345 472.797 187.183 473.007C187.027 473.217 186.949 473.481 186.949 473.799H185.059C185.059 473.163 185.215 472.647 185.527 472.251C185.839 471.855 186.274 471.567 186.832 471.387C187.396 471.201 188.053 471.108 188.803 471.108C189.505 471.108 190.123 471.225 190.657 471.459C191.191 471.687 191.605 472.047 191.899 472.539C192.199 473.031 192.349 473.667 192.349 474.447V480H190.855ZM187.957 480.234C187.231 480.234 186.628 480.108 186.148 479.856C185.668 479.598 185.308 479.262 185.068 478.848C184.834 478.434 184.717 477.993 184.717 477.525C184.717 476.955 184.861 476.487 185.149 476.121C185.443 475.749 185.848 475.473 186.364 475.293C186.88 475.113 187.474 475.023 188.146 475.023C188.608 475.023 189.058 475.065 189.496 475.149C189.934 475.233 190.366 475.344 190.792 475.482V476.517C190.444 476.391 190.057 476.292 189.631 476.22C189.211 476.142 188.818 476.103 188.452 476.103C187.906 476.103 187.45 476.211 187.084 476.427C186.718 476.643 186.535 477.009 186.535 477.525C186.535 477.903 186.679 478.23 186.967 478.506C187.255 478.776 187.711 478.911 188.335 478.911C188.791 478.911 189.193 478.809 189.541 478.605C189.889 478.395 190.159 478.134 190.351 477.822C190.543 477.51 190.639 477.198 190.639 476.886H191.053C191.053 477.486 190.93 478.041 190.684 478.551C190.444 479.055 190.093 479.463 189.631 479.775C189.169 480.081 188.611 480.234 187.957 480.234ZM201.672 480V474.924C201.672 474.174 201.492 473.607 201.132 473.223C200.778 472.833 200.298 472.638 199.692 472.638C199.212 472.638 198.792 472.77 198.432 473.034C198.078 473.292 197.802 473.673 197.604 474.177C197.412 474.675 197.316 475.284 197.316 476.004H196.704C196.704 474.942 196.839 474.048 197.109 473.322C197.385 472.596 197.778 472.047 198.288 471.675C198.798 471.297 199.41 471.108 200.124 471.108C200.82 471.108 201.408 471.264 201.888 471.576C202.374 471.888 202.743 472.332 202.995 472.908C203.247 473.478 203.373 474.15 203.373 474.924V480H201.672ZM195.606 480V471.342H197.091L197.316 473.214V480H195.606ZM209.769 480.234C209.061 480.234 208.41 480.045 207.816 479.667C207.222 479.283 206.748 478.749 206.394 478.065C206.046 477.375 205.872 476.565 205.872 475.635C205.872 474.711 206.043 473.91 206.385 473.232C206.733 472.554 207.192 472.032 207.762 471.666C208.332 471.294 208.965 471.108 209.661 471.108C210.297 471.108 210.852 471.264 211.326 471.576C211.8 471.882 212.166 472.329 212.424 472.917C212.688 473.505 212.82 474.222 212.82 475.068H212.226C212.226 474.546 212.121 474.105 211.911 473.745C211.701 473.379 211.428 473.103 211.092 472.917C210.756 472.731 210.396 472.638 210.012 472.638C209.562 472.638 209.154 472.761 208.788 473.007C208.428 473.247 208.14 473.592 207.924 474.042C207.714 474.486 207.609 475.017 207.609 475.635C207.609 476.259 207.714 476.802 207.924 477.264C208.14 477.72 208.428 478.071 208.788 478.317C209.154 478.563 209.559 478.686 210.003 478.686C210.369 478.686 210.72 478.59 211.056 478.398C211.398 478.2 211.677 477.918 211.893 477.552C212.115 477.186 212.226 476.751 212.226 476.247H212.82C212.82 477.111 212.682 477.84 212.406 478.434C212.136 479.028 211.77 479.478 211.308 479.784C210.846 480.084 210.333 480.234 209.769 480.234ZM212.523 480L212.226 477.921V467.697H213.945V480H212.523ZM225.954 480.234C225.324 480.234 224.778 480.093 224.316 479.811C223.854 479.523 223.5 479.103 223.254 478.551C223.014 477.993 222.894 477.303 222.894 476.481H223.56C223.56 476.955 223.662 477.357 223.866 477.687C224.07 478.011 224.337 478.26 224.667 478.434C225.003 478.602 225.36 478.686 225.738 478.686C226.134 478.686 226.518 478.575 226.89 478.353C227.268 478.125 227.577 477.786 227.817 477.336C228.057 476.886 228.177 476.328 228.177 475.662C228.177 475.026 228.069 474.483 227.853 474.033C227.643 473.583 227.355 473.238 226.989 472.998C226.623 472.758 226.212 472.638 225.756 472.638C225.372 472.638 225.012 472.731 224.676 472.917C224.34 473.097 224.07 473.364 223.866 473.718C223.662 474.066 223.56 474.492 223.56 474.996H222.894C222.894 474.126 223.032 473.403 223.308 472.827C223.59 472.251 223.968 471.822 224.442 471.54C224.916 471.252 225.441 471.108 226.017 471.108C226.695 471.108 227.331 471.291 227.925 471.657C228.519 472.017 228.999 472.536 229.365 473.214C229.737 473.892 229.923 474.708 229.923 475.662C229.923 476.616 229.737 477.435 229.365 478.119C228.993 478.803 228.504 479.328 227.898 479.694C227.298 480.054 226.65 480.234 225.954 480.234ZM221.85 484.248V471.342H223.263L223.56 473.421V484.248H221.85ZM232.573 480V471.315H234.283V480H232.573ZM233.815 476.13C233.815 475.02 233.929 474.099 234.157 473.367C234.391 472.629 234.715 472.08 235.129 471.72C235.549 471.36 236.041 471.18 236.605 471.18C236.773 471.18 236.929 471.192 237.073 471.216C237.223 471.24 237.37 471.273 237.514 471.315L237.451 473.016C237.289 472.974 237.112 472.938 236.92 472.908C236.734 472.872 236.563 472.854 236.407 472.854C235.915 472.854 235.513 472.986 235.201 473.25C234.889 473.508 234.658 473.883 234.508 474.375C234.358 474.861 234.283 475.446 234.283 476.13H233.815ZM242.563 480.234C241.777 480.234 241.072 480.063 240.448 479.721C239.83 479.379 239.341 478.869 238.981 478.191C238.621 477.513 238.441 476.676 238.441 475.68C238.441 474.666 238.621 473.823 238.981 473.151C239.341 472.473 239.83 471.963 240.448 471.621C241.072 471.279 241.777 471.108 242.563 471.108C243.337 471.108 244.033 471.279 244.651 471.621C245.269 471.963 245.755 472.473 246.109 473.151C246.469 473.823 246.649 474.666 246.649 475.68C246.649 476.676 246.469 477.513 246.109 478.191C245.755 478.869 245.269 479.379 244.651 479.721C244.033 480.063 243.337 480.234 242.563 480.234ZM242.509 478.74C243.007 478.74 243.436 478.62 243.796 478.38C244.162 478.14 244.441 477.792 244.633 477.336C244.831 476.874 244.93 476.322 244.93 475.68C244.93 474.696 244.729 473.934 244.327 473.394C243.931 472.854 243.358 472.584 242.608 472.584C242.104 472.584 241.669 472.707 241.303 472.953C240.943 473.193 240.664 473.544 240.466 474.006C240.274 474.462 240.178 475.02 240.178 475.68C240.178 476.646 240.379 477.399 240.781 477.939C241.183 478.473 241.759 478.74 242.509 478.74ZM252.071 480.234C251.579 480.234 251.135 480.141 250.739 479.955C250.343 479.769 250.028 479.49 249.794 479.118C249.566 478.74 249.452 478.266 249.452 477.696V468.984H251.153V477.642C251.153 478.458 251.534 478.866 252.296 478.866C252.53 478.866 252.758 478.842 252.98 478.794C253.202 478.74 253.454 478.662 253.736 478.56L253.979 479.775C253.661 479.907 253.346 480.015 253.034 480.099C252.728 480.189 252.407 480.234 252.071 480.234ZM248.129 472.503V471.342H253.718V472.503H248.129ZM259.303 480.234C258.559 480.234 257.887 480.042 257.287 479.658C256.687 479.274 256.21 478.74 255.856 478.056C255.508 477.372 255.334 476.58 255.334 475.68C255.334 474.726 255.508 473.91 255.856 473.232C256.204 472.548 256.678 472.023 257.278 471.657C257.878 471.291 258.553 471.108 259.303 471.108C259.975 471.108 260.551 471.246 261.031 471.522C261.511 471.792 261.898 472.158 262.192 472.62C262.486 473.076 262.687 473.595 262.795 474.177C262.909 474.759 262.93 475.359 262.858 475.977H256.702V474.987H261.688L261.274 475.257C261.292 474.933 261.274 474.609 261.22 474.285C261.172 473.961 261.076 473.664 260.932 473.394C260.788 473.118 260.584 472.899 260.32 472.737C260.062 472.569 259.732 472.485 259.33 472.485C258.826 472.485 258.403 472.611 258.061 472.863C257.725 473.115 257.47 473.454 257.296 473.88C257.122 474.3 257.035 474.762 257.035 475.266V475.959C257.035 476.517 257.119 477.012 257.287 477.444C257.455 477.876 257.704 478.218 258.034 478.47C258.37 478.716 258.793 478.839 259.303 478.839C259.801 478.839 260.212 478.722 260.536 478.488C260.866 478.254 261.07 477.903 261.148 477.435H262.894C262.804 477.999 262.597 478.491 262.273 478.911C261.949 479.331 261.532 479.658 261.022 479.892C260.518 480.12 259.945 480.234 259.303 480.234ZM268.717 480.234C268.009 480.234 267.349 480.045 266.737 479.667C266.125 479.289 265.633 478.758 265.261 478.074C264.889 477.39 264.703 476.586 264.703 475.662C264.703 474.69 264.889 473.868 265.261 473.196C265.633 472.518 266.125 472.002 266.737 471.648C267.349 471.288 268.009 471.108 268.717 471.108C269.239 471.108 269.704 471.192 270.112 471.36C270.52 471.522 270.871 471.744 271.165 472.026C271.459 472.302 271.696 472.614 271.876 472.962C272.062 473.31 272.191 473.67 272.263 474.042L270.526 474.132C270.4 473.682 270.178 473.322 269.86 473.052C269.548 472.776 269.161 472.638 268.699 472.638C268.309 472.638 267.94 472.749 267.592 472.971C267.25 473.187 266.971 473.52 266.755 473.97C266.545 474.414 266.44 474.978 266.44 475.662C266.44 476.298 266.539 476.841 266.737 477.291C266.935 477.741 267.205 478.086 267.547 478.326C267.889 478.566 268.273 478.686 268.699 478.686C269.311 478.686 269.767 478.539 270.067 478.245C270.373 477.945 270.526 477.534 270.526 477.012H272.263C272.263 477.618 272.122 478.164 271.84 478.65C271.558 479.136 271.15 479.523 270.616 479.811C270.088 480.093 269.455 480.234 268.717 480.234ZM277.735 480.234C277.243 480.234 276.799 480.141 276.403 479.955C276.007 479.769 275.692 479.49 275.458 479.118C275.23 478.74 275.116 478.266 275.116 477.696V468.984H276.817V477.642C276.817 478.458 277.198 478.866 277.96 478.866C278.194 478.866 278.422 478.842 278.644 478.794C278.866 478.74 279.118 478.662 279.4 478.56L279.643 479.775C279.325 479.907 279.01 480.015 278.698 480.099C278.392 480.189 278.071 480.234 277.735 480.234ZM273.793 472.503V471.342H279.382V472.503H273.793ZM282.852 469.497C282.51 469.497 282.24 469.404 282.042 469.218C281.85 469.026 281.754 468.768 281.754 468.444C281.754 468.132 281.85 467.886 282.042 467.706C282.24 467.52 282.51 467.427 282.852 467.427C283.188 467.427 283.452 467.52 283.644 467.706C283.842 467.886 283.941 468.132 283.941 468.444C283.941 468.768 283.842 469.026 283.644 469.218C283.452 469.404 283.188 469.497 282.852 469.497ZM281.997 480V471.315H283.707V480H281.997ZM290.71 480.234C289.924 480.234 289.219 480.063 288.595 479.721C287.977 479.379 287.488 478.869 287.128 478.191C286.768 477.513 286.588 476.676 286.588 475.68C286.588 474.666 286.768 473.823 287.128 473.151C287.488 472.473 287.977 471.963 288.595 471.621C289.219 471.279 289.924 471.108 290.71 471.108C291.484 471.108 292.18 471.279 292.798 471.621C293.416 471.963 293.902 472.473 294.256 473.151C294.616 473.823 294.796 474.666 294.796 475.68C294.796 476.676 294.616 477.513 294.256 478.191C293.902 478.869 293.416 479.379 292.798 479.721C292.18 480.063 291.484 480.234 290.71 480.234ZM290.656 478.74C291.154 478.74 291.583 478.62 291.943 478.38C292.309 478.14 292.588 477.792 292.78 477.336C292.978 476.874 293.077 476.322 293.077 475.68C293.077 474.696 292.876 473.934 292.474 473.394C292.078 472.854 291.505 472.584 290.755 472.584C290.251 472.584 289.816 472.707 289.45 472.953C289.09 473.193 288.811 473.544 288.613 474.006C288.421 474.462 288.325 475.02 288.325 475.68C288.325 476.646 288.526 477.399 288.928 477.939C289.33 478.473 289.906 478.74 290.656 478.74ZM303.502 480V474.924C303.502 474.174 303.322 473.607 302.962 473.223C302.608 472.833 302.128 472.638 301.522 472.638C301.042 472.638 300.622 472.77 300.262 473.034C299.908 473.292 299.632 473.673 299.434 474.177C299.242 474.675 299.146 475.284 299.146 476.004H298.534C298.534 474.942 298.669 474.048 298.939 473.322C299.215 472.596 299.608 472.047 300.118 471.675C300.628 471.297 301.24 471.108 301.954 471.108C302.65 471.108 303.238 471.264 303.718 471.576C304.204 471.888 304.573 472.332 304.825 472.908C305.077 473.478 305.203 474.15 305.203 474.924V480H303.502ZM297.436 480V471.342H298.921L299.146 473.214V480H297.436ZM307.198 478.992C307.198 478.656 307.312 478.371 307.54 478.137C307.774 477.903 308.068 477.786 308.422 477.786C308.776 477.786 309.076 477.903 309.322 478.137C309.568 478.371 309.691 478.656 309.691 478.992C309.691 479.322 309.568 479.601 309.322 479.829C309.076 480.051 308.776 480.162 308.422 480.162C308.068 480.162 307.774 480.048 307.54 479.82C307.312 479.592 307.198 479.316 307.198 478.992ZM74.4626 510.534V520.506H79.4036V522H72.7526V510.534H74.4626ZM84.4708 522.234C83.7268 522.234 83.0548 522.042 82.4548 521.658C81.8548 521.274 81.3778 520.74 81.0238 520.056C80.6758 519.372 80.5018 518.58 80.5018 517.68C80.5018 516.726 80.6758 515.91 81.0238 515.232C81.3718 514.548 81.8458 514.023 82.4458 513.657C83.0458 513.291 83.7208 513.108 84.4708 513.108C85.1428 513.108 85.7188 513.246 86.1988 513.522C86.6788 513.792 87.0658 514.158 87.3598 514.62C87.6538 515.076 87.8548 515.595 87.9628 516.177C88.0768 516.759 88.0978 517.359 88.0258 517.977H81.8698V516.987H86.8558L86.4418 517.257C86.4598 516.933 86.4418 516.609 86.3878 516.285C86.3398 515.961 86.2438 515.664 86.0998 515.394C85.9558 515.118 85.7518 514.899 85.4878 514.737C85.2298 514.569 84.8998 514.485 84.4978 514.485C83.9938 514.485 83.5708 514.611 83.2288 514.863C82.8928 515.115 82.6378 515.454 82.4638 515.88C82.2898 516.3 82.2028 516.762 82.2028 517.266V517.959C82.2028 518.517 82.2868 519.012 82.4548 519.444C82.6228 519.876 82.8718 520.218 83.2018 520.47C83.5378 520.716 83.9608 520.839 84.4708 520.839C84.9688 520.839 85.3798 520.722 85.7038 520.488C86.0338 520.254 86.2378 519.903 86.3158 519.435H88.0618C87.9718 519.999 87.7648 520.491 87.4408 520.911C87.1168 521.331 86.6998 521.658 86.1898 521.892C85.6858 522.12 85.1128 522.234 84.4708 522.234ZM96.162 522L95.946 520.011V516.402C95.946 515.694 95.799 515.181 95.505 514.863C95.211 514.539 94.746 514.377 94.11 514.377C93.75 514.377 93.429 514.431 93.147 514.539C92.871 514.641 92.652 514.797 92.49 515.007C92.334 515.217 92.256 515.481 92.256 515.799H90.366C90.366 515.163 90.522 514.647 90.834 514.251C91.146 513.855 91.581 513.567 92.139 513.387C92.703 513.201 93.36 513.108 94.11 513.108C94.812 513.108 95.43 513.225 95.964 513.459C96.498 513.687 96.912 514.047 97.206 514.539C97.506 515.031 97.656 515.667 97.656 516.447V522H96.162ZM93.264 522.234C92.538 522.234 91.935 522.108 91.455 521.856C90.975 521.598 90.615 521.262 90.375 520.848C90.141 520.434 90.024 519.993 90.024 519.525C90.024 518.955 90.168 518.487 90.456 518.121C90.75 517.749 91.155 517.473 91.671 517.293C92.187 517.113 92.781 517.023 93.453 517.023C93.915 517.023 94.365 517.065 94.803 517.149C95.241 517.233 95.673 517.344 96.099 517.482V518.517C95.751 518.391 95.364 518.292 94.938 518.22C94.518 518.142 94.125 518.103 93.759 518.103C93.213 518.103 92.757 518.211 92.391 518.427C92.025 518.643 91.842 519.009 91.842 519.525C91.842 519.903 91.986 520.23 92.274 520.506C92.562 520.776 93.018 520.911 93.642 520.911C94.098 520.911 94.5 520.809 94.848 520.605C95.196 520.395 95.466 520.134 95.658 519.822C95.85 519.51 95.946 519.198 95.946 518.886H96.36C96.36 519.486 96.237 520.041 95.991 520.551C95.751 521.055 95.4 521.463 94.938 521.775C94.476 522.081 93.918 522.234 93.264 522.234ZM100.913 522V513.315H102.623V522H100.913ZM102.155 518.13C102.155 517.02 102.269 516.099 102.497 515.367C102.731 514.629 103.055 514.08 103.469 513.72C103.889 513.36 104.381 513.18 104.945 513.18C105.113 513.18 105.269 513.192 105.413 513.216C105.563 513.24 105.71 513.273 105.854 513.315L105.791 515.016C105.629 514.974 105.452 514.938 105.26 514.908C105.074 514.872 104.903 514.854 104.747 514.854C104.255 514.854 103.853 514.986 103.541 515.25C103.229 515.508 102.998 515.883 102.848 516.375C102.698 516.861 102.623 517.446 102.623 518.13H102.155ZM113.711 522V516.924C113.711 516.174 113.531 515.607 113.171 515.223C112.817 514.833 112.337 514.638 111.731 514.638C111.251 514.638 110.831 514.77 110.471 515.034C110.117 515.292 109.841 515.673 109.643 516.177C109.451 516.675 109.355 517.284 109.355 518.004H108.743C108.743 516.942 108.878 516.048 109.148 515.322C109.424 514.596 109.817 514.047 110.327 513.675C110.837 513.297 111.449 513.108 112.163 513.108C112.859 513.108 113.447 513.264 113.927 513.576C114.413 513.888 114.782 514.332 115.034 514.908C115.286 515.478 115.412 516.15 115.412 516.924V522H113.711ZM107.645 522V513.342H109.13L109.355 515.214V522H107.645ZM135.058 522V516.924C135.058 516.174 134.878 515.607 134.518 515.223C134.164 514.833 133.687 514.638 133.087 514.638C132.367 514.638 131.809 514.92 131.413 515.484C131.023 516.048 130.828 516.858 130.828 517.914H130.081C130.081 517.08 130.162 516.36 130.324 515.754C130.486 515.148 130.717 514.65 131.017 514.26C131.323 513.87 131.686 513.582 132.106 513.396C132.532 513.204 133.006 513.108 133.528 513.108C134.224 513.108 134.812 513.264 135.292 513.576C135.778 513.888 136.147 514.332 136.399 514.908C136.651 515.478 136.777 516.15 136.777 516.924V522H135.058ZM123.061 522V513.342H124.546L124.735 514.971C125.011 514.365 125.389 513.903 125.869 513.585C126.355 513.267 126.925 513.108 127.579 513.108C128.275 513.108 128.863 513.264 129.343 513.576C129.829 513.888 130.198 514.332 130.45 514.908C130.702 515.478 130.828 516.15 130.828 516.924V522H129.127V516.924C129.127 516.174 128.947 515.607 128.587 515.223C128.233 514.833 127.753 514.638 127.147 514.638C126.667 514.638 126.247 514.77 125.887 515.034C125.533 515.292 125.257 515.673 125.059 516.177C124.867 516.675 124.771 517.284 124.771 518.004V522H123.061ZM143.264 522.234C142.478 522.234 141.773 522.063 141.149 521.721C140.531 521.379 140.042 520.869 139.682 520.191C139.322 519.513 139.142 518.676 139.142 517.68C139.142 516.666 139.322 515.823 139.682 515.151C140.042 514.473 140.531 513.963 141.149 513.621C141.773 513.279 142.478 513.108 143.264 513.108C144.038 513.108 144.734 513.279 145.352 513.621C145.97 513.963 146.456 514.473 146.81 515.151C147.17 515.823 147.35 516.666 147.35 517.68C147.35 518.676 147.17 519.513 146.81 520.191C146.456 520.869 145.97 521.379 145.352 521.721C144.734 522.063 144.038 522.234 143.264 522.234ZM143.21 520.74C143.708 520.74 144.137 520.62 144.497 520.38C144.863 520.14 145.142 519.792 145.334 519.336C145.532 518.874 145.631 518.322 145.631 517.68C145.631 516.696 145.43 515.934 145.028 515.394C144.632 514.854 144.059 514.584 143.309 514.584C142.805 514.584 142.37 514.707 142.004 514.953C141.644 515.193 141.365 515.544 141.167 516.006C140.975 516.462 140.879 517.02 140.879 517.68C140.879 518.646 141.08 519.399 141.482 519.939C141.884 520.473 142.46 520.74 143.21 520.74ZM149.991 522V513.315H151.701V522H149.991ZM151.233 518.13C151.233 517.02 151.347 516.099 151.575 515.367C151.809 514.629 152.133 514.08 152.547 513.72C152.967 513.36 153.459 513.18 154.023 513.18C154.191 513.18 154.347 513.192 154.491 513.216C154.641 513.24 154.788 513.273 154.932 513.315L154.869 515.016C154.707 514.974 154.53 514.938 154.338 514.908C154.152 514.872 153.981 514.854 153.825 514.854C153.333 514.854 152.931 514.986 152.619 515.25C152.307 515.508 152.076 515.883 151.926 516.375C151.776 516.861 151.701 517.446 151.701 518.13H151.233ZM159.828 522.234C159.084 522.234 158.412 522.042 157.812 521.658C157.212 521.274 156.735 520.74 156.381 520.056C156.033 519.372 155.859 518.58 155.859 517.68C155.859 516.726 156.033 515.91 156.381 515.232C156.729 514.548 157.203 514.023 157.803 513.657C158.403 513.291 159.078 513.108 159.828 513.108C160.5 513.108 161.076 513.246 161.556 513.522C162.036 513.792 162.423 514.158 162.717 514.62C163.011 515.076 163.212 515.595 163.32 516.177C163.434 516.759 163.455 517.359 163.383 517.977H157.227V516.987H162.213L161.799 517.257C161.817 516.933 161.799 516.609 161.745 516.285C161.697 515.961 161.601 515.664 161.457 515.394C161.313 515.118 161.109 514.899 160.845 514.737C160.587 514.569 160.257 514.485 159.855 514.485C159.351 514.485 158.928 514.611 158.586 514.863C158.25 515.115 157.995 515.454 157.821 515.88C157.647 516.3 157.56 516.762 157.56 517.266V517.959C157.56 518.517 157.644 519.012 157.812 519.444C157.98 519.876 158.229 520.218 158.559 520.47C158.895 520.716 159.318 520.839 159.828 520.839C160.326 520.839 160.737 520.722 161.061 520.488C161.391 520.254 161.595 519.903 161.673 519.435H163.419C163.329 519.999 163.122 520.491 162.798 520.911C162.474 521.331 162.057 521.658 161.547 521.892C161.043 522.12 160.47 522.234 159.828 522.234ZM170.685 521.37L169.56 520.047L175.257 516.024V516.735L169.56 512.676L170.685 511.371L176.499 515.619V517.14L170.685 521.37Z"
    fill="black" />
  <path
    d="M46.8166 473.175L46.5009 472.922L46.1875 473.178L40.5114 477.812L41.7761 468.403C43.2751 469.096 44.9134 469.447 46.571 469.424C48.2207 469.406 49.847 469.053 51.3515 468.388L52.6204 477.828L46.8166 473.175Z"
    stroke="black" />
  <path
    d="M54.8217 451.946C55.9209 453.591 56.5076 455.525 56.5076 457.504C56.5076 460.157 55.4537 462.701 53.5776 464.578C51.7015 466.454 49.157 467.508 46.5038 467.508C44.5253 467.508 42.5911 466.921 40.946 465.822C39.3009 464.722 38.0187 463.16 37.2615 461.332C36.5043 459.504 36.3062 457.493 36.6922 455.552C37.0782 453.612 38.031 451.829 39.4301 450.43C40.8291 449.031 42.6116 448.078 44.5522 447.692C46.4927 447.306 48.5042 447.504 50.3321 448.261C52.1601 449.019 53.7225 450.301 54.8217 451.946Z"
    stroke="black" />
  <path d="M93.5 85.347L215 15.5766L336.5 85.347V225.653L215 295.423L93.5 225.653V85.347Z" stroke="black" />
  <g clip-path="url(#clip0)">
    <path opacity="0.5" d="M228.662 22.5049L101.82 100.623V227.372L228.662 149.254V22.5049Z" fill="white" />
    <path opacity="0.75" d="M275.561 52.7477L148.719 130.866V257.615L275.561 179.497V52.7477Z" fill="white" />
    <path d="M322.468 82.9906L195.626 161.101V287.85L322.468 209.74V82.9906Z" fill="white" />
    <path d="M214.672 121.616V1.3476" stroke="black" stroke-miterlimit="10" />
    <path d="M347.97 232.057V198.521L214.672 121.616L81.3739 198.521V232.057L214.672 308.963L347.97 232.057Z"
      stroke="black" stroke-miterlimit="10" />
    <path opacity="0.5"
      d="M228.662 27.8758C228.662 25.5284 226.088 24.0904 224.089 25.3214L103.247 99.7442C102.36 100.29 101.82 101.257 101.82 102.299V222.001C101.82 224.349 104.395 225.787 106.393 224.556L227.235 150.133C228.122 149.587 228.662 148.62 228.662 147.578V27.8758Z"
      fill="url(#paint0_radial)" />
    <path opacity="0.75"
      d="M275.561 58.1186C275.561 55.7712 272.987 54.3332 270.988 55.5642L150.146 129.987C149.259 130.533 148.719 131.5 148.719 132.541V252.244C148.719 254.591 151.294 256.029 153.293 254.798L274.134 180.376C275.021 179.829 275.561 178.863 275.561 177.821V58.1186Z"
      fill="url(#paint1_radial)" />
    <path
      d="M322.468 88.3613C322.468 86.0139 319.894 84.5759 317.895 85.8068L197.053 160.222C196.166 160.769 195.626 161.736 195.626 162.777V282.48C195.626 284.827 198.2 286.265 200.199 285.034L321.041 210.618C321.928 210.072 322.468 209.105 322.468 208.064V88.3613Z"
      fill="url(#paint2_radial)" />
    <path d="M347.977 198.521V111.789" stroke="black" stroke-miterlimit="10" />
    <path d="M81.3739 198.521V111.789" stroke="black" stroke-miterlimit="10" />
    <path d="M214.672 188.695V308.963" stroke="black" stroke-miterlimit="10" />
    <path d="M347.97 111.789V78.2532L214.672 1.3476L81.3739 78.2532V111.789L214.672 188.695L347.97 111.789Z"
      stroke="black" stroke-miterlimit="10" />
  </g>
  <path d="M270.986 217.247L284.802 229.028L288.498 232.031L291.761 228.592L330.724 187.962" stroke="#50E6D9"
    stroke-opacity="0.7" stroke-width="13" stroke-miterlimit="10" stroke-linecap="square" />
  <path d="M287.634 217.269L301.69 229.022L305.447 232.031L308.75 228.572L348.352 187.962" stroke="#28B3EC"
    stroke-opacity="0.9" stroke-width="13" stroke-miterlimit="10" stroke-linecap="square" />
  <path d="M305.262 217.247L319.078 229.028L322.774 232.031L326.037 228.592L365 187.962" stroke="#0067CE"
    stroke-width="13" stroke-miterlimit="10" stroke-linecap="square" />
  <g opacity="0.2">
    <path d="M215.5 259.417L232.584 249.577L249.668 259.417V279.205L232.584 289.045L215.5 279.205V259.417Z"
      fill="#DEFFFA" stroke="black" />
  </g>
  <g opacity="0.3">
    <path d="M229.427 259.417L246.512 249.577L263.596 259.417V279.205L246.512 289.045L229.427 279.205V259.417Z"
      fill="#DEFFFA" stroke="black" />
  </g>
  <g opacity="0.4">
    <path d="M243.355 259.417L260.439 249.577L277.523 259.417V279.205L260.439 289.045L243.355 279.205V259.417Z"
      fill="#DEFFFA" stroke="black" />
  </g>
  <g opacity="0.5">
    <path d="M257.282 259.417L274.366 249.577L291.451 259.417V279.205L274.366 289.045L257.282 279.205V259.417Z"
      fill="#DEFFFA" stroke="black" />
  </g>
  <path d="M271.21 259.417L288.294 249.577L305.378 259.417V279.205L288.294 289.045L271.21 279.205V259.417Z"
    fill="#DEFFFA" stroke="black" />
  <path d="M285.137 259.417L302.221 249.577L319.306 259.417V279.205L302.221 289.045L285.137 279.205V259.417Z"
    fill="#DEFFFA" stroke="black" />
  <mask id="path-37-outside-1" maskUnits="userSpaceOnUse" x="329.14" y="250.063" width="40" height="40" fill="black">
    <rect fill="white" x="329.14" y="250.063" width="40" height="40" />
    <path fill-rule="evenodd" clip-rule="evenodd"
      d="M341.025 267.803C341.025 268.28 341.068 268.757 341.155 269.234C341.199 269.624 341.285 270.014 341.415 270.361L335.387 276.346C334.954 276.78 334.607 277.3 334.39 277.821C334.173 278.385 334.043 278.992 334.043 279.599C334.043 280.206 334.173 280.813 334.39 281.377C334.607 281.941 334.954 282.418 335.387 282.851L335.431 282.895C335.864 283.328 336.385 283.632 336.905 283.849C337.469 284.066 338.076 284.196 338.683 284.196C339.29 284.196 339.897 284.066 340.461 283.849C341.025 283.632 341.502 283.285 341.936 282.851L350.219 274.568C350.653 274.134 351 273.614 351.217 273.094V273.05C351.433 272.486 351.564 271.923 351.564 271.316C351.564 270.708 351.433 270.101 351.217 269.537C351 268.974 350.653 268.497 350.219 268.063C349.785 267.629 349.265 267.282 348.745 267.065C348.181 266.849 347.574 266.718 347.01 266.718C347.053 266.502 347.14 266.328 347.227 266.111C347.4 265.764 347.617 265.417 347.921 265.157L347.964 265.114L349.829 263.249C350.393 263.422 350.913 263.683 351.433 263.986C351.997 264.333 352.561 264.767 353.038 265.244C353.862 266.068 354.469 266.979 354.903 268.02C354.99 268.236 355.076 268.453 355.163 268.713V268.757C355.293 269.19 355.38 269.581 355.467 270.014C355.51 270.448 355.553 270.882 355.553 271.316C355.553 272.443 355.337 273.527 354.903 274.611C354.469 275.609 353.862 276.563 353.038 277.387L344.798 285.627L344.755 285.67C343.931 286.494 343.02 287.102 342.023 287.492C340.982 287.926 339.854 288.142 338.727 288.142C337.599 288.142 336.471 287.926 335.431 287.492C334.433 287.102 333.479 286.451 332.655 285.627C331.831 284.803 331.224 283.892 330.79 282.851C330.356 281.811 330.14 280.683 330.14 279.555C330.14 278.428 330.356 277.3 330.79 276.259C331.224 275.262 331.831 274.308 332.655 273.484L332.698 273.441L340.938 265.201C341.155 264.984 341.372 264.81 341.589 264.593C341.502 264.81 341.459 265.07 341.372 265.287C341.285 265.548 341.242 265.851 341.199 266.111V266.155V266.198V266.241V266.285V266.328V266.372C341.025 266.935 341.025 267.369 341.025 267.803ZM356.377 271.359C356.377 270.882 356.334 270.405 356.247 269.928C356.204 269.537 356.117 269.147 355.987 268.8L361.929 262.859C362.362 262.425 362.709 261.905 362.926 261.384C363.143 260.82 363.273 260.213 363.273 259.606C363.273 258.999 363.143 258.392 362.926 257.828C362.709 257.264 362.362 256.787 361.929 256.353L361.885 256.31C361.452 255.876 360.931 255.573 360.411 255.356C359.847 255.139 359.24 255.009 358.633 255.009C358.025 255.009 357.418 255.139 356.854 255.356C356.291 255.573 355.814 255.92 355.38 256.353L347.14 264.593C346.706 265.027 346.359 265.548 346.143 266.068V266.111C345.926 266.675 345.796 267.239 345.796 267.846C345.796 268.453 345.926 269.06 346.143 269.624C346.359 270.188 346.706 270.665 347.14 271.099C347.574 271.532 348.094 271.879 348.615 272.096C349.178 272.313 349.785 272.443 350.349 272.443C350.306 272.66 350.219 272.833 350.132 273.05C349.959 273.397 349.742 273.744 349.439 274.048L349.395 274.091L347.53 275.956C346.967 275.782 346.446 275.522 345.926 275.219C345.362 274.872 344.798 274.438 344.321 273.961C343.497 273.137 342.89 272.226 342.456 271.185C342.369 270.969 342.283 270.752 342.196 270.492V270.448C342.066 270.014 341.979 269.624 341.892 269.19C341.849 268.757 341.806 268.323 341.806 267.889C341.806 266.762 342.023 265.634 342.456 264.593C342.847 263.596 343.497 262.642 344.321 261.818L352.561 253.578L352.604 253.535C353.428 252.711 354.339 252.103 355.337 251.713C356.377 251.279 357.505 251.063 358.633 251.063C359.76 251.063 360.888 251.279 361.929 251.713C362.926 252.147 363.88 252.754 364.704 253.578C365.528 254.402 366.135 255.356 366.569 256.353C367.003 257.394 367.219 258.522 367.219 259.649C367.219 260.777 367.003 261.905 366.569 262.945C366.135 263.943 365.528 264.897 364.704 265.721L364.747 265.634L356.551 273.831C356.334 274.048 356.117 274.221 355.9 274.438C355.987 274.221 356.074 273.961 356.117 273.744C356.204 273.441 356.247 273.137 356.291 272.833V272.79V272.747V272.703V272.66C356.377 272.226 356.377 271.793 356.377 271.359Z" />
  </mask>
  <path fill-rule="evenodd" clip-rule="evenodd"
    d="M341.025 267.803C341.025 268.28 341.068 268.757 341.155 269.234C341.199 269.624 341.285 270.014 341.415 270.361L335.387 276.346C334.954 276.78 334.607 277.3 334.39 277.821C334.173 278.385 334.043 278.992 334.043 279.599C334.043 280.206 334.173 280.813 334.39 281.377C334.607 281.941 334.954 282.418 335.387 282.851L335.431 282.895C335.864 283.328 336.385 283.632 336.905 283.849C337.469 284.066 338.076 284.196 338.683 284.196C339.29 284.196 339.897 284.066 340.461 283.849C341.025 283.632 341.502 283.285 341.936 282.851L350.219 274.568C350.653 274.134 351 273.614 351.217 273.094V273.05C351.433 272.486 351.564 271.923 351.564 271.316C351.564 270.708 351.433 270.101 351.217 269.537C351 268.974 350.653 268.497 350.219 268.063C349.785 267.629 349.265 267.282 348.745 267.065C348.181 266.849 347.574 266.718 347.01 266.718C347.053 266.502 347.14 266.328 347.227 266.111C347.4 265.764 347.617 265.417 347.921 265.157L347.964 265.114L349.829 263.249C350.393 263.422 350.913 263.683 351.433 263.986C351.997 264.333 352.561 264.767 353.038 265.244C353.862 266.068 354.469 266.979 354.903 268.02C354.99 268.236 355.076 268.453 355.163 268.713V268.757C355.293 269.19 355.38 269.581 355.467 270.014C355.51 270.448 355.553 270.882 355.553 271.316C355.553 272.443 355.337 273.527 354.903 274.611C354.469 275.609 353.862 276.563 353.038 277.387L344.798 285.627L344.755 285.67C343.931 286.494 343.02 287.102 342.023 287.492C340.982 287.926 339.854 288.142 338.727 288.142C337.599 288.142 336.471 287.926 335.431 287.492C334.433 287.102 333.479 286.451 332.655 285.627C331.831 284.803 331.224 283.892 330.79 282.851C330.356 281.811 330.14 280.683 330.14 279.555C330.14 278.428 330.356 277.3 330.79 276.259C331.224 275.262 331.831 274.308 332.655 273.484L332.698 273.441L340.938 265.201C341.155 264.984 341.372 264.81 341.589 264.593C341.502 264.81 341.459 265.07 341.372 265.287C341.285 265.548 341.242 265.851 341.199 266.111V266.155V266.198V266.241V266.285V266.328V266.372C341.025 266.935 341.025 267.369 341.025 267.803ZM356.377 271.359C356.377 270.882 356.334 270.405 356.247 269.928C356.204 269.537 356.117 269.147 355.987 268.8L361.929 262.859C362.362 262.425 362.709 261.905 362.926 261.384C363.143 260.82 363.273 260.213 363.273 259.606C363.273 258.999 363.143 258.392 362.926 257.828C362.709 257.264 362.362 256.787 361.929 256.353L361.885 256.31C361.452 255.876 360.931 255.573 360.411 255.356C359.847 255.139 359.24 255.009 358.633 255.009C358.025 255.009 357.418 255.139 356.854 255.356C356.291 255.573 355.814 255.92 355.38 256.353L347.14 264.593C346.706 265.027 346.359 265.548 346.143 266.068V266.111C345.926 266.675 345.796 267.239 345.796 267.846C345.796 268.453 345.926 269.06 346.143 269.624C346.359 270.188 346.706 270.665 347.14 271.099C347.574 271.532 348.094 271.879 348.615 272.096C349.178 272.313 349.785 272.443 350.349 272.443C350.306 272.66 350.219 272.833 350.132 273.05C349.959 273.397 349.742 273.744 349.439 274.048L349.395 274.091L347.53 275.956C346.967 275.782 346.446 275.522 345.926 275.219C345.362 274.872 344.798 274.438 344.321 273.961C343.497 273.137 342.89 272.226 342.456 271.185C342.369 270.969 342.283 270.752 342.196 270.492V270.448C342.066 270.014 341.979 269.624 341.892 269.19C341.849 268.757 341.806 268.323 341.806 267.889C341.806 266.762 342.023 265.634 342.456 264.593C342.847 263.596 343.497 262.642 344.321 261.818L352.561 253.578L352.604 253.535C353.428 252.711 354.339 252.103 355.337 251.713C356.377 251.279 357.505 251.063 358.633 251.063C359.76 251.063 360.888 251.279 361.929 251.713C362.926 252.147 363.88 252.754 364.704 253.578C365.528 254.402 366.135 255.356 366.569 256.353C367.003 257.394 367.219 258.522 367.219 259.649C367.219 260.777 367.003 261.905 366.569 262.945C366.135 263.943 365.528 264.897 364.704 265.721L364.747 265.634L356.551 273.831C356.334 274.048 356.117 274.221 355.9 274.438C355.987 274.221 356.074 273.961 356.117 273.744C356.204 273.441 356.247 273.137 356.291 272.833V272.79V272.747V272.703V272.66C356.377 272.226 356.377 271.793 356.377 271.359Z"
    fill="#DEFFFA" />
  <path fill-rule="evenodd" clip-rule="evenodd"
    d="M341.025 267.803C341.025 268.28 341.068 268.757 341.155 269.234C341.199 269.624 341.285 270.014 341.415 270.361L335.387 276.346C334.954 276.78 334.607 277.3 334.39 277.821C334.173 278.385 334.043 278.992 334.043 279.599C334.043 280.206 334.173 280.813 334.39 281.377C334.607 281.941 334.954 282.418 335.387 282.851L335.431 282.895C335.864 283.328 336.385 283.632 336.905 283.849C337.469 284.066 338.076 284.196 338.683 284.196C339.29 284.196 339.897 284.066 340.461 283.849C341.025 283.632 341.502 283.285 341.936 282.851L350.219 274.568C350.653 274.134 351 273.614 351.217 273.094V273.05C351.433 272.486 351.564 271.923 351.564 271.316C351.564 270.708 351.433 270.101 351.217 269.537C351 268.974 350.653 268.497 350.219 268.063C349.785 267.629 349.265 267.282 348.745 267.065C348.181 266.849 347.574 266.718 347.01 266.718C347.053 266.502 347.14 266.328 347.227 266.111C347.4 265.764 347.617 265.417 347.921 265.157L347.964 265.114L349.829 263.249C350.393 263.422 350.913 263.683 351.433 263.986C351.997 264.333 352.561 264.767 353.038 265.244C353.862 266.068 354.469 266.979 354.903 268.02C354.99 268.236 355.076 268.453 355.163 268.713V268.757C355.293 269.19 355.38 269.581 355.467 270.014C355.51 270.448 355.553 270.882 355.553 271.316C355.553 272.443 355.337 273.527 354.903 274.611C354.469 275.609 353.862 276.563 353.038 277.387L344.798 285.627L344.755 285.67C343.931 286.494 343.02 287.102 342.023 287.492C340.982 287.926 339.854 288.142 338.727 288.142C337.599 288.142 336.471 287.926 335.431 287.492C334.433 287.102 333.479 286.451 332.655 285.627C331.831 284.803 331.224 283.892 330.79 282.851C330.356 281.811 330.14 280.683 330.14 279.555C330.14 278.428 330.356 277.3 330.79 276.259C331.224 275.262 331.831 274.308 332.655 273.484L332.698 273.441L340.938 265.201C341.155 264.984 341.372 264.81 341.589 264.593C341.502 264.81 341.459 265.07 341.372 265.287C341.285 265.548 341.242 265.851 341.199 266.111V266.155V266.198V266.241V266.285V266.328V266.372C341.025 266.935 341.025 267.369 341.025 267.803ZM356.377 271.359C356.377 270.882 356.334 270.405 356.247 269.928C356.204 269.537 356.117 269.147 355.987 268.8L361.929 262.859C362.362 262.425 362.709 261.905 362.926 261.384C363.143 260.82 363.273 260.213 363.273 259.606C363.273 258.999 363.143 258.392 362.926 257.828C362.709 257.264 362.362 256.787 361.929 256.353L361.885 256.31C361.452 255.876 360.931 255.573 360.411 255.356C359.847 255.139 359.24 255.009 358.633 255.009C358.025 255.009 357.418 255.139 356.854 255.356C356.291 255.573 355.814 255.92 355.38 256.353L347.14 264.593C346.706 265.027 346.359 265.548 346.143 266.068V266.111C345.926 266.675 345.796 267.239 345.796 267.846C345.796 268.453 345.926 269.06 346.143 269.624C346.359 270.188 346.706 270.665 347.14 271.099C347.574 271.532 348.094 271.879 348.615 272.096C349.178 272.313 349.785 272.443 350.349 272.443C350.306 272.66 350.219 272.833 350.132 273.05C349.959 273.397 349.742 273.744 349.439 274.048L349.395 274.091L347.53 275.956C346.967 275.782 346.446 275.522 345.926 275.219C345.362 274.872 344.798 274.438 344.321 273.961C343.497 273.137 342.89 272.226 342.456 271.185C342.369 270.969 342.283 270.752 342.196 270.492V270.448C342.066 270.014 341.979 269.624 341.892 269.19C341.849 268.757 341.806 268.323 341.806 267.889C341.806 266.762 342.023 265.634 342.456 264.593C342.847 263.596 343.497 262.642 344.321 261.818L352.561 253.578L352.604 253.535C353.428 252.711 354.339 252.103 355.337 251.713C356.377 251.279 357.505 251.063 358.633 251.063C359.76 251.063 360.888 251.279 361.929 251.713C362.926 252.147 363.88 252.754 364.704 253.578C365.528 254.402 366.135 255.356 366.569 256.353C367.003 257.394 367.219 258.522 367.219 259.649C367.219 260.777 367.003 261.905 366.569 262.945C366.135 263.943 365.528 264.897 364.704 265.721L364.747 265.634L356.551 273.831C356.334 274.048 356.117 274.221 355.9 274.438C355.987 274.221 356.074 273.961 356.117 273.744C356.204 273.441 356.247 273.137 356.291 272.833V272.79V272.747V272.703V272.66C356.377 272.226 356.377 271.793 356.377 271.359Z"
    stroke="black" stroke-width="2" stroke-miterlimit="10" stroke-linecap="round" stroke-linejoin="round"
    mask="url(#path-37-outside-1)" />
  <circle cx="323.398" cy="269.135" r="18.8189" fill="#DEFFFA" stroke="black" />
  <line x1="323.275" y1="259.164" x2="323.275" y2="278.483" stroke="black" />
  <line x1="313.427" y1="268.012" x2="332.745" y2="268.012" stroke="black" />
  <defs>
    <radialGradient id="paint0_radial" cx="0" cy="0" r="1" gradientUnits="userSpaceOnUse"
      gradientTransform="translate(165.241 124.626) rotate(-31.7801) scale(126.843 91.5933)">
      <stop stop-color="#E6E6E6" />
      <stop offset="0.13" stop-color="#E1E7E7" />
      <stop offset="0.28" stop-color="#D3EAE8" />
      <stop offset="0.44" stop-color="#BBF0EB" />
      <stop offset="0.6" stop-color="#9AF7EF" />
      <stop offset="0.75" stop-color="#78FFF3" />
    </radialGradient>
    <radialGradient id="paint1_radial" cx="0" cy="0" r="1" gradientUnits="userSpaceOnUse"
      gradientTransform="translate(212.14 154.693) rotate(-31.7801) scale(126.843 91.5932)">
      <stop stop-color="#73B3F3" />
      <stop offset="0.23" stop-color="#72B8F4" />
      <stop offset="0.51" stop-color="#70C6F6" />
      <stop offset="0.75" stop-color="#6ED9F9" />
      <stop offset="1" stop-color="#BCFFF9" />
    </radialGradient>
    <radialGradient id="paint2_radial" cx="0" cy="0" r="1" gradientUnits="userSpaceOnUse"
      gradientTransform="translate(259.047 184.756) rotate(-31.7801) scale(126.843 91.5932)">
      <stop stop-color="#0080FF" />
      <stop offset="0.24" stop-color="#0281FF" />
      <stop offset="0.37" stop-color="#0B85FF" />
      <stop offset="0.48" stop-color="#198CFF" />
      <stop offset="0.58" stop-color="#2D96FF" />
      <stop offset="0.67" stop-color="#47A3FF" />
      <stop offset="0.75" stop-color="#66B3FF" />
      <stop offset="0.83" stop-color="#8CC6FF" />
      <stop offset="0.9" stop-color="#B8DCFF" />
      <stop offset="0.97" stop-color="#E9F4FF" />
      <stop offset="1" stop-color="white" />
    </radialGradient>
    <clipPath id="clip0">
      <rect width="267.352" height="308.483" fill="white" transform="translate(80.9995 0.913574)" />
    </clipPath>
  </defs>
</svg>