<svg width="100%" height="100%" viewBox="0 0 294 310" fill="none" xmlns="http://www.w3.org/2000/svg">
  <path d="M12.5 85.347L134 15.5766L255.5 85.347V225.653L134 295.423L12.5 225.653V85.347Z" stroke="black" />
  <g clip-path="url(#clip0)">
    <path opacity="0.5" d="M147.662 22.5049L20.8202 100.623V227.372L147.662 149.254V22.5049Z" fill="white" />
    <path opacity="0.75" d="M194.561 52.7477L67.7194 130.866V257.615L194.561 179.497V52.7477Z" fill="white" />
    <path d="M241.468 82.9906L114.626 161.101V287.85L241.468 209.74V82.9906Z" fill="white" />
    <path d="M133.672 121.616V1.3476" stroke="black" stroke-miterlimit="10" />
    <path d="M266.97 232.057V198.521L133.672 121.616L0.373901 198.521V232.057L133.672 308.963L266.97 232.057Z"
      stroke="black" stroke-miterlimit="10" />
    <path opacity="0.5"
      d="M147.662 27.8758C147.662 25.5284 145.088 24.0904 143.089 25.3214L22.247 99.7442C21.3603 100.29 20.8202 101.257 20.8202 102.299V222.001C20.8202 224.349 23.3946 225.787 25.3934 224.556L146.235 150.133C147.122 149.587 147.662 148.62 147.662 147.578V27.8758Z"
      fill="url(#paint0_radial--check)" />
    <path opacity="0.75"
      d="M194.561 58.1186C194.561 55.7712 191.987 54.3332 189.988 55.5642L69.1462 129.987C68.2594 130.533 67.7194 131.5 67.7194 132.541V252.244C67.7194 254.591 70.2938 256.029 72.2926 254.798L193.134 180.376C194.021 179.829 194.561 178.863 194.561 177.821V58.1186Z"
      fill="url(#paint1_radial--check)" />
    <path
      d="M241.468 88.3613C241.468 86.0139 238.894 84.5759 236.895 85.8068L116.053 160.222C115.166 160.769 114.626 161.736 114.626 162.777V282.48C114.626 284.827 117.2 286.265 119.199 285.034L240.041 210.618C240.928 210.072 241.468 209.105 241.468 208.064V88.3613Z"
      fill="url(#paint2_radial--check)" />
    <path d="M266.977 198.521V111.789" stroke="black" stroke-miterlimit="10" />
    <path d="M0.373901 198.521V111.789" stroke="black" stroke-miterlimit="10" />
    <path d="M133.672 188.695V308.963" stroke="black" stroke-miterlimit="10" />
    <path d="M266.97 111.789V78.2532L133.672 1.3476L0.373901 78.2532V111.789L133.672 188.695L266.97 111.789Z"
      stroke="black" stroke-miterlimit="10" />
  </g>
  <path d="M189.986 217.247L203.802 229.028L207.498 232.031L210.761 228.592L249.724 187.962" stroke="#50E6D9"
    stroke-opacity="0.7" stroke-width="13" stroke-miterlimit="10" stroke-linecap="square" />
  <path d="M206.634 217.269L220.69 229.022L224.447 232.031L227.75 228.572L267.352 187.962" stroke="#28B3EC"
    stroke-opacity="0.9" stroke-width="13" stroke-miterlimit="10" stroke-linecap="square" />
  <path d="M224.262 217.247L238.078 229.028L241.774 232.031L245.037 228.592L284 187.962" stroke="#0067CE"
    stroke-width="13" stroke-miterlimit="10" stroke-linecap="square" />
  <g opacity="0.2">
    <path d="M134.5 259.417L151.584 249.577L168.668 259.417V279.205L151.584 289.045L134.5 279.205V259.417Z"
      fill="#DEFFFA" stroke="black" />
  </g>
  <g opacity="0.3">
    <path d="M148.427 259.417L165.512 249.577L182.596 259.417V279.205L165.512 289.045L148.427 279.205V259.417Z"
      fill="#DEFFFA" stroke="black" />
  </g>
  <g opacity="0.4">
    <path d="M162.355 259.417L179.439 249.577L196.523 259.417V279.205L179.439 289.045L162.355 279.205V259.417Z"
      fill="#DEFFFA" stroke="black" />
  </g>
  <g opacity="0.5">
    <path d="M176.282 259.417L193.366 249.577L210.451 259.417V279.205L193.366 289.045L176.282 279.205V259.417Z"
      fill="#DEFFFA" stroke="black" />
  </g>
  <path d="M190.21 259.417L207.294 249.577L224.378 259.417V279.205L207.294 289.045L190.21 279.205V259.417Z"
    fill="#DEFFFA" stroke="black" />
  <path d="M204.137 259.417L221.221 249.577L238.306 259.417V279.205L221.221 289.045L204.137 279.205V259.417Z"
    fill="#DEFFFA" stroke="black" />
  <mask id="path-23-outside-1" maskUnits="userSpaceOnUse" x="248.14" y="250.063" width="40" height="40" fill="black">
    <rect fill="white" x="248.14" y="250.063" width="40" height="40" />
    <path fill-rule="evenodd" clip-rule="evenodd"
      d="M260.025 267.803C260.025 268.28 260.068 268.757 260.155 269.234C260.199 269.624 260.285 270.014 260.415 270.361L254.387 276.346C253.954 276.78 253.607 277.3 253.39 277.821C253.173 278.385 253.043 278.992 253.043 279.599C253.043 280.206 253.173 280.813 253.39 281.377C253.607 281.941 253.954 282.418 254.387 282.851L254.431 282.895C254.864 283.328 255.385 283.632 255.905 283.849C256.469 284.066 257.076 284.196 257.683 284.196C258.29 284.196 258.897 284.066 259.461 283.849C260.025 283.632 260.502 283.285 260.936 282.851L269.219 274.568C269.653 274.134 270 273.614 270.217 273.094V273.05C270.433 272.486 270.564 271.923 270.564 271.316C270.564 270.708 270.433 270.101 270.217 269.537C270 268.974 269.653 268.497 269.219 268.063C268.785 267.629 268.265 267.282 267.745 267.065C267.181 266.849 266.574 266.718 266.01 266.718C266.053 266.502 266.14 266.328 266.227 266.111C266.4 265.764 266.617 265.417 266.921 265.157L266.964 265.114L268.829 263.249C269.393 263.422 269.913 263.683 270.433 263.986C270.997 264.333 271.561 264.767 272.038 265.244C272.862 266.068 273.469 266.979 273.903 268.02C273.99 268.236 274.076 268.453 274.163 268.713V268.757C274.293 269.19 274.38 269.581 274.467 270.014C274.51 270.448 274.553 270.882 274.553 271.316C274.553 272.443 274.337 273.527 273.903 274.611C273.469 275.609 272.862 276.563 272.038 277.387L263.798 285.627L263.755 285.67C262.931 286.494 262.02 287.102 261.023 287.492C259.982 287.926 258.854 288.142 257.727 288.142C256.599 288.142 255.471 287.926 254.431 287.492C253.433 287.102 252.479 286.451 251.655 285.627C250.831 284.803 250.224 283.892 249.79 282.851C249.356 281.811 249.14 280.683 249.14 279.555C249.14 278.428 249.356 277.3 249.79 276.259C250.224 275.262 250.831 274.308 251.655 273.484L251.698 273.441L259.938 265.201C260.155 264.984 260.372 264.81 260.589 264.593C260.502 264.81 260.459 265.07 260.372 265.287C260.285 265.548 260.242 265.851 260.199 266.111V266.155V266.198V266.241V266.285V266.328V266.372C260.025 266.935 260.025 267.369 260.025 267.803ZM275.377 271.359C275.377 270.882 275.334 270.405 275.247 269.928C275.204 269.537 275.117 269.147 274.987 268.8L280.929 262.859C281.362 262.425 281.709 261.905 281.926 261.384C282.143 260.82 282.273 260.213 282.273 259.606C282.273 258.999 282.143 258.392 281.926 257.828C281.709 257.264 281.362 256.787 280.929 256.353L280.885 256.31C280.452 255.876 279.931 255.573 279.411 255.356C278.847 255.139 278.24 255.009 277.633 255.009C277.025 255.009 276.418 255.139 275.854 255.356C275.291 255.573 274.814 255.92 274.38 256.353L266.14 264.593C265.706 265.027 265.359 265.548 265.143 266.068V266.111C264.926 266.675 264.796 267.239 264.796 267.846C264.796 268.453 264.926 269.06 265.143 269.624C265.359 270.188 265.706 270.665 266.14 271.099C266.574 271.532 267.094 271.879 267.615 272.096C268.178 272.313 268.785 272.443 269.349 272.443C269.306 272.66 269.219 272.833 269.132 273.05C268.959 273.397 268.742 273.744 268.439 274.048L268.395 274.091L266.53 275.956C265.967 275.782 265.446 275.522 264.926 275.219C264.362 274.872 263.798 274.438 263.321 273.961C262.497 273.137 261.89 272.226 261.456 271.185C261.369 270.969 261.283 270.752 261.196 270.492V270.448C261.066 270.014 260.979 269.624 260.892 269.19C260.849 268.757 260.806 268.323 260.806 267.889C260.806 266.762 261.023 265.634 261.456 264.593C261.847 263.596 262.497 262.642 263.321 261.818L271.561 253.578L271.604 253.535C272.428 252.711 273.339 252.103 274.337 251.713C275.377 251.279 276.505 251.063 277.633 251.063C278.76 251.063 279.888 251.279 280.929 251.713C281.926 252.147 282.88 252.754 283.704 253.578C284.528 254.402 285.135 255.356 285.569 256.353C286.003 257.394 286.219 258.522 286.219 259.649C286.219 260.777 286.003 261.905 285.569 262.945C285.135 263.943 284.528 264.897 283.704 265.721L283.747 265.634L275.551 273.831C275.334 274.048 275.117 274.221 274.9 274.438C274.987 274.221 275.074 273.961 275.117 273.744C275.204 273.441 275.247 273.137 275.291 272.833V272.79V272.747V272.703V272.66C275.377 272.226 275.377 271.793 275.377 271.359Z" />
  </mask>
  <path fill-rule="evenodd" clip-rule="evenodd"
    d="M260.025 267.803C260.025 268.28 260.068 268.757 260.155 269.234C260.199 269.624 260.285 270.014 260.415 270.361L254.387 276.346C253.954 276.78 253.607 277.3 253.39 277.821C253.173 278.385 253.043 278.992 253.043 279.599C253.043 280.206 253.173 280.813 253.39 281.377C253.607 281.941 253.954 282.418 254.387 282.851L254.431 282.895C254.864 283.328 255.385 283.632 255.905 283.849C256.469 284.066 257.076 284.196 257.683 284.196C258.29 284.196 258.897 284.066 259.461 283.849C260.025 283.632 260.502 283.285 260.936 282.851L269.219 274.568C269.653 274.134 270 273.614 270.217 273.094V273.05C270.433 272.486 270.564 271.923 270.564 271.316C270.564 270.708 270.433 270.101 270.217 269.537C270 268.974 269.653 268.497 269.219 268.063C268.785 267.629 268.265 267.282 267.745 267.065C267.181 266.849 266.574 266.718 266.01 266.718C266.053 266.502 266.14 266.328 266.227 266.111C266.4 265.764 266.617 265.417 266.921 265.157L266.964 265.114L268.829 263.249C269.393 263.422 269.913 263.683 270.433 263.986C270.997 264.333 271.561 264.767 272.038 265.244C272.862 266.068 273.469 266.979 273.903 268.02C273.99 268.236 274.076 268.453 274.163 268.713V268.757C274.293 269.19 274.38 269.581 274.467 270.014C274.51 270.448 274.553 270.882 274.553 271.316C274.553 272.443 274.337 273.527 273.903 274.611C273.469 275.609 272.862 276.563 272.038 277.387L263.798 285.627L263.755 285.67C262.931 286.494 262.02 287.102 261.023 287.492C259.982 287.926 258.854 288.142 257.727 288.142C256.599 288.142 255.471 287.926 254.431 287.492C253.433 287.102 252.479 286.451 251.655 285.627C250.831 284.803 250.224 283.892 249.79 282.851C249.356 281.811 249.14 280.683 249.14 279.555C249.14 278.428 249.356 277.3 249.79 276.259C250.224 275.262 250.831 274.308 251.655 273.484L251.698 273.441L259.938 265.201C260.155 264.984 260.372 264.81 260.589 264.593C260.502 264.81 260.459 265.07 260.372 265.287C260.285 265.548 260.242 265.851 260.199 266.111V266.155V266.198V266.241V266.285V266.328V266.372C260.025 266.935 260.025 267.369 260.025 267.803ZM275.377 271.359C275.377 270.882 275.334 270.405 275.247 269.928C275.204 269.537 275.117 269.147 274.987 268.8L280.929 262.859C281.362 262.425 281.709 261.905 281.926 261.384C282.143 260.82 282.273 260.213 282.273 259.606C282.273 258.999 282.143 258.392 281.926 257.828C281.709 257.264 281.362 256.787 280.929 256.353L280.885 256.31C280.452 255.876 279.931 255.573 279.411 255.356C278.847 255.139 278.24 255.009 277.633 255.009C277.025 255.009 276.418 255.139 275.854 255.356C275.291 255.573 274.814 255.92 274.38 256.353L266.14 264.593C265.706 265.027 265.359 265.548 265.143 266.068V266.111C264.926 266.675 264.796 267.239 264.796 267.846C264.796 268.453 264.926 269.06 265.143 269.624C265.359 270.188 265.706 270.665 266.14 271.099C266.574 271.532 267.094 271.879 267.615 272.096C268.178 272.313 268.785 272.443 269.349 272.443C269.306 272.66 269.219 272.833 269.132 273.05C268.959 273.397 268.742 273.744 268.439 274.048L268.395 274.091L266.53 275.956C265.967 275.782 265.446 275.522 264.926 275.219C264.362 274.872 263.798 274.438 263.321 273.961C262.497 273.137 261.89 272.226 261.456 271.185C261.369 270.969 261.283 270.752 261.196 270.492V270.448C261.066 270.014 260.979 269.624 260.892 269.19C260.849 268.757 260.806 268.323 260.806 267.889C260.806 266.762 261.023 265.634 261.456 264.593C261.847 263.596 262.497 262.642 263.321 261.818L271.561 253.578L271.604 253.535C272.428 252.711 273.339 252.103 274.337 251.713C275.377 251.279 276.505 251.063 277.633 251.063C278.76 251.063 279.888 251.279 280.929 251.713C281.926 252.147 282.88 252.754 283.704 253.578C284.528 254.402 285.135 255.356 285.569 256.353C286.003 257.394 286.219 258.522 286.219 259.649C286.219 260.777 286.003 261.905 285.569 262.945C285.135 263.943 284.528 264.897 283.704 265.721L283.747 265.634L275.551 273.831C275.334 274.048 275.117 274.221 274.9 274.438C274.987 274.221 275.074 273.961 275.117 273.744C275.204 273.441 275.247 273.137 275.291 272.833V272.79V272.747V272.703V272.66C275.377 272.226 275.377 271.793 275.377 271.359Z"
    fill="#DEFFFA" />
  <path fill-rule="evenodd" clip-rule="evenodd"
    d="M260.025 267.803C260.025 268.28 260.068 268.757 260.155 269.234C260.199 269.624 260.285 270.014 260.415 270.361L254.387 276.346C253.954 276.78 253.607 277.3 253.39 277.821C253.173 278.385 253.043 278.992 253.043 279.599C253.043 280.206 253.173 280.813 253.39 281.377C253.607 281.941 253.954 282.418 254.387 282.851L254.431 282.895C254.864 283.328 255.385 283.632 255.905 283.849C256.469 284.066 257.076 284.196 257.683 284.196C258.29 284.196 258.897 284.066 259.461 283.849C260.025 283.632 260.502 283.285 260.936 282.851L269.219 274.568C269.653 274.134 270 273.614 270.217 273.094V273.05C270.433 272.486 270.564 271.923 270.564 271.316C270.564 270.708 270.433 270.101 270.217 269.537C270 268.974 269.653 268.497 269.219 268.063C268.785 267.629 268.265 267.282 267.745 267.065C267.181 266.849 266.574 266.718 266.01 266.718C266.053 266.502 266.14 266.328 266.227 266.111C266.4 265.764 266.617 265.417 266.921 265.157L266.964 265.114L268.829 263.249C269.393 263.422 269.913 263.683 270.433 263.986C270.997 264.333 271.561 264.767 272.038 265.244C272.862 266.068 273.469 266.979 273.903 268.02C273.99 268.236 274.076 268.453 274.163 268.713V268.757C274.293 269.19 274.38 269.581 274.467 270.014C274.51 270.448 274.553 270.882 274.553 271.316C274.553 272.443 274.337 273.527 273.903 274.611C273.469 275.609 272.862 276.563 272.038 277.387L263.798 285.627L263.755 285.67C262.931 286.494 262.02 287.102 261.023 287.492C259.982 287.926 258.854 288.142 257.727 288.142C256.599 288.142 255.471 287.926 254.431 287.492C253.433 287.102 252.479 286.451 251.655 285.627C250.831 284.803 250.224 283.892 249.79 282.851C249.356 281.811 249.14 280.683 249.14 279.555C249.14 278.428 249.356 277.3 249.79 276.259C250.224 275.262 250.831 274.308 251.655 273.484L251.698 273.441L259.938 265.201C260.155 264.984 260.372 264.81 260.589 264.593C260.502 264.81 260.459 265.07 260.372 265.287C260.285 265.548 260.242 265.851 260.199 266.111V266.155V266.198V266.241V266.285V266.328V266.372C260.025 266.935 260.025 267.369 260.025 267.803ZM275.377 271.359C275.377 270.882 275.334 270.405 275.247 269.928C275.204 269.537 275.117 269.147 274.987 268.8L280.929 262.859C281.362 262.425 281.709 261.905 281.926 261.384C282.143 260.82 282.273 260.213 282.273 259.606C282.273 258.999 282.143 258.392 281.926 257.828C281.709 257.264 281.362 256.787 280.929 256.353L280.885 256.31C280.452 255.876 279.931 255.573 279.411 255.356C278.847 255.139 278.24 255.009 277.633 255.009C277.025 255.009 276.418 255.139 275.854 255.356C275.291 255.573 274.814 255.92 274.38 256.353L266.14 264.593C265.706 265.027 265.359 265.548 265.143 266.068V266.111C264.926 266.675 264.796 267.239 264.796 267.846C264.796 268.453 264.926 269.06 265.143 269.624C265.359 270.188 265.706 270.665 266.14 271.099C266.574 271.532 267.094 271.879 267.615 272.096C268.178 272.313 268.785 272.443 269.349 272.443C269.306 272.66 269.219 272.833 269.132 273.05C268.959 273.397 268.742 273.744 268.439 274.048L268.395 274.091L266.53 275.956C265.967 275.782 265.446 275.522 264.926 275.219C264.362 274.872 263.798 274.438 263.321 273.961C262.497 273.137 261.89 272.226 261.456 271.185C261.369 270.969 261.283 270.752 261.196 270.492V270.448C261.066 270.014 260.979 269.624 260.892 269.19C260.849 268.757 260.806 268.323 260.806 267.889C260.806 266.762 261.023 265.634 261.456 264.593C261.847 263.596 262.497 262.642 263.321 261.818L271.561 253.578L271.604 253.535C272.428 252.711 273.339 252.103 274.337 251.713C275.377 251.279 276.505 251.063 277.633 251.063C278.76 251.063 279.888 251.279 280.929 251.713C281.926 252.147 282.88 252.754 283.704 253.578C284.528 254.402 285.135 255.356 285.569 256.353C286.003 257.394 286.219 258.522 286.219 259.649C286.219 260.777 286.003 261.905 285.569 262.945C285.135 263.943 284.528 264.897 283.704 265.721L283.747 265.634L275.551 273.831C275.334 274.048 275.117 274.221 274.9 274.438C274.987 274.221 275.074 273.961 275.117 273.744C275.204 273.441 275.247 273.137 275.291 272.833V272.79V272.747V272.703V272.66C275.377 272.226 275.377 271.793 275.377 271.359Z"
    stroke="black" stroke-width="2" stroke-miterlimit="10" stroke-linecap="round" stroke-linejoin="round"
    mask="url(#path-23-outside-1)" />
  <circle cx="242.398" cy="269.135" r="18.8189" fill="#DEFFFA" stroke="black" />
  <line x1="242.275" y1="259.164" x2="242.275" y2="278.483" stroke="black" />
  <line x1="232.427" y1="268.012" x2="251.745" y2="268.012" stroke="black" />
  <defs>
    <radialGradient id="paint0_radial--check" cx="0" cy="0" r="1" gradientUnits="userSpaceOnUse"
      gradientTransform="translate(84.2411 124.626) rotate(-31.7801) scale(126.843 91.5933)">
      <stop stop-color="#E6E6E6" />
      <stop offset="0.13" stop-color="#E1E7E7" />
      <stop offset="0.28" stop-color="#D3EAE8" />
      <stop offset="0.44" stop-color="#BBF0EB" />
      <stop offset="0.6" stop-color="#9AF7EF" />
      <stop offset="0.75" stop-color="#78FFF3" />
    </radialGradient>
    <radialGradient id="paint1_radial--check" cx="0" cy="0" r="1" gradientUnits="userSpaceOnUse"
      gradientTransform="translate(131.14 154.693) rotate(-31.7801) scale(126.843 91.5932)">
      <stop stop-color="#73B3F3" />
      <stop offset="0.23" stop-color="#72B8F4" />
      <stop offset="0.51" stop-color="#70C6F6" />
      <stop offset="0.75" stop-color="#6ED9F9" />
      <stop offset="1" stop-color="#BCFFF9" />
    </radialGradient>
    <radialGradient id="paint2_radial--check" cx="0" cy="0" r="1" gradientUnits="userSpaceOnUse"
      gradientTransform="translate(178.047 184.756) rotate(-31.7801) scale(126.843 91.5932)">
      <stop stop-color="#0080FF" />
      <stop offset="0.24" stop-color="#0281FF" />
      <stop offset="0.37" stop-color="#0B85FF" />
      <stop offset="0.48" stop-color="#198CFF" />
      <stop offset="0.58" stop-color="#2D96FF" />
      <stop offset="0.67" stop-color="#47A3FF" />
      <stop offset="0.75" stop-color="#66B3FF" />
      <stop offset="0.83" stop-color="#8CC6FF" />
      <stop offset="0.9" stop-color="#B8DCFF" />
      <stop offset="0.97" stop-color="#E9F4FF" />
      <stop offset="1" stop-color="white" />
    </radialGradient>
    <clipPath id="clip0">
      <rect width="267.352" height="308.483" fill="white" transform="translate(-0.000488281 0.913574)" />
    </clipPath>
  </defs>
</svg>