<svg width="60" height="27" viewBox="0 0 60 27" fill="none" xmlns="http://www.w3.org/2000/svg">
<path d="M51.4028 12.5152C50.3597 9.40323 48.465 6.64424 45.9326 4.54999C43.4003 2.45573 40.3312 1.10969 37.0723 0.663944C33.8134 0.218197 30.4945 0.690512 27.4905 2.02752C24.4865 3.36453 21.9172 5.51295 20.0729 8.23003C18.0891 7.0482 15.8203 6.42702 13.5097 6.43302C11.2992 6.42814 9.1249 6.99217 7.19685 8.07061C5.2688 9.14906 3.65225 10.7054 2.50345 12.5893C1.35465 14.4732 0.712458 16.6208 0.638945 18.8246C0.565432 21.0285 1.06309 23.2139 2.0838 25.1698C2.13749 25.2732 2.21893 25.3597 2.31903 25.4196C2.41914 25.4795 2.53396 25.5105 2.65069 25.5091H58.0794C58.2089 25.509 58.3352 25.4692 58.4411 25.395C58.5471 25.3208 58.6275 25.2158 58.6715 25.0944C59.1589 23.7984 59.3534 22.411 59.241 21.0313C59.1286 19.6516 58.7122 18.3137 58.0214 17.1132C57.3306 15.9127 56.3825 14.8792 55.2449 14.0865C54.1073 13.2938 52.8083 12.7616 51.4406 12.5278L51.4028 12.5152Z" fill="white" stroke="black" stroke-miterlimit="10"/>
</svg>
