<svg width="52" height="26" viewBox="0 0 52 26" fill="none" xmlns="http://www.w3.org/2000/svg">
<path d="M51.3127 16.7871C50.8647 12.9252 49.2404 9.309 46.673 6.45799C44.1056 3.60699 40.7273 1.66792 37.0234 0.91936C33.3196 0.170796 29.4808 0.65126 26.0585 2.29173C22.6363 3.9322 19.8066 6.64825 17.9762 10.0497C16.7583 9.65492 15.4892 9.45315 14.2124 9.45129C10.8212 9.45716 7.57068 10.8487 5.17374 13.3208C2.77679 15.7928 1.42911 19.1435 1.42627 22.6381C1.43476 23.1955 1.65638 23.7271 2.04298 24.1171C2.42958 24.5072 2.94994 24.7243 3.491 24.7213H48.9899C49.4574 24.723 49.9115 24.5604 50.2771 24.2601C50.6428 23.9599 50.8981 23.5402 51.0009 23.0702C51.4544 21.0099 51.5599 18.8844 51.3127 16.7871Z" fill="white" stroke="black" stroke-miterlimit="10"/>
</svg>
