<svg height="fit-content" viewBox="0 0 149 133" fill="none" xmlns="http://www.w3.org/2000/svg">
  <path d="M147.67 5.35132H50.5223V106.794H147.67V5.35132Z" stroke="#999999" stroke-width="1.5"
    stroke-miterlimit="10" />
  <path
    d="M131.761 8.32146C131.803 8.5683 131.82 8.81856 131.82 9.06898V11.2209C131.82 11.3507 131.788 11.4781 131.764 11.6057V11.6057C131.639 12.693 131.355 13.7511 130.924 14.7394C129.975 16.8875 128.703 18.8448 127.162 20.529C124.02 24.1186 120.4 27.0424 116.549 29.6224C116.483 29.6787 116.402 29.7093 116.318 29.7093C116.235 29.7093 116.154 29.6787 116.088 29.6224C112.995 27.5982 110.087 25.2523 107.404 22.6169C105.476 20.7543 103.799 18.6017 102.422 16.223C101.667 14.9159 101.159 13.4561 100.926 11.9296C100.694 10.4032 100.743 8.84119 101.07 7.33588C102.481 0.460683 110.282 -2.35453 115.145 2.26995C115.524 2.62658 115.862 3.03746 116.234 3.45032C116.287 3.50907 116.379 3.49677 116.424 3.43149V3.43149C118.597 0.76464 121.283 -0.429473 124.495 0.17482C128.016 0.822536 130.327 3.13115 131.451 6.84738C131.573 7.3339 131.676 7.82568 131.761 8.32146Z"
    fill="url(#paint0_radial--heart)" />
  <path d="M98.1485 30.8894L147.671 5.35132" stroke="#999999" stroke-width="1.5" stroke-miterlimit="10" />
  <path d="M98.1482 30.8983H1.00006V132.341H98.1482V30.8983Z" stroke="#999999" stroke-width="1.5"
    stroke-miterlimit="10" />
  <path d="M50.5226 106.794L1.00006 132.342" stroke="#999999" stroke-width="1.5"  stroke-miterlimit="10" />
  <path d="M98.1485 132.332L147.671 106.794" stroke="#999999" stroke-width="1.5" stroke-miterlimit="10" />
  <path d="M1.00055 30.8894L50.5231 5.35132" stroke="#999999" stroke-width="1.5" stroke-miterlimit="10" />
  <path
    d="M116.53 59.4562C116.574 59.7156 116.594 59.9783 116.594 60.2413V66.2805C116.594 66.6122 116.508 66.9371 116.444 67.2626V67.2626C116.109 70.0308 115.349 72.7247 114.194 75.2409C111.655 80.7101 108.252 85.6934 104.127 89.9815C95.7191 99.1207 86.0317 106.565 75.7266 113.133C75.55 113.277 75.3327 113.355 75.109 113.355C74.8853 113.355 74.668 113.277 74.4914 113.133C66.2152 107.98 58.433 102.007 51.2521 95.2974C46.0948 90.5552 41.6065 85.0744 37.9208 79.0182C35.9005 75.6905 34.5394 71.9736 33.9181 68.0873C33.2968 64.2009 33.4278 60.2239 34.3035 56.3914C38.0796 38.8869 58.9544 31.7193 71.9681 43.4933C72.9835 44.4022 73.8885 45.4493 74.8848 46.5015C75.0279 46.6526 75.2699 46.6197 75.3913 46.4507V46.4507C81.2056 39.6608 88.3962 36.6205 96.9896 38.1591C106.412 39.8082 112.597 45.686 115.606 55.1476C115.979 56.5679 116.287 58.0057 116.53 59.4562Z"
    fill="url(#paint1_radial)" />
  <path d="M98.1481 30.8983H1V132.341H98.1481V30.8983Z" stroke="#999999" stroke-width="1.5" stroke-miterlimit="10" />
  <defs>
    <radialGradient id="paint0_radial--heart" cx="0" cy="0" r="1" gradientUnits="userSpaceOnUse"
      gradientTransform="translate(115.873 44.5922) rotate(-90) scale(44.5384 44.6374)">
      <stop stop-color="#C2E5FF" />
      <stop offset="0.666897" stop-color="#50E6D9" />
      <stop offset="1" stop-color="#C2E5FF" />
    </radialGradient>
    <radialGradient id="paint1_radial" cx="0" cy="0" r="1" gradientUnits="userSpaceOnUse"
      gradientTransform="translate(73.9163 151.247) rotate(-90) scale(113.396 119.455)">
      <stop stop-color="white" />
      <stop offset="0.666897" stop-color="#0582FF" />
      <stop offset="1" stop-color="#C2E5FF" />
    </radialGradient>
  </defs>
</svg>