<svg width="100%" height="100%" viewBox="0 0 227 312" fill="none" xmlns="http://www.w3.org/2000/svg">
  <path d="M181.366 0H175.7V5.67105H181.366V0Z" fill="black" />
  <path d="M181.366 11.3423H175.7V17.0133H181.366V11.3423Z" fill="black" />
  <path d="M175.699 5.67139H170.033V11.3424H175.699V5.67139Z" fill="black" />
  <path d="M187.032 5.67139H181.366V11.3424H187.032V5.67139Z" fill="black" />
  <path
    d="M8.27871 84.5114C6.75646 82.9891 4.69184 82.1339 2.53904 82.1339C1.99825 82.1339 1.47962 81.9191 1.09722 81.5367C0.714827 81.1543 0.5 80.6356 0.5 80.0949C0.5 79.5541 0.714827 79.0354 1.09722 78.653C1.47962 78.2706 1.99825 78.0558 2.53904 78.0558C4.69183 78.0558 6.75646 77.2006 8.27871 75.6784C9.80097 74.1561 10.6562 72.0915 10.6562 69.9387C10.6562 69.3979 10.871 68.8793 11.2534 68.4969C11.6358 68.1145 12.1544 67.8997 12.6952 67.8997C13.236 67.8997 13.7546 68.1145 14.137 68.4969C14.5194 68.8793 14.7342 69.3979 14.7342 69.9387C14.7342 72.0915 15.5894 74.1561 17.1117 75.6784C18.6339 77.2006 20.6986 78.0558 22.8514 78.0558C23.3922 78.0558 23.9108 78.2706 24.2932 78.653C24.6756 79.0354 24.8904 79.5541 24.8904 80.0949C24.8904 80.6356 24.6756 81.1543 24.2932 81.5367C23.9108 81.9191 23.3922 82.1339 22.8514 82.1339C20.6986 82.1339 18.6339 82.9891 17.1117 84.5114C15.5894 86.0336 14.7342 88.0982 14.7342 90.251C14.7342 90.7918 14.5194 91.3104 14.137 91.6928C13.7546 92.0752 13.236 92.2901 12.6952 92.2901C12.1544 92.2901 11.6358 92.0752 11.2534 91.6928C10.871 91.3104 10.6562 90.7918 10.6562 90.251C10.6562 88.0982 9.80097 86.0336 8.27871 84.5114Z"
    stroke="black" />
  <path
    d="M200.927 109.364C204.714 109.364 207.784 106.292 207.784 102.502C207.784 98.7114 204.714 95.6389 200.927 95.6389C197.139 95.6389 194.069 98.7114 194.069 102.502C194.069 106.292 197.139 109.364 200.927 109.364Z"
    fill="black" />
  <path d="M71.6412 133.221H64.784V140.084H71.6412V133.221Z" fill="black" />
  <path
    d="M129.866 137.097L66.7841 173.521V265.191L146.17 311.026L225.563 265.191V173.521L146.17 127.68L136.636 133.186"
    fill="white" />
  <path
    d="M129.866 137.097L66.7841 173.521V265.191L146.17 311.026L225.563 265.191V173.521L146.17 127.68L136.636 133.186"
    stroke="black" stroke-miterlimit="10" />
  <path d="M146.171 311.027L225.564 265.192V173.522L146.171 219.371V311.027Z" fill="#43A1FF" />
  <path d="M146.171 219.371L66.8671 173.522" stroke="black" stroke-miterlimit="10" />
  <path d="M146.171 219.371L225.571 173.522" stroke="black" stroke-miterlimit="10" />
  <path d="M146.171 219.371V311.027" stroke="black" stroke-miterlimit="10" />
  <path
    d="M145.958 162.702C139.27 159.072 128.251 159.265 120.978 163.087C113.493 167.053 112.516 173.555 119.177 177.618C124.353 180.766 132.726 181.529 139.998 179.495L160.475 196.432L168.428 191.29L177.619 185.317L149.374 173.995C152.57 170.002 151.141 165.499 145.958 162.702Z"
    fill="black" />
  <path
    d="M150.012 85H116.523C112.319 85.243 108.368 87.0841 105.478 90.1461C102.588 93.2081 100.978 97.2592 100.978 101.47C100.978 105.68 102.588 109.731 105.478 112.794C108.368 115.856 112.319 117.697 116.523 117.94H129.865V169.205C130.305 169.741 131.24 170.367 133.254 170.367C135.268 170.367 136.251 169.679 136.636 169.26V117.94H150.012C154.216 117.697 158.168 115.856 161.058 112.794C163.948 109.731 165.558 105.68 165.558 101.47C165.558 97.2592 163.948 93.2081 161.058 90.1461C158.168 87.0841 154.216 85.243 150.012 85V85ZM147.888 110.914H118.654C113.079 110.914 108.549 106.673 108.549 101.47C108.549 96.2663 113.079 92.0251 118.654 92.0251H147.854C153.422 92.0251 157.952 96.2594 157.952 101.47C157.952 106.68 153.449 110.914 147.854 110.914H147.888Z"
    fill="white" stroke="black" stroke-miterlimit="10" />
</svg>