<svg width="100%" height="100%" viewBox="0 0 360 395" fill="none" xmlns="http://www.w3.org/2000/svg">
  <path d="M0.5 350.586H359.5V393.586H0.5V350.586Z" fill="#F1F3F4" stroke="black" />
  <path
    d="M58.351 377.4V372.342C58.351 371.52 58.153 370.896 57.757 370.47C57.367 370.038 56.839 369.822 56.173 369.822C55.393 369.822 54.796 370.125 54.382 370.731C53.968 371.331 53.761 372.162 53.761 373.224H53.113C53.113 372.45 53.188 371.772 53.338 371.19C53.494 370.608 53.719 370.125 54.013 369.741C54.307 369.351 54.664 369.06 55.084 368.868C55.504 368.676 55.981 368.58 56.515 368.58C57.193 368.58 57.772 368.733 58.252 369.039C58.738 369.339 59.11 369.771 59.368 370.335C59.626 370.899 59.755 371.568 59.755 372.342V377.4H58.351ZM46.255 377.4V368.796H47.461L47.623 370.524C47.893 369.9 48.271 369.42 48.757 369.084C49.249 368.748 49.837 368.58 50.521 368.58C51.199 368.58 51.778 368.733 52.258 369.039C52.744 369.339 53.116 369.771 53.374 370.335C53.632 370.899 53.761 371.568 53.761 372.342V377.4H52.375V372.342C52.375 371.52 52.177 370.896 51.781 370.47C51.391 370.038 50.857 369.822 50.179 369.822C49.663 369.822 49.216 369.963 48.838 370.245C48.46 370.527 48.169 370.932 47.965 371.46C47.761 371.982 47.659 372.606 47.659 373.332V377.4H46.255ZM61.6729 368.796H63.2389L66.0469 376.176H65.7229L67.9009 368.796H69.3409L66.1009 379.128C65.8309 379.992 65.4709 380.658 65.0209 381.126C64.5709 381.594 63.9949 381.828 63.2929 381.828C62.9149 381.828 62.5549 381.774 62.2129 381.666C61.8769 381.558 61.5289 381.402 61.1689 381.198V379.902C61.4869 380.154 61.7929 380.334 62.0869 380.442C62.3869 380.55 62.6989 380.604 63.0229 380.604C63.3829 380.604 63.6829 380.49 63.9229 380.262C64.1689 380.034 64.3729 379.74 64.5349 379.38C64.6969 379.026 64.8349 378.654 64.9489 378.264L65.2009 377.4L61.6729 368.796ZM76.8076 377.4L76.6276 375.51V371.82C76.6276 371.046 76.4626 370.491 76.1326 370.155C75.8026 369.813 75.3076 369.642 74.6476 369.642C74.2756 369.642 73.9366 369.696 73.6306 369.804C73.3306 369.912 73.0906 370.08 72.9106 370.308C72.7366 370.53 72.6496 370.818 72.6496 371.172H71.0836C71.0836 370.548 71.2366 370.047 71.5426 369.669C71.8486 369.285 72.2686 369.009 72.8026 368.841C73.3426 368.667 73.9576 368.58 74.6476 368.58C75.3076 368.58 75.8926 368.691 76.4026 368.913C76.9126 369.135 77.3116 369.489 77.5996 369.975C77.8876 370.455 78.0316 371.082 78.0316 371.856V377.4H76.8076ZM73.8736 377.616C73.1656 377.616 72.5806 377.49 72.1186 377.238C71.6566 376.986 71.3116 376.659 71.0836 376.257C70.8556 375.855 70.7416 375.432 70.7416 374.988C70.7416 374.406 70.8856 373.932 71.1736 373.566C71.4676 373.2 71.8666 372.933 72.3706 372.765C72.8746 372.591 73.4416 372.504 74.0716 372.504C74.5216 372.504 74.9716 372.549 75.4216 372.639C75.8776 372.729 76.3216 372.852 76.7536 373.008V373.89C76.3936 373.746 75.9856 373.632 75.5296 373.548C75.0796 373.464 74.6656 373.422 74.2876 373.422C73.7116 373.422 73.2256 373.542 72.8296 373.782C72.4336 374.016 72.2356 374.418 72.2356 374.988C72.2356 375.408 72.3856 375.768 72.6856 376.068C72.9916 376.368 73.4776 376.518 74.1436 376.518C74.6116 376.518 75.0316 376.41 75.4036 376.194C75.7816 375.972 76.0786 375.696 76.2946 375.366C76.5166 375.036 76.6276 374.706 76.6276 374.376H76.9696C76.9696 374.952 76.8436 375.486 76.5916 375.978C76.3456 376.47 75.9916 376.866 75.5296 377.166C75.0676 377.466 74.5156 377.616 73.8736 377.616ZM84.4897 377.616C83.6557 377.616 82.9597 377.499 82.4017 377.265C81.8437 377.025 81.4207 376.698 81.1327 376.284C80.8447 375.864 80.6917 375.384 80.6737 374.844H82.0237C82.0537 375.39 82.2727 375.801 82.6807 376.077C83.0947 376.347 83.6557 376.482 84.3637 376.482C84.7357 376.482 85.0777 376.422 85.3897 376.302C85.7017 376.182 85.9507 376.017 86.1367 375.807C86.3227 375.597 86.4157 375.36 86.4157 375.096C86.4157 374.76 86.2927 374.496 86.0467 374.304C85.8007 374.112 85.4077 373.944 84.8677 373.8L83.1937 373.26C82.4677 373.032 81.9097 372.72 81.5197 372.324C81.1357 371.922 80.9437 371.442 80.9437 370.884C80.9437 370.188 81.2497 369.63 81.8617 369.21C82.4737 368.79 83.2777 368.58 84.2737 368.58C85.3297 368.58 86.1487 368.796 86.7307 369.228C87.3127 369.66 87.6157 370.2 87.6397 370.848H86.2537C86.1997 370.47 86.0077 370.185 85.6777 369.993C85.3477 369.795 84.8797 369.696 84.2737 369.696C83.6917 369.696 83.2357 369.828 82.9057 370.092C82.5817 370.35 82.4197 370.638 82.4197 370.956C82.4197 371.55 82.9297 371.988 83.9497 372.27L85.6597 372.846C86.3977 373.068 86.9617 373.359 87.3517 373.719C87.7477 374.079 87.9457 374.538 87.9457 375.096C87.9457 375.528 87.8047 375.936 87.5227 376.32C87.2407 376.704 86.8417 377.016 86.3257 377.256C85.8097 377.496 85.1977 377.616 84.4897 377.616ZM93.9467 377.616C93.1127 377.616 92.4167 377.499 91.8587 377.265C91.3007 377.025 90.8777 376.698 90.5897 376.284C90.3017 375.864 90.1487 375.384 90.1307 374.844H91.4807C91.5107 375.39 91.7297 375.801 92.1377 376.077C92.5517 376.347 93.1127 376.482 93.8207 376.482C94.1927 376.482 94.5347 376.422 94.8467 376.302C95.1587 376.182 95.4077 376.017 95.5937 375.807C95.7797 375.597 95.8727 375.36 95.8727 375.096C95.8727 374.76 95.7497 374.496 95.5037 374.304C95.2577 374.112 94.8647 373.944 94.3247 373.8L92.6507 373.26C91.9247 373.032 91.3667 372.72 90.9767 372.324C90.5927 371.922 90.4007 371.442 90.4007 370.884C90.4007 370.188 90.7067 369.63 91.3187 369.21C91.9307 368.79 92.7347 368.58 93.7307 368.58C94.7867 368.58 95.6057 368.796 96.1877 369.228C96.7697 369.66 97.0727 370.2 97.0967 370.848H95.7107C95.6567 370.47 95.4647 370.185 95.1347 369.993C94.8047 369.795 94.3367 369.696 93.7307 369.696C93.1487 369.696 92.6927 369.828 92.3627 370.092C92.0387 370.35 91.8767 370.638 91.8767 370.956C91.8767 371.55 92.3867 371.988 93.4067 372.27L95.1167 372.846C95.8547 373.068 96.4187 373.359 96.8087 373.719C97.2047 374.079 97.4027 374.538 97.4027 375.096C97.4027 375.528 97.2617 375.936 96.9797 376.32C96.6977 376.704 96.2987 377.016 95.7827 377.256C95.2667 377.496 94.6547 377.616 93.9467 377.616ZM103.296 377.616C102.552 377.616 101.886 377.427 101.298 377.049C100.716 376.665 100.254 376.134 99.9117 375.456C99.5757 374.778 99.4077 373.998 99.4077 373.116C99.4077 372.174 99.5757 371.364 99.9117 370.686C100.248 370.008 100.707 369.489 101.289 369.129C101.877 368.763 102.546 368.58 103.296 368.58C103.95 368.58 104.508 368.712 104.97 368.976C105.432 369.24 105.804 369.597 106.086 370.047C106.368 370.497 106.563 371.007 106.671 371.577C106.785 372.141 106.818 372.726 106.77 373.332H100.542V372.468H105.843L105.429 372.738C105.447 372.384 105.426 372.03 105.366 371.676C105.312 371.322 105.207 370.998 105.051 370.704C104.895 370.404 104.676 370.164 104.394 369.984C104.112 369.804 103.752 369.714 103.314 369.714C102.762 369.714 102.3 369.855 101.928 370.137C101.556 370.419 101.277 370.791 101.091 371.253C100.905 371.709 100.812 372.204 100.812 372.738V373.314C100.812 373.914 100.902 374.451 101.082 374.925C101.268 375.399 101.544 375.774 101.91 376.05C102.276 376.326 102.738 376.464 103.296 376.464C103.854 376.464 104.313 376.329 104.673 376.059C105.033 375.789 105.252 375.39 105.33 374.862H106.788C106.698 375.432 106.494 375.924 106.176 376.338C105.858 376.746 105.453 377.061 104.961 377.283C104.469 377.505 103.914 377.616 103.296 377.616ZM112.2 377.616C111.732 377.616 111.312 377.526 110.94 377.346C110.568 377.166 110.274 376.896 110.058 376.536C109.842 376.176 109.734 375.726 109.734 375.186V366.402H111.12V375.15C111.12 376.038 111.534 376.482 112.362 376.482C112.608 376.482 112.845 376.455 113.073 376.401C113.307 376.347 113.568 376.266 113.856 376.158L114.054 377.166C113.748 377.298 113.442 377.406 113.136 377.49C112.836 377.574 112.524 377.616 112.2 377.616ZM108.348 369.768V368.796H113.838V369.768H108.348ZM119.417 377.616C118.583 377.616 117.887 377.499 117.329 377.265C116.771 377.025 116.348 376.698 116.06 376.284C115.772 375.864 115.619 375.384 115.601 374.844H116.951C116.981 375.39 117.2 375.801 117.608 376.077C118.022 376.347 118.583 376.482 119.291 376.482C119.663 376.482 120.005 376.422 120.317 376.302C120.629 376.182 120.878 376.017 121.064 375.807C121.25 375.597 121.343 375.36 121.343 375.096C121.343 374.76 121.22 374.496 120.974 374.304C120.728 374.112 120.335 373.944 119.795 373.8L118.121 373.26C117.395 373.032 116.837 372.72 116.447 372.324C116.063 371.922 115.871 371.442 115.871 370.884C115.871 370.188 116.177 369.63 116.789 369.21C117.401 368.79 118.205 368.58 119.201 368.58C120.257 368.58 121.076 368.796 121.658 369.228C122.24 369.66 122.543 370.2 122.567 370.848H121.181C121.127 370.47 120.935 370.185 120.605 369.993C120.275 369.795 119.807 369.696 119.201 369.696C118.619 369.696 118.163 369.828 117.833 370.092C117.509 370.35 117.347 370.638 117.347 370.956C117.347 371.55 117.857 371.988 118.877 372.27L120.587 372.846C121.325 373.068 121.889 373.359 122.279 373.719C122.675 374.079 122.873 374.538 122.873 375.096C122.873 375.528 122.732 375.936 122.45 376.32C122.168 376.704 121.769 377.016 121.253 377.256C120.737 377.496 120.125 377.616 119.417 377.616ZM124.5 376.563C124.5 376.281 124.599 376.038 124.797 375.834C124.995 375.63 125.244 375.528 125.544 375.528C125.844 375.528 126.099 375.63 126.309 375.834C126.519 376.038 126.624 376.281 126.624 376.563C126.624 376.845 126.519 377.082 126.309 377.274C126.099 377.466 125.844 377.562 125.544 377.562C125.244 377.562 124.995 377.466 124.797 377.274C124.599 377.076 124.5 376.839 124.5 376.563ZM135.115 377.4V372.342C135.115 371.52 134.917 370.896 134.521 370.47C134.131 370.038 133.597 369.822 132.919 369.822C132.403 369.822 131.956 369.963 131.578 370.245C131.2 370.527 130.909 370.932 130.705 371.46C130.501 371.982 130.399 372.606 130.399 373.332H129.859C129.859 372.33 129.991 371.475 130.255 370.767C130.519 370.059 130.903 369.519 131.407 369.147C131.917 368.769 132.535 368.58 133.261 368.58C133.939 368.58 134.518 368.733 134.998 369.039C135.484 369.339 135.856 369.771 136.114 370.335C136.372 370.899 136.501 371.568 136.501 372.342V377.4H135.115ZM128.995 377.4V368.796H130.201L130.399 370.776V377.4H128.995ZM140.327 377.4V367.464C140.327 366.894 140.435 366.429 140.651 366.069C140.873 365.703 141.167 365.433 141.533 365.259C141.905 365.085 142.319 364.998 142.775 364.998C143.021 364.998 143.27 365.016 143.522 365.052C143.78 365.088 144.035 365.142 144.287 365.214L144.017 366.33C143.837 366.258 143.657 366.204 143.477 366.168C143.303 366.132 143.135 366.114 142.973 366.114C142.781 366.114 142.589 366.15 142.397 366.222C142.205 366.294 142.046 366.429 141.92 366.627C141.794 366.825 141.731 367.11 141.731 367.482V377.4H140.327ZM138.923 369.768V368.796H143.513V369.768H138.923ZM148.674 377.616C148.206 377.616 147.786 377.526 147.414 377.346C147.042 377.166 146.748 376.896 146.532 376.536C146.316 376.176 146.208 375.726 146.208 375.186V366.402H147.594V375.15C147.594 376.038 148.008 376.482 148.836 376.482C149.082 376.482 149.319 376.455 149.547 376.401C149.781 376.347 150.042 376.266 150.33 376.158L150.528 377.166C150.222 377.298 149.916 377.406 149.61 377.49C149.31 377.574 148.998 377.616 148.674 377.616ZM144.822 369.768V368.796H150.312V369.768H144.822ZM152.004 378.696L156.522 364.242H157.962L153.408 378.696H152.004Z"
    fill="#1A1A1A" />
  <path
    d="M32.9256 370.649H22.278C21.7352 370.649 21.2952 371.093 21.2952 371.64V379.04C21.2952 379.587 21.7352 380.03 22.278 380.03H32.9256C33.4684 380.03 33.9085 379.587 33.9085 379.04V371.64C33.9085 371.093 33.4684 370.649 32.9256 370.649Z"
    fill="#1A1A1A" />
  <path fill-rule="evenodd" clip-rule="evenodd"
    d="M28.2944 375.542C28.5268 375.395 28.7054 375.176 28.8032 374.917C28.9011 374.658 28.9129 374.375 28.8368 374.109C28.7607 373.843 28.601 373.609 28.3816 373.443C28.1622 373.276 27.8951 373.187 27.6205 373.187C27.346 373.187 27.0789 373.276 26.8595 373.443C26.6401 373.609 26.4803 373.843 26.4043 374.109C26.3282 374.375 26.34 374.658 26.4378 374.917C26.5357 375.176 26.7143 375.395 26.9467 375.542L26.5074 377.501H28.7411L28.2944 375.542Z"
    fill="#E8E8E8" />
  <path
    d="M32.7096 370.649V367.205C32.7096 365.914 31.965 364.871 30.8407 364.871H24.2437C23.1119 364.871 22.3748 365.914 22.3748 367.205V370.649"
    stroke="#1A1A1A" stroke-width="1.3" stroke-miterlimit="10" />
  <path
    d="M347.774 368.848C346.798 369.599 344.796 371.1 341.75 373.486C342.008 374.297 342.383 375.517 342.875 377.148C343.373 378.777 343.738 379.993 343.984 380.796L337.737 376.473C337.772 376.473 335.699 377.914 331.52 380.796C332.954 376.078 333.674 373.659 333.679 373.539C333.679 373.539 331.654 371.978 327.618 368.893L334.52 368.721H335.198C335.704 367.22 336.538 364.848 337.677 361.509C338.67 364.315 339.509 366.707 340.194 368.683C340.341 368.718 340.49 368.743 340.641 368.758C342.391 368.758 344.743 368.796 347.774 368.848Z"
    fill="#0080FF" />
  <path d="M61.5 84.4334L183 14.663L304.5 84.4334V224.739L183 294.51L61.5 224.739V84.4334Z" stroke="black" />
  <g clip-path="url(#clip0--myassets)">
    <path opacity="0.5" d="M196.662 21.5913L69.8203 99.7094V226.458L196.662 148.34V21.5913Z" fill="white" />
    <path opacity="0.75" d="M243.561 51.8341L116.719 129.952V256.701L243.561 178.583V51.8341Z" fill="white" />
    <path d="M290.468 82.0771L163.626 160.188V286.937L290.468 208.826V82.0771Z" fill="white" />
    <path d="M182.672 120.702V0.434021" stroke="black" stroke-miterlimit="10" />
    <path d="M315.97 231.143V197.608L182.672 120.702L49.374 197.608V231.143L182.672 308.049L315.97 231.143Z"
      stroke="black" stroke-miterlimit="10" />
    <path opacity="0.5"
      d="M196.662 26.9622C196.662 24.6148 194.088 23.1768 192.089 24.4078L71.2471 98.8306C70.3604 99.3767 69.8203 100.344 69.8203 101.385V221.088C69.8203 223.435 72.3947 224.873 74.3935 223.642L195.235 149.219C196.122 148.673 196.662 147.706 196.662 146.665V26.9622Z"
      fill="url(#paint0_radial--myassets)" />
    <path opacity="0.75"
      d="M243.561 57.205C243.561 54.8576 240.987 53.4196 238.988 54.6506L118.146 129.073C117.26 129.62 116.719 130.586 116.719 131.628V251.33C116.719 253.678 119.294 255.116 121.293 253.885L242.135 179.462C243.021 178.916 243.561 177.949 243.561 176.908V57.205Z"
      fill="url(#paint1_radial--myassets)" />
    <path
      d="M290.468 87.4477C290.468 85.1003 287.894 83.6623 285.895 84.8932L165.053 159.309C164.166 159.855 163.626 160.822 163.626 161.863V281.566C163.626 283.913 166.2 285.351 168.199 284.121L289.041 209.705C289.928 209.159 290.468 208.192 290.468 207.15V87.4477Z"
      fill="url(#paint2_radial--myassets)" />
    <path d="M315.977 197.608V110.875" stroke="black" stroke-miterlimit="10" />
    <path d="M49.374 197.608V110.875" stroke="black" stroke-miterlimit="10" />
    <path d="M182.672 187.781V308.049" stroke="black" stroke-miterlimit="10" />
    <path d="M315.97 110.875V77.3397L182.672 0.434021L49.374 77.3397V110.875L182.672 187.781L315.97 110.875Z"
      stroke="black" stroke-miterlimit="10" />
  </g>
  <path d="M238.986 216.334L252.802 228.115L256.498 231.118L259.761 227.678L298.724 187.049" stroke="#50E6D9"
    stroke-opacity="0.7" stroke-width="13" stroke-miterlimit="10" stroke-linecap="square" />
  <path d="M255.634 216.355L269.69 228.109L273.447 231.118L276.75 227.658L316.352 187.049" stroke="#28B3EC"
    stroke-opacity="0.9" stroke-width="13" stroke-miterlimit="10" stroke-linecap="square" />
  <path d="M273.262 216.334L287.078 228.115L290.774 231.118L294.037 227.678L333 187.049" stroke="#0067CE"
    stroke-width="13" stroke-miterlimit="10" stroke-linecap="square" />
  <g opacity="0.2">
    <path d="M183.5 258.503L200.584 248.663L217.668 258.503V278.291L200.584 288.131L183.5 278.291V258.503Z"
      fill="#DEFFFA" stroke="black" />
  </g>
  <g opacity="0.3">
    <path d="M197.427 258.503L214.512 248.663L231.596 258.503V278.291L214.512 288.131L197.427 278.291V258.503Z"
      fill="#DEFFFA" stroke="black" />
  </g>
  <g opacity="0.4">
    <path d="M211.355 258.503L228.439 248.663L245.523 258.503V278.291L228.439 288.131L211.355 278.291V258.503Z"
      fill="#DEFFFA" stroke="black" />
  </g>
  <g opacity="0.5">
    <path d="M225.282 258.503L242.366 248.663L259.451 258.503V278.291L242.366 288.131L225.282 278.291V258.503Z"
      fill="#DEFFFA" stroke="black" />
  </g>
  <path d="M239.21 258.503L256.294 248.663L273.378 258.503V278.291L256.294 288.131L239.21 278.291V258.503Z"
    fill="#DEFFFA" stroke="black" />
  <path d="M253.137 258.503L270.221 248.663L287.306 258.503V278.291L270.221 288.131L253.137 278.291V258.503Z"
    fill="#DEFFFA" stroke="black" />
  <mask id="path-29-outside-1" maskUnits="userSpaceOnUse" x="297.14" y="249.149" width="40" height="40" fill="black">
    <rect fill="white" x="297.14" y="249.149" width="40" height="40" />
    <path fill-rule="evenodd" clip-rule="evenodd"
      d="M309.025 266.889C309.025 267.366 309.068 267.843 309.155 268.32C309.199 268.711 309.285 269.101 309.415 269.448L303.387 275.433C302.954 275.866 302.607 276.387 302.39 276.907C302.173 277.471 302.043 278.078 302.043 278.685C302.043 279.292 302.173 279.9 302.39 280.463C302.607 281.027 302.954 281.504 303.387 281.938L303.431 281.981C303.864 282.415 304.385 282.719 304.905 282.935C305.469 283.152 306.076 283.282 306.683 283.282C307.29 283.282 307.897 283.152 308.461 282.935C309.025 282.719 309.502 282.372 309.936 281.938L318.219 273.655C318.653 273.221 319 272.7 319.217 272.18V272.137C319.433 271.573 319.564 271.009 319.564 270.402C319.564 269.795 319.433 269.188 319.217 268.624C319 268.06 318.653 267.583 318.219 267.149C317.785 266.716 317.265 266.369 316.745 266.152C316.181 265.935 315.574 265.805 315.01 265.805C315.053 265.588 315.14 265.415 315.227 265.198C315.4 264.851 315.617 264.504 315.921 264.244L315.964 264.2L317.829 262.335C318.393 262.509 318.913 262.769 319.433 263.073C319.997 263.42 320.561 263.853 321.038 264.33C321.862 265.154 322.469 266.065 322.903 267.106C322.99 267.323 323.076 267.54 323.163 267.8V267.843C323.293 268.277 323.38 268.667 323.467 269.101C323.51 269.535 323.553 269.968 323.553 270.402C323.553 271.53 323.337 272.614 322.903 273.698C322.469 274.695 321.862 275.649 321.038 276.473L312.798 284.713L312.755 284.757C311.931 285.581 311.02 286.188 310.023 286.578C308.982 287.012 307.854 287.229 306.727 287.229C305.599 287.229 304.471 287.012 303.431 286.578C302.433 286.188 301.479 285.537 300.655 284.713C299.831 283.889 299.224 282.979 298.79 281.938C298.356 280.897 298.14 279.769 298.14 278.642C298.14 277.514 298.356 276.387 298.79 275.346C299.224 274.348 299.831 273.394 300.655 272.57L300.698 272.527L308.938 264.287C309.155 264.07 309.372 263.897 309.589 263.68C309.502 263.897 309.459 264.157 309.372 264.374C309.285 264.634 309.242 264.938 309.199 265.198V265.241V265.284V265.328V265.371V265.415V265.458C309.025 266.022 309.025 266.455 309.025 266.889ZM324.377 270.445C324.377 269.968 324.334 269.491 324.247 269.014C324.204 268.624 324.117 268.234 323.987 267.887L329.929 261.945C330.362 261.511 330.709 260.991 330.926 260.471C331.143 259.907 331.273 259.3 331.273 258.693C331.273 258.085 331.143 257.478 330.926 256.914C330.709 256.351 330.362 255.874 329.929 255.44L329.885 255.397C329.452 254.963 328.931 254.659 328.411 254.442C327.847 254.226 327.24 254.095 326.633 254.095C326.025 254.095 325.418 254.226 324.854 254.442C324.291 254.659 323.814 255.006 323.38 255.44L315.14 263.68C314.706 264.114 314.359 264.634 314.143 265.154V265.198C313.926 265.762 313.796 266.325 313.796 266.932C313.796 267.54 313.926 268.147 314.143 268.711C314.359 269.274 314.706 269.751 315.14 270.185C315.574 270.619 316.094 270.966 316.615 271.183C317.178 271.399 317.785 271.53 318.349 271.53C318.306 271.746 318.219 271.92 318.132 272.137C317.959 272.484 317.742 272.831 317.439 273.134L317.395 273.177L315.53 275.042C314.967 274.869 314.446 274.609 313.926 274.305C313.362 273.958 312.798 273.524 312.321 273.047C311.497 272.223 310.89 271.313 310.456 270.272C310.369 270.055 310.283 269.838 310.196 269.578V269.535C310.066 269.101 309.979 268.711 309.892 268.277C309.849 267.843 309.806 267.41 309.806 266.976C309.806 265.848 310.023 264.721 310.456 263.68C310.847 262.682 311.497 261.728 312.321 260.904L320.561 252.664L320.604 252.621C321.428 251.797 322.339 251.19 323.337 250.799C324.377 250.366 325.505 250.149 326.633 250.149C327.76 250.149 328.888 250.366 329.929 250.799C330.926 251.233 331.88 251.84 332.704 252.664C333.528 253.488 334.135 254.442 334.569 255.44C335.003 256.481 335.219 257.608 335.219 258.736C335.219 259.863 335.003 260.991 334.569 262.032C334.135 263.029 333.528 263.983 332.704 264.807L332.747 264.721L324.551 272.917C324.334 273.134 324.117 273.308 323.9 273.524C323.987 273.308 324.074 273.047 324.117 272.831C324.204 272.527 324.247 272.223 324.291 271.92V271.876V271.833V271.79V271.746C324.377 271.313 324.377 270.879 324.377 270.445Z" />
  </mask>
  <path fill-rule="evenodd" clip-rule="evenodd"
    d="M309.025 266.889C309.025 267.366 309.068 267.843 309.155 268.32C309.199 268.711 309.285 269.101 309.415 269.448L303.387 275.433C302.954 275.866 302.607 276.387 302.39 276.907C302.173 277.471 302.043 278.078 302.043 278.685C302.043 279.292 302.173 279.9 302.39 280.463C302.607 281.027 302.954 281.504 303.387 281.938L303.431 281.981C303.864 282.415 304.385 282.719 304.905 282.935C305.469 283.152 306.076 283.282 306.683 283.282C307.29 283.282 307.897 283.152 308.461 282.935C309.025 282.719 309.502 282.372 309.936 281.938L318.219 273.655C318.653 273.221 319 272.7 319.217 272.18V272.137C319.433 271.573 319.564 271.009 319.564 270.402C319.564 269.795 319.433 269.188 319.217 268.624C319 268.06 318.653 267.583 318.219 267.149C317.785 266.716 317.265 266.369 316.745 266.152C316.181 265.935 315.574 265.805 315.01 265.805C315.053 265.588 315.14 265.415 315.227 265.198C315.4 264.851 315.617 264.504 315.921 264.244L315.964 264.2L317.829 262.335C318.393 262.509 318.913 262.769 319.433 263.073C319.997 263.42 320.561 263.853 321.038 264.33C321.862 265.154 322.469 266.065 322.903 267.106C322.99 267.323 323.076 267.54 323.163 267.8V267.843C323.293 268.277 323.38 268.667 323.467 269.101C323.51 269.535 323.553 269.968 323.553 270.402C323.553 271.53 323.337 272.614 322.903 273.698C322.469 274.695 321.862 275.649 321.038 276.473L312.798 284.713L312.755 284.757C311.931 285.581 311.02 286.188 310.023 286.578C308.982 287.012 307.854 287.229 306.727 287.229C305.599 287.229 304.471 287.012 303.431 286.578C302.433 286.188 301.479 285.537 300.655 284.713C299.831 283.889 299.224 282.979 298.79 281.938C298.356 280.897 298.14 279.769 298.14 278.642C298.14 277.514 298.356 276.387 298.79 275.346C299.224 274.348 299.831 273.394 300.655 272.57L300.698 272.527L308.938 264.287C309.155 264.07 309.372 263.897 309.589 263.68C309.502 263.897 309.459 264.157 309.372 264.374C309.285 264.634 309.242 264.938 309.199 265.198V265.241V265.284V265.328V265.371V265.415V265.458C309.025 266.022 309.025 266.455 309.025 266.889ZM324.377 270.445C324.377 269.968 324.334 269.491 324.247 269.014C324.204 268.624 324.117 268.234 323.987 267.887L329.929 261.945C330.362 261.511 330.709 260.991 330.926 260.471C331.143 259.907 331.273 259.3 331.273 258.693C331.273 258.085 331.143 257.478 330.926 256.914C330.709 256.351 330.362 255.874 329.929 255.44L329.885 255.397C329.452 254.963 328.931 254.659 328.411 254.442C327.847 254.226 327.24 254.095 326.633 254.095C326.025 254.095 325.418 254.226 324.854 254.442C324.291 254.659 323.814 255.006 323.38 255.44L315.14 263.68C314.706 264.114 314.359 264.634 314.143 265.154V265.198C313.926 265.762 313.796 266.325 313.796 266.932C313.796 267.54 313.926 268.147 314.143 268.711C314.359 269.274 314.706 269.751 315.14 270.185C315.574 270.619 316.094 270.966 316.615 271.183C317.178 271.399 317.785 271.53 318.349 271.53C318.306 271.746 318.219 271.92 318.132 272.137C317.959 272.484 317.742 272.831 317.439 273.134L317.395 273.177L315.53 275.042C314.967 274.869 314.446 274.609 313.926 274.305C313.362 273.958 312.798 273.524 312.321 273.047C311.497 272.223 310.89 271.313 310.456 270.272C310.369 270.055 310.283 269.838 310.196 269.578V269.535C310.066 269.101 309.979 268.711 309.892 268.277C309.849 267.843 309.806 267.41 309.806 266.976C309.806 265.848 310.023 264.721 310.456 263.68C310.847 262.682 311.497 261.728 312.321 260.904L320.561 252.664L320.604 252.621C321.428 251.797 322.339 251.19 323.337 250.799C324.377 250.366 325.505 250.149 326.633 250.149C327.76 250.149 328.888 250.366 329.929 250.799C330.926 251.233 331.88 251.84 332.704 252.664C333.528 253.488 334.135 254.442 334.569 255.44C335.003 256.481 335.219 257.608 335.219 258.736C335.219 259.863 335.003 260.991 334.569 262.032C334.135 263.029 333.528 263.983 332.704 264.807L332.747 264.721L324.551 272.917C324.334 273.134 324.117 273.308 323.9 273.524C323.987 273.308 324.074 273.047 324.117 272.831C324.204 272.527 324.247 272.223 324.291 271.92V271.876V271.833V271.79V271.746C324.377 271.313 324.377 270.879 324.377 270.445Z"
    fill="#DEFFFA" />
  <path fill-rule="evenodd" clip-rule="evenodd"
    d="M309.025 266.889C309.025 267.366 309.068 267.843 309.155 268.32C309.199 268.711 309.285 269.101 309.415 269.448L303.387 275.433C302.954 275.866 302.607 276.387 302.39 276.907C302.173 277.471 302.043 278.078 302.043 278.685C302.043 279.292 302.173 279.9 302.39 280.463C302.607 281.027 302.954 281.504 303.387 281.938L303.431 281.981C303.864 282.415 304.385 282.719 304.905 282.935C305.469 283.152 306.076 283.282 306.683 283.282C307.29 283.282 307.897 283.152 308.461 282.935C309.025 282.719 309.502 282.372 309.936 281.938L318.219 273.655C318.653 273.221 319 272.7 319.217 272.18V272.137C319.433 271.573 319.564 271.009 319.564 270.402C319.564 269.795 319.433 269.188 319.217 268.624C319 268.06 318.653 267.583 318.219 267.149C317.785 266.716 317.265 266.369 316.745 266.152C316.181 265.935 315.574 265.805 315.01 265.805C315.053 265.588 315.14 265.415 315.227 265.198C315.4 264.851 315.617 264.504 315.921 264.244L315.964 264.2L317.829 262.335C318.393 262.509 318.913 262.769 319.433 263.073C319.997 263.42 320.561 263.853 321.038 264.33C321.862 265.154 322.469 266.065 322.903 267.106C322.99 267.323 323.076 267.54 323.163 267.8V267.843C323.293 268.277 323.38 268.667 323.467 269.101C323.51 269.535 323.553 269.968 323.553 270.402C323.553 271.53 323.337 272.614 322.903 273.698C322.469 274.695 321.862 275.649 321.038 276.473L312.798 284.713L312.755 284.757C311.931 285.581 311.02 286.188 310.023 286.578C308.982 287.012 307.854 287.229 306.727 287.229C305.599 287.229 304.471 287.012 303.431 286.578C302.433 286.188 301.479 285.537 300.655 284.713C299.831 283.889 299.224 282.979 298.79 281.938C298.356 280.897 298.14 279.769 298.14 278.642C298.14 277.514 298.356 276.387 298.79 275.346C299.224 274.348 299.831 273.394 300.655 272.57L300.698 272.527L308.938 264.287C309.155 264.07 309.372 263.897 309.589 263.68C309.502 263.897 309.459 264.157 309.372 264.374C309.285 264.634 309.242 264.938 309.199 265.198V265.241V265.284V265.328V265.371V265.415V265.458C309.025 266.022 309.025 266.455 309.025 266.889ZM324.377 270.445C324.377 269.968 324.334 269.491 324.247 269.014C324.204 268.624 324.117 268.234 323.987 267.887L329.929 261.945C330.362 261.511 330.709 260.991 330.926 260.471C331.143 259.907 331.273 259.3 331.273 258.693C331.273 258.085 331.143 257.478 330.926 256.914C330.709 256.351 330.362 255.874 329.929 255.44L329.885 255.397C329.452 254.963 328.931 254.659 328.411 254.442C327.847 254.226 327.24 254.095 326.633 254.095C326.025 254.095 325.418 254.226 324.854 254.442C324.291 254.659 323.814 255.006 323.38 255.44L315.14 263.68C314.706 264.114 314.359 264.634 314.143 265.154V265.198C313.926 265.762 313.796 266.325 313.796 266.932C313.796 267.54 313.926 268.147 314.143 268.711C314.359 269.274 314.706 269.751 315.14 270.185C315.574 270.619 316.094 270.966 316.615 271.183C317.178 271.399 317.785 271.53 318.349 271.53C318.306 271.746 318.219 271.92 318.132 272.137C317.959 272.484 317.742 272.831 317.439 273.134L317.395 273.177L315.53 275.042C314.967 274.869 314.446 274.609 313.926 274.305C313.362 273.958 312.798 273.524 312.321 273.047C311.497 272.223 310.89 271.313 310.456 270.272C310.369 270.055 310.283 269.838 310.196 269.578V269.535C310.066 269.101 309.979 268.711 309.892 268.277C309.849 267.843 309.806 267.41 309.806 266.976C309.806 265.848 310.023 264.721 310.456 263.68C310.847 262.682 311.497 261.728 312.321 260.904L320.561 252.664L320.604 252.621C321.428 251.797 322.339 251.19 323.337 250.799C324.377 250.366 325.505 250.149 326.633 250.149C327.76 250.149 328.888 250.366 329.929 250.799C330.926 251.233 331.88 251.84 332.704 252.664C333.528 253.488 334.135 254.442 334.569 255.44C335.003 256.481 335.219 257.608 335.219 258.736C335.219 259.863 335.003 260.991 334.569 262.032C334.135 263.029 333.528 263.983 332.704 264.807L332.747 264.721L324.551 272.917C324.334 273.134 324.117 273.308 323.9 273.524C323.987 273.308 324.074 273.047 324.117 272.831C324.204 272.527 324.247 272.223 324.291 271.92V271.876V271.833V271.79V271.746C324.377 271.313 324.377 270.879 324.377 270.445Z"
    stroke="black" stroke-width="2" stroke-miterlimit="10" stroke-linecap="round" stroke-linejoin="round"
    mask="url(#path-29-outside-1)" />
  <circle cx="291.398" cy="268.222" r="18.8189" fill="#DEFFFA" stroke="black" />
  <line x1="291.275" y1="258.251" x2="291.275" y2="277.57" stroke="black" />
  <line x1="281.427" y1="267.098" x2="300.745" y2="267.098" stroke="black" />
  <defs>
    <radialGradient id="paint0_radial--myassets" cx="0" cy="0" r="1" gradientUnits="userSpaceOnUse"
      gradientTransform="translate(133.241 123.712) rotate(-31.7801) scale(126.843 91.5933)">
      <stop stop-color="#E6E6E6" />
      <stop offset="0.13" stop-color="#E1E7E7" />
      <stop offset="0.28" stop-color="#D3EAE8" />
      <stop offset="0.44" stop-color="#BBF0EB" />
      <stop offset="0.6" stop-color="#9AF7EF" />
      <stop offset="0.75" stop-color="#78FFF3" />
    </radialGradient>
    <radialGradient id="paint1_radial--myassets" cx="0" cy="0" r="1" gradientUnits="userSpaceOnUse"
      gradientTransform="translate(180.14 153.78) rotate(-31.7801) scale(126.843 91.5932)">
      <stop stop-color="#73B3F3" />
      <stop offset="0.23" stop-color="#72B8F4" />
      <stop offset="0.51" stop-color="#70C6F6" />
      <stop offset="0.75" stop-color="#6ED9F9" />
      <stop offset="1" stop-color="#BCFFF9" />
    </radialGradient>
    <radialGradient id="paint2_radial--myassets" cx="0" cy="0" r="1" gradientUnits="userSpaceOnUse"
      gradientTransform="translate(227.047 183.843) rotate(-31.7801) scale(126.843 91.5932)">
      <stop stop-color="#0080FF" />
      <stop offset="0.24" stop-color="#0281FF" />
      <stop offset="0.37" stop-color="#0B85FF" />
      <stop offset="0.48" stop-color="#198CFF" />
      <stop offset="0.58" stop-color="#2D96FF" />
      <stop offset="0.67" stop-color="#47A3FF" />
      <stop offset="0.75" stop-color="#66B3FF" />
      <stop offset="0.83" stop-color="#8CC6FF" />
      <stop offset="0.9" stop-color="#B8DCFF" />
      <stop offset="0.97" stop-color="#E9F4FF" />
      <stop offset="1" stop-color="white" />
    </radialGradient>
    <clipPath id="clip0--myassets">
      <rect width="267.352" height="308.483" fill="white" transform="translate(48.9995)" />
    </clipPath>
  </defs>
</svg>