<svg width="100%" height="100%" viewBox="0 0 360 44" fill="none" xmlns="http://www.w3.org/2000/svg">
  <path d="M0.5 0.5H359.5V43.5H0.5V0.5Z" fill="#F1F3F4" stroke="black" />
  <path
    d="M58.3511 27.3134V22.2554C58.3511 21.4334 58.1531 20.8094 57.7571 20.3834C57.3671 19.9514 56.8391 19.7354 56.1731 19.7354C55.3931 19.7354 54.7961 20.0384 54.3821 20.6444C53.9681 21.2444 53.7611 22.0754 53.7611 23.1374H53.1131C53.1131 22.3634 53.1881 21.6854 53.3381 21.1034C53.4941 20.5214 53.7191 20.0384 54.0131 19.6544C54.3071 19.2644 54.6641 18.9734 55.0841 18.7814C55.5041 18.5894 55.9811 18.4934 56.5151 18.4934C57.1931 18.4934 57.7721 18.6464 58.2521 18.9524C58.7381 19.2524 59.1101 19.6844 59.3681 20.2484C59.6261 20.8124 59.7551 21.4814 59.7551 22.2554V27.3134H58.3511ZM46.2551 27.3134V18.7094H47.4611L47.6231 20.4374C47.8931 19.8134 48.2711 19.3334 48.7571 18.9974C49.2491 18.6614 49.8371 18.4934 50.5211 18.4934C51.1991 18.4934 51.7781 18.6464 52.2581 18.9524C52.7441 19.2524 53.1161 19.6844 53.3741 20.2484C53.6321 20.8124 53.7611 21.4814 53.7611 22.2554V27.3134H52.3751V22.2554C52.3751 21.4334 52.1771 20.8094 51.7811 20.3834C51.3911 19.9514 50.8571 19.7354 50.1791 19.7354C49.6631 19.7354 49.2161 19.8764 48.8381 20.1584C48.4601 20.4404 48.1691 20.8454 47.9651 21.3734C47.7611 21.8954 47.6591 22.5194 47.6591 23.2454V27.3134H46.2551Z"
    fill="#1A1A1A" />
  <path
    d="M61.673 18.7094H63.239L66.047 26.0894H65.723L67.901 18.7094H69.341L66.101 29.0414C65.831 29.9054 65.471 30.5714 65.021 31.0394C64.571 31.5074 63.995 31.7414 63.293 31.7414C62.915 31.7414 62.555 31.6874 62.213 31.5794C61.877 31.4714 61.529 31.3154 61.169 31.1114V29.8154C61.487 30.0674 61.793 30.2474 62.087 30.3554C62.387 30.4634 62.699 30.5174 63.023 30.5174C63.383 30.5174 63.683 30.4034 63.923 30.1754C64.169 29.9474 64.373 29.6534 64.535 29.2934C64.697 28.9394 64.835 28.5674 64.949 28.1774L65.201 27.3134L61.673 18.7094Z"
    fill="#1A1A1A" />
  <path
    d="M76.8077 27.3134L76.6277 25.4234V21.7334C76.6277 20.9594 76.4627 20.4044 76.1327 20.0684C75.8027 19.7264 75.3077 19.5554 74.6477 19.5554C74.2757 19.5554 73.9367 19.6094 73.6307 19.7174C73.3307 19.8254 73.0907 19.9934 72.9107 20.2214C72.7367 20.4434 72.6497 20.7314 72.6497 21.0854H71.0837C71.0837 20.4614 71.2367 19.9604 71.5427 19.5824C71.8487 19.1984 72.2687 18.9224 72.8027 18.7544C73.3427 18.5804 73.9577 18.4934 74.6477 18.4934C75.3077 18.4934 75.8927 18.6044 76.4027 18.8264C76.9127 19.0484 77.3117 19.4024 77.5997 19.8884C77.8877 20.3684 78.0317 20.9954 78.0317 21.7694V27.3134H76.8077ZM73.8737 27.5294C73.1657 27.5294 72.5807 27.4034 72.1187 27.1514C71.6567 26.8994 71.3117 26.5724 71.0837 26.1704C70.8557 25.7684 70.7417 25.3454 70.7417 24.9014C70.7417 24.3194 70.8857 23.8454 71.1737 23.4794C71.4677 23.1134 71.8667 22.8464 72.3707 22.6784C72.8747 22.5044 73.4417 22.4174 74.0717 22.4174C74.5217 22.4174 74.9717 22.4624 75.4217 22.5524C75.8777 22.6424 76.3217 22.7654 76.7537 22.9214V23.8034C76.3937 23.6594 75.9857 23.5454 75.5297 23.4614C75.0797 23.3774 74.6657 23.3354 74.2877 23.3354C73.7117 23.3354 73.2257 23.4554 72.8297 23.6954C72.4337 23.9294 72.2357 24.3314 72.2357 24.9014C72.2357 25.3214 72.3857 25.6814 72.6857 25.9814C72.9917 26.2814 73.4777 26.4314 74.1437 26.4314C74.6117 26.4314 75.0317 26.3234 75.4037 26.1074C75.7817 25.8854 76.0787 25.6094 76.2947 25.2794C76.5167 24.9494 76.6277 24.6194 76.6277 24.2894H76.9697C76.9697 24.8654 76.8437 25.3994 76.5917 25.8914C76.3457 26.3834 75.9917 26.7794 75.5297 27.0794C75.0677 27.3794 74.5157 27.5294 73.8737 27.5294Z"
    fill="#1A1A1A" />
  <path
    d="M84.4898 27.5294C83.6558 27.5294 82.9598 27.4124 82.4018 27.1784C81.8438 26.9384 81.4208 26.6114 81.1328 26.1974C80.8448 25.7774 80.6918 25.2974 80.6738 24.7574H82.0238C82.0538 25.3034 82.2728 25.7144 82.6808 25.9904C83.0948 26.2604 83.6558 26.3954 84.3638 26.3954C84.7358 26.3954 85.0778 26.3354 85.3898 26.2154C85.7018 26.0954 85.9508 25.9304 86.1368 25.7204C86.3228 25.5104 86.4158 25.2734 86.4158 25.0094C86.4158 24.6734 86.2928 24.4094 86.0468 24.2174C85.8008 24.0254 85.4078 23.8574 84.8678 23.7134L83.1938 23.1734C82.4678 22.9454 81.9098 22.6334 81.5198 22.2374C81.1358 21.8354 80.9438 21.3554 80.9438 20.7974C80.9438 20.1014 81.2498 19.5434 81.8618 19.1234C82.4738 18.7034 83.2778 18.4934 84.2738 18.4934C85.3298 18.4934 86.1488 18.7094 86.7308 19.1414C87.3128 19.5734 87.6158 20.1134 87.6398 20.7614H86.2538C86.1998 20.3834 86.0078 20.0984 85.6778 19.9064C85.3478 19.7084 84.8798 19.6094 84.2738 19.6094C83.6918 19.6094 83.2358 19.7414 82.9058 20.0054C82.5818 20.2634 82.4198 20.5514 82.4198 20.8694C82.4198 21.4634 82.9298 21.9014 83.9498 22.1834L85.6598 22.7594C86.3978 22.9814 86.9618 23.2724 87.3518 23.6324C87.7478 23.9924 87.9458 24.4514 87.9458 25.0094C87.9458 25.4414 87.8048 25.8494 87.5228 26.2334C87.2408 26.6174 86.8418 26.9294 86.3258 27.1694C85.8098 27.4094 85.1978 27.5294 84.4898 27.5294Z"
    fill="#1A1A1A" />
  <path
    d="M93.9468 27.5294C93.1128 27.5294 92.4168 27.4124 91.8588 27.1784C91.3008 26.9384 90.8778 26.6114 90.5898 26.1974C90.3018 25.7774 90.1488 25.2974 90.1308 24.7574H91.4808C91.5108 25.3034 91.7298 25.7144 92.1378 25.9904C92.5518 26.2604 93.1128 26.3954 93.8208 26.3954C94.1928 26.3954 94.5348 26.3354 94.8468 26.2154C95.1588 26.0954 95.4078 25.9304 95.5938 25.7204C95.7798 25.5104 95.8728 25.2734 95.8728 25.0094C95.8728 24.6734 95.7498 24.4094 95.5038 24.2174C95.2578 24.0254 94.8648 23.8574 94.3248 23.7134L92.6508 23.1734C91.9248 22.9454 91.3668 22.6334 90.9768 22.2374C90.5928 21.8354 90.4008 21.3554 90.4008 20.7974C90.4008 20.1014 90.7068 19.5434 91.3188 19.1234C91.9308 18.7034 92.7348 18.4934 93.7308 18.4934C94.7868 18.4934 95.6058 18.7094 96.1878 19.1414C96.7698 19.5734 97.0728 20.1134 97.0968 20.7614H95.7108C95.6568 20.3834 95.4648 20.0984 95.1348 19.9064C94.8048 19.7084 94.3368 19.6094 93.7308 19.6094C93.1488 19.6094 92.6928 19.7414 92.3628 20.0054C92.0388 20.2634 91.8768 20.5514 91.8768 20.8694C91.8768 21.4634 92.3868 21.9014 93.4068 22.1834L95.1168 22.7594C95.8548 22.9814 96.4188 23.2724 96.8088 23.6324C97.2048 23.9924 97.4028 24.4514 97.4028 25.0094C97.4028 25.4414 97.2618 25.8494 96.9798 26.2334C96.6978 26.6174 96.2988 26.9294 95.7828 27.1694C95.2668 27.4094 94.6548 27.5294 93.9468 27.5294Z"
    fill="#1A1A1A" />
  <path
    d="M103.296 27.5294C102.552 27.5294 101.886 27.3404 101.298 26.9624C100.716 26.5784 100.254 26.0474 99.9119 25.3694C99.5759 24.6914 99.4079 23.9114 99.4079 23.0294C99.4079 22.0874 99.5759 21.2774 99.9119 20.5994C100.248 19.9214 100.707 19.4024 101.289 19.0424C101.877 18.6764 102.546 18.4934 103.296 18.4934C103.95 18.4934 104.508 18.6254 104.97 18.8894C105.432 19.1534 105.804 19.5104 106.086 19.9604C106.368 20.4104 106.563 20.9204 106.671 21.4904C106.785 22.0544 106.818 22.6394 106.77 23.2454H100.542V22.3814H105.843L105.429 22.6514C105.447 22.2974 105.426 21.9434 105.366 21.5894C105.312 21.2354 105.207 20.9114 105.051 20.6174C104.895 20.3174 104.676 20.0774 104.394 19.8974C104.112 19.7174 103.752 19.6274 103.314 19.6274C102.762 19.6274 102.3 19.7684 101.928 20.0504C101.556 20.3324 101.277 20.7044 101.091 21.1664C100.905 21.6224 100.812 22.1174 100.812 22.6514V23.2274C100.812 23.8274 100.902 24.3644 101.082 24.8384C101.268 25.3124 101.544 25.6874 101.91 25.9634C102.276 26.2394 102.738 26.3774 103.296 26.3774C103.854 26.3774 104.313 26.2424 104.673 25.9724C105.033 25.7024 105.252 25.3034 105.33 24.7754H106.788C106.698 25.3454 106.494 25.8374 106.176 26.2514C105.858 26.6594 105.453 26.9744 104.961 27.1964C104.469 27.4184 103.914 27.5294 103.296 27.5294Z"
    fill="#1A1A1A" />
  <path
    d="M112.2 27.5294C111.732 27.5294 111.312 27.4394 110.94 27.2594C110.568 27.0794 110.274 26.8094 110.058 26.4494C109.842 26.0894 109.734 25.6394 109.734 25.0994V16.3154H111.12V25.0634C111.12 25.9514 111.534 26.3954 112.362 26.3954C112.608 26.3954 112.845 26.3684 113.073 26.3144C113.307 26.2604 113.568 26.1794 113.856 26.0714L114.054 27.0794C113.748 27.2114 113.442 27.3194 113.136 27.4034C112.836 27.4874 112.524 27.5294 112.2 27.5294ZM108.348 19.6814V18.7094H113.838V19.6814H108.348Z"
    fill="#1A1A1A" />
  <path
    d="M119.418 27.5294C118.584 27.5294 117.888 27.4124 117.33 27.1784C116.772 26.9384 116.349 26.6114 116.061 26.1974C115.773 25.7774 115.62 25.2974 115.602 24.7574H116.952C116.982 25.3034 117.201 25.7144 117.609 25.9904C118.023 26.2604 118.584 26.3954 119.292 26.3954C119.664 26.3954 120.006 26.3354 120.318 26.2154C120.63 26.0954 120.879 25.9304 121.065 25.7204C121.251 25.5104 121.344 25.2734 121.344 25.0094C121.344 24.6734 121.221 24.4094 120.975 24.2174C120.729 24.0254 120.336 23.8574 119.796 23.7134L118.122 23.1734C117.396 22.9454 116.838 22.6334 116.448 22.2374C116.064 21.8354 115.872 21.3554 115.872 20.7974C115.872 20.1014 116.178 19.5434 116.79 19.1234C117.402 18.7034 118.206 18.4934 119.202 18.4934C120.258 18.4934 121.077 18.7094 121.659 19.1414C122.241 19.5734 122.544 20.1134 122.568 20.7614H121.182C121.128 20.3834 120.936 20.0984 120.606 19.9064C120.276 19.7084 119.808 19.6094 119.202 19.6094C118.62 19.6094 118.164 19.7414 117.834 20.0054C117.51 20.2634 117.348 20.5514 117.348 20.8694C117.348 21.4634 117.858 21.9014 118.878 22.1834L120.588 22.7594C121.326 22.9814 121.89 23.2724 122.28 23.6324C122.676 23.9924 122.874 24.4514 122.874 25.0094C122.874 25.4414 122.733 25.8494 122.451 26.2334C122.169 26.6174 121.77 26.9294 121.254 27.1694C120.738 27.4094 120.126 27.5294 119.418 27.5294Z"
    fill="#1A1A1A" />
  <path
    d="M124.501 26.4764C124.501 26.1944 124.6 25.9514 124.798 25.7474C124.996 25.5434 125.245 25.4414 125.545 25.4414C125.845 25.4414 126.1 25.5434 126.31 25.7474C126.52 25.9514 126.625 26.1944 126.625 26.4764C126.625 26.7584 126.52 26.9954 126.31 27.1874C126.1 27.3794 125.845 27.4754 125.545 27.4754C125.245 27.4754 124.996 27.3794 124.798 27.1874C124.6 26.9894 124.501 26.7524 124.501 26.4764Z"
    fill="#1A1A1A" />
  <path
    d="M135.115 27.3134V22.2554C135.115 21.4334 134.917 20.8094 134.521 20.3834C134.131 19.9514 133.597 19.7354 132.919 19.7354C132.403 19.7354 131.956 19.8764 131.578 20.1584C131.2 20.4404 130.909 20.8454 130.705 21.3734C130.501 21.8954 130.399 22.5194 130.399 23.2454H129.859C129.859 22.2434 129.991 21.3884 130.255 20.6804C130.519 19.9724 130.903 19.4324 131.407 19.0604C131.917 18.6824 132.535 18.4934 133.261 18.4934C133.939 18.4934 134.518 18.6464 134.998 18.9524C135.484 19.2524 135.856 19.6844 136.114 20.2484C136.372 20.8124 136.501 21.4814 136.501 22.2554V27.3134H135.115ZM128.995 27.3134V18.7094H130.201L130.399 20.6894V27.3134H128.995Z"
    fill="#1A1A1A" />
  <path
    d="M140.327 27.3134V17.3774C140.327 16.8074 140.435 16.3424 140.651 15.9824C140.873 15.6164 141.167 15.3464 141.533 15.1724C141.905 14.9984 142.319 14.9114 142.775 14.9114C143.021 14.9114 143.27 14.9294 143.522 14.9654C143.78 15.0014 144.035 15.0554 144.287 15.1274L144.017 16.2434C143.837 16.1714 143.657 16.1174 143.477 16.0814C143.303 16.0454 143.135 16.0274 142.973 16.0274C142.781 16.0274 142.589 16.0634 142.397 16.1354C142.205 16.2074 142.046 16.3424 141.92 16.5404C141.794 16.7384 141.731 17.0234 141.731 17.3954V27.3134H140.327ZM138.923 19.6814V18.7094H143.513V19.6814H138.923Z"
    fill="#1A1A1A" />
  <path
    d="M148.675 27.5294C148.207 27.5294 147.787 27.4394 147.415 27.2594C147.043 27.0794 146.749 26.8094 146.533 26.4494C146.317 26.0894 146.209 25.6394 146.209 25.0994V16.3154H147.595V25.0634C147.595 25.9514 148.009 26.3954 148.837 26.3954C149.083 26.3954 149.32 26.3684 149.548 26.3144C149.782 26.2604 150.043 26.1794 150.331 26.0714L150.529 27.0794C150.223 27.2114 149.917 27.3194 149.611 27.4034C149.311 27.4874 148.999 27.5294 148.675 27.5294ZM144.823 19.6814V18.7094H150.313V19.6814H144.823Z"
    fill="#1A1A1A" />
  <path d="M152.004 28.6094L156.522 14.1554H157.962L153.408 28.6094H152.004Z" fill="#1A1A1A" />
  <path
    d="M32.9256 20.5629H22.278C21.7352 20.5629 21.2952 21.0064 21.2952 21.5535V28.9531C21.2952 29.5002 21.7352 29.9437 22.278 29.9437H32.9256C33.4684 29.9437 33.9085 29.5002 33.9085 28.9531V21.5535C33.9085 21.0064 33.4684 20.5629 32.9256 20.5629Z"
    fill="#1A1A1A" />
  <path fill-rule="evenodd" clip-rule="evenodd"
    d="M28.2944 25.4559C28.5268 25.3086 28.7054 25.0891 28.8032 24.8305C28.9011 24.572 28.9129 24.2884 28.8368 24.0225C28.7607 23.7566 28.601 23.5228 28.3816 23.3564C28.1622 23.1901 27.8951 23.1001 27.6205 23.1001C27.346 23.1001 27.0789 23.1901 26.8595 23.3564C26.6401 23.5228 26.4803 23.7566 26.4043 24.0225C26.3282 24.2884 26.34 24.572 26.4378 24.8305C26.5357 25.0891 26.7143 25.3086 26.9467 25.4559L26.5074 27.4146H28.7411L28.2944 25.4559Z"
    fill="#E8E8E8" />
  <path
    d="M32.7096 20.5629V17.1182C32.7096 15.8274 31.965 14.7842 30.8407 14.7842H24.2437C23.1119 14.7842 22.3748 15.8274 22.3748 17.1182V20.5629"
    stroke="#1A1A1A" stroke-width="1.3" stroke-miterlimit="10" />
  <path
    d="M347.774 18.7617C346.798 19.5122 344.796 21.0131 341.75 23.3996C342.008 24.2101 342.383 25.4309 342.875 27.0619C343.373 28.6904 343.738 29.9062 343.984 30.7092L337.737 26.3865C337.772 26.3865 335.699 27.8274 331.52 30.7092C332.954 25.9912 333.674 23.5722 333.679 23.4521C333.679 23.4521 331.654 21.8912 327.618 18.8067L334.52 18.6341H335.198C335.704 17.1332 336.538 14.7617 337.677 11.4221C338.67 14.2289 339.509 16.6204 340.194 18.5966C340.341 18.6317 340.49 18.6568 340.641 18.6716C342.391 18.6716 344.743 18.7092 347.774 18.7617Z"
    fill="#0080FF" />
</svg>