<svg xmlns="http://www.w3.org/2000/svg" xmlns:xlink="http://www.w3.org/1999/xlink" width="100%" height="100%"
  viewBox="0 0 348.92 393.56">
  <defs>
    <style>
      .power-1,
      .power-2,
      .power-3 {
        fill: #fff;
      }

      .power-1,
      .power-5 {
        opacity: 0.5;
      }

      .power-2,
      .power-6 {
        opacity: 0.75;
      }

      .power-10,
      .power-11,
      .power-4,
      .power-8,
      .power-9 {
        fill: none;
        stroke-miterlimit: 10;
      }

      .power-11,
      .power-4 {
        stroke: #000;
      }

      .power-4 {
        stroke-width: 0.95px;
      }

      .power-5 {
        fill: url(#radial-gradient--power);
      }

      .power-6 {
        fill: url(#radial-gradient--power-2);
      }

      .power-7 {
        fill: url(#radial-gradient--power-3);
      }

      .power-8 {
        stroke: #68e4ed;
        stroke-width: 0.6px;
      }

      .power-9 {
        stroke: #60b4f5;
        stroke-width: 0.49px;
      }

      .power-10 {
        stroke: #429bff;
        stroke-width: 0.9px;
      }

      .power-11 {
        stroke-width: 1.02px;
      }
    </style>
    <radialGradient id="radial-gradient--power" cx="107.39" cy="374.55" r="137.47"
      gradientTransform="matrix(1, -0.62, 0, 1, 0, -150.13)" gradientUnits="userSpaceOnUse">
      <stop offset="0" stop-color="#5efffd" />
      <stop offset="0.28" stop-color="#5cfaf8" />
      <stop offset="0.6" stop-color="#57ecea" />
      <stop offset="0.75" stop-color="#54e3e1" />
    </radialGradient>
    <radialGradient id="radial-gradient--power-2" cx="167.19" cy="449.98" r="137.47"
      gradientTransform="matrix(1, -0.62, 0, 1, 0, -150.13)" gradientUnits="userSpaceOnUse">
      <stop offset="0" stop-color="#2fbffd" />
      <stop offset="0" stop-color="#2fbffd" />
      <stop offset="0" stop-color="#2fbffd" />
      <stop offset="0.21" stop-color="#34c0fc" />
      <stop offset="0.46" stop-color="#42c4f7" />
      <stop offset="0.72" stop-color="#5ac9f1" />
      <stop offset="0.75" stop-color="#5ccaf0" />
      <stop offset="1" stop-color="#aaf1f0" />
    </radialGradient>
    <radialGradient id="radial-gradient--power-3" cx="226.98" cy="525.41" r="137.47"
      gradientTransform="matrix(1, -0.62, 0, 1, 0, -150.13)" gradientUnits="userSpaceOnUse">
      <stop offset="0" stop-color="#007ffd" />
      <stop offset="0.24" stop-color="#0280fd" />
      <stop offset="0.37" stop-color="#0b84fd" />
      <stop offset="0.48" stop-color="#198bfd" />
      <stop offset="0.58" stop-color="#2d95fd" />
      <stop offset="0.67" stop-color="#47a2fe" />
      <stop offset="0.75" stop-color="#66b2fe" />
      <stop offset="0.83" stop-color="#8cc5fe" />
      <stop offset="0.9" stop-color="#b8dbfe" />
      <stop offset="0.97" stop-color="#e9f4ff" />
      <stop offset="1" stop-color="#fff" />
    </radialGradient>
  </defs>
  <g id="Layer_2" data-name="Layer 2">
    <g id="ART">
      <polygon class="power-1" points="188.25 27.55 26.54 127.21 26.54 288.92 188.25 189.26 188.25 27.55" />
      <polygon class="power-2" points="248.04 66.13 86.33 165.79 86.33 327.5 248.04 227.84 248.04 66.13" />
      <polygon class="power-3" points="307.84 104.71 146.13 204.37 146.13 366.08 307.84 266.42 307.84 104.71" />
      <line class="power-4" x1="170.42" y1="153.99" x2="170.42" y2="0.55" />
      <polyline class="power-4"
        points="328.57 301.7 340.36 294.89 340.36 252.1 170.42 153.99 0.48 252.1 0.48 294.89 170.42 393.01 251.87 345.98" />
      <polygon class="power-5" points="188.25 27.55 26.54 127.21 26.54 288.92 188.25 189.26 188.25 27.55" />
      <polygon class="power-6" points="248.04 66.13 86.33 165.79 86.33 327.5 248.04 227.84 248.04 66.13" />
      <polygon class="power-7" points="307.84 104.71 146.13 204.37 146.13 366.08 307.84 266.42 307.84 104.71" />
      <path class="power-8"
        d="M297.37,185.71a.81.81,0,0,1-.25.56l-13.73,15.81-14.13,16.28c-.19.22-.33.32-.53.31-.4,0-.83,0-1.24,0h-3.1c-.61,0-1.22,0-1.83,0H247.91l-2.1,0H242.7c-.6,0-1.2,0-1.81,0-.19,0-.27-.07-.27-.3q0-16.05,0-32.09a.86.86,0,0,1,.27-.61l23-26.44,4.93-5.68a.53.53,0,0,1,.45-.25h27.9c.17,0,.24.07.24.27Q297.37,169.64,297.37,185.71Z" />
      <path class="power-9"
        d="M256.84,180.58v-7.84l-.15.12-3.85,4.46a.57.57,0,0,0-.13.29c0,1.58,0,3.16,0,4.74v5.52c0,.12,0,.25,0,.37v8.18a1.86,1.86,0,0,1-.25-.51l-.81-2.21-.14-.42,0-.1,0-.11,0-.09-.21-.63-.05-.09-.21-.64c-.13-.38-.25-.78-.39-1.16l-.88-2.43-.14-.42-.05-.1,0-.11,0-.09-.11-.37,0-.1-.21-.63-.05-.09,0-.11c-.27-.8-.55-1.59-.83-2.42-1.11,1.28-2.15,2.49-3.2,3.69a1,1,0,0,0-.31.72q0,11.26,0,22.54c0,1.27,0,2.53,0,3.82,0,.39.09.56.45.54,1,0,1.89,0,2.83,0h.07l0-.12c0-.58,0-1.18,0-1.76,0-1.38,0-2.75,0-4.13,0-.79,0-1.59,0-2.38,0-1.36,0-2.71,0-4.07v-6.2l0-.27s0,0,0,0l2.2,7,.06.15,0,.11.07.17,0,.09.05.12,0,.15.06.15,0,.11.08.17v.09l0,.12,0,.2.15.38v.09l.07.21,0,.11c0,.12.09.25.14.38l0,.09,0,.12,0,.19.06.15,0,.11.06.13.06.24.1.31,0,.11.06.13.06.23.1.32,0,.11.06.13.06.24.1.31,0,.11.07.17v.1l.07.2,0,.11.15.38v.09l.07.21,0,.11.06.15,0,.1.07,0-.07,0,.05.13,0,.09.07.21,0,.11.06.15,0,.1.06.13a1.06,1.06,0,0,0,0,.19l0,.11,0,.1.06.16,0,.1.05.13a1.29,1.29,0,0,1,0,.19l.13.36,0,.11.06.13.06.24.1.31,0,.11.07.18,0,.19,0,.1,0,.11c.05.13.1.26.14.39l0,.19.09.09h.69s0,0,.05,0h2.1v-12.6a2.64,2.64,0,0,0,0-.28V184.82a2.45,2.45,0,0,0,0-.27Z" />
      <path class="power-9"
        d="M295.76,158.05l-6.3-.31c-.73,0-1.46-.1-2.19-.15h-.15s0,0,0,0h-.53l-.23-.05-.42,0-.2,0-.61,0c-.54,0-1.07-.08-1.61-.1-.05,0-.21.11-.24.18-.49,1.08-1,2.15-1.46,3.23l-.53,1.08,1.45.09,2.94.17h.15l.16,0,.37,0c0,.1,0,.2,0,.3,0,1.9,0,3.81,0,5.72q0,11.09,0,22.18c0,.12,0,.24,0,.36,0,.4,0,.81,0,1.21,0,1.42,0,2.83,0,4.25h.12a.86.86,0,0,0,.14-.13c1.21-1.4,2.41-2.8,3.62-4.18a.86.86,0,0,0,.28-.65c0-2.24,0-4.5,0-6.74,0-.93,0-1.86,0-2.78h0c0-.16,0-.32,0-.47v-14c0-.23,0-.47,0-.7v-4.35l.68,0a.25.25,0,0,0,.12,0l4,.42.58.05c0-.11,0-.15,0-.19,0-1.42,0-2.84,0-4.24A.24.24,0,0,0,295.76,158.05Z" />
      <path class="power-9"
        d="M264.06,172.63c0-1.37,0-2.75,0-4.12a.7.7,0,0,1,.22-.52c.38-.42.75-.86,1.13-1.29,1.36-1.53,2.72-3,4.07-4.58.2-.22.35-.32.54-.31l7.08.17,2.15.05c.78-1.64,1.54-3.26,2.32-4.89l-.32,0L270.08,157a.76.76,0,0,0-.62.36c-2.68,3.15-5.38,6.3-8.07,9.45l-.27.32c-.23.28-.48.55-.7.83a.81.81,0,0,0-.15.35c0,1,0,1.95,0,2.92,0,2,0,3.93,0,5.89,0,2.3,0,4.59,0,6.89,0,.08,0,.17,0,.25v16.13c0,.08,0,.16,0,.24,0,1.72,0,3.45,0,5.17,0,1,0,1.93,0,2.9,0,2,0,3.93,0,5.89a.22.22,0,0,0,.2.19l3.33.23.27,0v-1.42c0-1.86,0-3.72,0-5.57,0-.88,0-1.76,0-2.63,0-1.59,0-3.17,0-4.75,0-.13,0-.26,0-.38v-8.74l.48-.31.21-.11,9.19-5.31.22-.14,4.2-2.43h0a1,1,0,0,0,.07-.28q0-2.1,0-4.2a.79.79,0,0,0-.05-.22l-4.66,2.69-.34.18-7.29,4.22c-.46.26-.91.53-1.36.8l-.25.13c-.42.24-.42.24-.42-.18v-4.19c0-1.1,0-2.2,0-3.31v-6.2Z" />
      <path class="power-10"
        d="M300.27,148.75H269.63c-.39,0-.77,0-1.16-.06l-.19.1-.24.32-5.28,6.11-13.71,15.85q-6.28,7.28-12.58,14.54a1,1,0,0,0-.32.74q0,12.74,0,25.49c0,.12,0,.24,0,.36v3.29c0,2.51,0,5,0,7.53a.2.2,0,0,0,.2.18h3l3,0h1.5l0,0h.42l0,0h2.08s0,0,0,0H248l1.63,0h.07l.55,0h5.9l.13,0,1.16,0h.32l.26,0a.64.64,0,0,1,.17,0l1.42,0h1.57s0,0,0,0h5.42s0,0,.05,0H267s0,0,0,0h1l.15.08.25-.14.25-.39.06-.05.38-.45s0,0,0-.05c.38-.44.75-.88,1.13-1.31,0,0,0,0,.05-.06l.15-.17.09-.11.14-.16a.1.1,0,0,0,.05-.06l.23-.27c.27-.32.55-.64.83-.95l.15-.18.16-.18.27-.32.16-.18.16-.19.28-.31c.23-.28.46-.55.7-.82a.08.08,0,0,0,0,0l.39-.46.05,0,.38-.46a.08.08,0,0,0,.05-.05l.38-.45a.08.08,0,0,0,.05-.05l.39-.45.05-.05.38-.45a.08.08,0,0,0,.05-.05l.15-.18.1-.11.13-.15.18-.2.14-.17c.36-.43.73-.85,1.1-1.28l.15-.18.16-.18.39-.45,0,0,.38-.45a.12.12,0,0,0,.05,0l.39-.45a.1.1,0,0,0,0,0l.39-.45s0,0,.05,0l.38-.45a.12.12,0,0,0,.05,0l1.13-1.31a.12.12,0,0,0,.05-.05l.38-.45a.12.12,0,0,0,.05-.05l.15-.18.1-.11.14-.16.17-.2.14-.17.29-.33.22-.26.16-.18.16-.19.27-.31.16-.19.28-.31c.23-.28.47-.55.7-.82a.08.08,0,0,0,0,0l.39-.46,0,0,.39-.46,0,0,.39-.46a.08.08,0,0,0,0,0l.39-.46a.12.12,0,0,0,.05,0l.38-.45a.08.08,0,0,0,.05,0l.38-.44.18-.2.14-.17.29-.33.14-.17.67-.78.16-.18.09-.1.22-.26.21-.24.23-.26.08-.1.15-.17,0-.05.27-.32.16-.18.28-.32.16-.18.38-.45.05-.05c.21-.23.42-.45.62-.68l1.38-1.63.17-.19.15-.18.29-.33.14-.17.41-.47.14-.16.12-.14.15-.19.28-.31.27-.32a.08.08,0,0,0,0,0l.2-.23s0,0,.05-.06l.14-.17.05,0,.39-.46s0,0,0,0l.27-.32.16-.18.39-.46.05,0,.38-.46a.1.1,0,0,0,.05,0l.39-.46s0,0,0,0l.39-.45.05-.06.38-.44s0,0,.05-.06l.38-.44s0,0,.05-.06l.15-.17.1-.12.22-.25.28-.32.42-.54a2.09,2.09,0,0,0,0-.25q0-18.31,0-36.64C300.55,148.82,300.47,148.75,300.27,148.75Z" />
      <polygon class="power-4"
        points="340.36 141.46 340.36 98.67 170.42 0.55 0.48 98.67 0.48 141.46 170.42 239.57 340.36 141.46" />
      <polyline class="power-11"
        points="322.47 353.16 251.35 353.16 250.92 301.7 329.8 301.7 337.6 309.67 337.6 322.33" />
      <polyline class="power-11" points="337.6 309.67 329.11 309.67 329.11 301.7" />
      <line class="power-11" x1="261.79" y1="327.43" x2="308.43" y2="327.43" />
      <line class="power-11" x1="261.79" y1="334.64" x2="308.43" y2="334.64" />
      <path class="power-11"
        d="M261.81,346a17.15,17.15,0,0,1,6.41-6.48c3.93-1.69,1.69,4.49,5.12,5.41a3.72,3.72,0,0,0,.81-.09,5,5,0,0,0,1.68-.75c1.4-1.4,3.19.31,5.13,1.46a8.77,8.77,0,0,0,1.19.59c4.34.2,7.71-4.29,11.64-3.17" />
      <rect x="261.81" y="310.64" width="10.36" height="10.36" rx="5.18" />
      <polyline class="power-11" points="322.47 348.72 322.47 368.48 330.55 362.27 337.6 368.48 337.6 348.27" />
      <path class="power-11"
        d="M348.41,335.4c0,2.19-3.68,3.64-4.47,5.55s.73,5.59-.76,7.08-5.11-.06-7.08.76-3.36,4.47-5.55,4.47-3.64-3.68-5.54-4.47-5.59.73-7.08-.76.05-5.11-.77-7.08-4.46-3.36-4.46-5.55,3.67-3.64,4.46-5.54-.72-5.6.77-7.09,5.1.06,7.08-.76,3.35-4.46,5.54-4.46,3.64,3.67,5.55,4.46,5.59-.72,7.08.77-.06,5.1.76,7.08S348.41,333.21,348.41,335.4Z" />
      <polygon class="power-11"
        points="339.01 339.57 339.01 330.03 330.74 325.25 322.47 330.03 322.47 339.57 330.74 344.35 339.01 339.57" />
      <polyline class="power-11" points="322.47 330.03 330.74 334.8 339.01 330.03 330.74 334.8 330.74 344.35" />
      <path d="M273.46,321.18l2.69-11.25h1.57L275,321.18Z" />
      <line class="power-4" x1="340.36" y1="252.1" x2="340.36" y2="141.46" />
      <line class="power-4" x1="0.48" y1="252.1" x2="0.48" y2="141.46" />
      <line class="power-4" x1="170.42" y1="239.57" x2="170.42" y2="393.01" />
    </g>
  </g>
</svg>