<svg width="100%" height="100%" viewBox="0 0 360 44" fill="none" xmlns="http://www.w3.org/2000/svg">
  <path d="M0.5 0.5H359.5V43.5H0.5V0.5Z" fill="#F1F3F4" stroke="black" />
  <path
    d="M49.7241 27.216C49.0941 27.216 48.5451 27.072 48.0771 26.784C47.6151 26.496 47.2581 26.076 47.0061 25.524C46.7541 24.966 46.6281 24.288 46.6281 23.49H47.2221C47.2221 24.024 47.3331 24.474 47.5551 24.84C47.7771 25.206 48.0651 25.485 48.4191 25.677C48.7791 25.863 49.1601 25.956 49.5621 25.956C49.9941 25.956 50.4081 25.833 50.8041 25.587C51.2001 25.335 51.5241 24.966 51.7761 24.48C52.0281 23.994 52.1541 23.394 52.1541 22.68C52.1541 21.996 52.0371 21.411 51.8031 20.925C51.5751 20.439 51.2661 20.067 50.8761 19.809C50.4861 19.551 50.0541 19.422 49.5801 19.422C49.1721 19.422 48.7881 19.521 48.4281 19.719C48.0681 19.917 47.7771 20.208 47.5551 20.592C47.3331 20.97 47.2221 21.438 47.2221 21.996H46.6281C46.6281 21.162 46.7661 20.463 47.0421 19.899C47.3181 19.329 47.6931 18.9 48.1671 18.612C48.6411 18.324 49.1721 18.18 49.7601 18.18C50.4321 18.18 51.0591 18.36 51.6411 18.72C52.2231 19.08 52.6941 19.596 53.0541 20.268C53.4141 20.94 53.5941 21.744 53.5941 22.68C53.5941 23.628 53.4111 24.441 53.0451 25.119C52.6851 25.797 52.2111 26.316 51.6231 26.676C51.0351 27.036 50.4021 27.216 49.7241 27.216ZM45.8181 31.23V18.396H46.9881L47.2221 20.412V31.23H45.8181Z"
    fill="#1A1A1A" />
  <path
    d="M56.3474 27V18.378H57.7514V27H56.3474ZM57.3194 23.112C57.3194 22.02 57.4244 21.114 57.6344 20.394C57.8444 19.668 58.1504 19.128 58.5524 18.774C58.9604 18.414 59.4554 18.234 60.0374 18.234C60.2294 18.234 60.4034 18.249 60.5594 18.279C60.7214 18.303 60.8834 18.342 61.0454 18.396L60.9554 19.782C60.7874 19.728 60.6044 19.683 60.4064 19.647C60.2084 19.605 60.0314 19.584 59.8754 19.584C59.3654 19.584 58.9544 19.731 58.6424 20.025C58.3304 20.313 58.1024 20.721 57.9584 21.249C57.8204 21.777 57.7514 22.398 57.7514 23.112H57.3194Z"
    fill="#1A1A1A" />
  <path
    d="M65.9653 27.216C65.1913 27.216 64.5013 27.045 63.8953 26.703C63.2953 26.361 62.8213 25.854 62.4733 25.182C62.1253 24.51 61.9513 23.682 61.9513 22.698C61.9513 21.708 62.1253 20.88 62.4733 20.214C62.8213 19.542 63.2953 19.035 63.8953 18.693C64.5013 18.351 65.1913 18.18 65.9653 18.18C66.7333 18.18 67.4173 18.351 68.0173 18.693C68.6233 19.035 69.0973 19.542 69.4393 20.214C69.7873 20.88 69.9613 21.708 69.9613 22.698C69.9613 23.682 69.7873 24.51 69.4393 25.182C69.0973 25.854 68.6233 26.361 68.0173 26.703C67.4173 27.045 66.7333 27.216 65.9653 27.216ZM65.9293 25.992C66.4873 25.992 66.9613 25.86 67.3513 25.596C67.7413 25.326 68.0353 24.945 68.2333 24.453C68.4373 23.961 68.5393 23.376 68.5393 22.698C68.5393 21.672 68.3263 20.865 67.9003 20.277C67.4743 19.683 66.8413 19.386 66.0013 19.386C65.4373 19.386 64.9603 19.521 64.5703 19.791C64.1863 20.055 63.8923 20.436 63.6883 20.934C63.4903 21.426 63.3913 22.014 63.3913 22.698C63.3913 23.712 63.6043 24.516 64.0303 25.11C64.4623 25.698 65.0953 25.992 65.9293 25.992Z"
    fill="#1A1A1A" />
  <path
    d="M75.7731 27.216C75.0771 27.216 74.4381 27.03 73.8561 26.658C73.2741 26.28 72.8091 25.752 72.4611 25.074C72.1131 24.39 71.9391 23.586 71.9391 22.662C71.9391 21.744 72.1101 20.949 72.4521 20.277C72.7941 19.605 73.2471 19.089 73.8111 18.729C74.3811 18.363 75.0051 18.18 75.6831 18.18C76.3131 18.18 76.8651 18.333 77.3391 18.639C77.8191 18.945 78.1911 19.386 78.4551 19.962C78.7191 20.538 78.8511 21.234 78.8511 22.05H78.3111C78.3111 21.48 78.1971 21 77.9691 20.61C77.7471 20.22 77.4561 19.926 77.0961 19.728C76.7361 19.524 76.3491 19.422 75.9351 19.422C75.4671 19.422 75.0381 19.554 74.6481 19.818C74.2641 20.076 73.9551 20.448 73.7211 20.934C73.4931 21.414 73.3791 21.99 73.3791 22.662C73.3791 23.346 73.4931 23.934 73.7211 24.426C73.9551 24.918 74.2641 25.296 74.6481 25.56C75.0381 25.824 75.4671 25.956 75.9351 25.956C76.3251 25.956 76.7001 25.854 77.0601 25.65C77.4261 25.446 77.7261 25.149 77.9601 24.759C78.1941 24.363 78.3111 23.886 78.3111 23.328H78.8511C78.8511 24.162 78.7131 24.87 78.4371 25.452C78.1671 26.028 77.7981 26.466 77.3301 26.766C76.8681 27.066 76.3491 27.216 75.7731 27.216ZM78.5451 27L78.3111 24.984V14.724H79.7151V27H78.5451Z"
    fill="#1A1A1A" />
  <path
    d="M89.215 18.378H90.619V27H89.215V18.378ZM83.113 18.378H84.517V23.742C84.517 24.462 84.691 25.008 85.039 25.38C85.393 25.752 85.897 25.938 86.551 25.938C87.091 25.938 87.559 25.794 87.955 25.506C88.357 25.218 88.666 24.822 88.882 24.318C89.104 23.808 89.215 23.226 89.215 22.572H89.737C89.737 23.538 89.596 24.363 89.314 25.047C89.038 25.731 88.645 26.256 88.135 26.622C87.631 26.982 87.037 27.162 86.353 27.162C85.705 27.162 85.138 27.042 84.652 26.802C84.166 26.562 83.788 26.199 83.518 25.713C83.248 25.221 83.113 24.6 83.113 23.85V18.378Z"
    fill="#1A1A1A" />
  <path
    d="M97.2874 27.216C96.5974 27.216 95.9524 27.03 95.3524 26.658C94.7584 26.286 94.2784 25.761 93.9124 25.083C93.5464 24.405 93.3634 23.604 93.3634 22.68C93.3634 21.732 93.5464 20.922 93.9124 20.25C94.2784 19.578 94.7584 19.065 95.3524 18.711C95.9524 18.357 96.5974 18.18 97.2874 18.18C97.7734 18.18 98.2084 18.255 98.5924 18.405C98.9824 18.549 99.3214 18.75 99.6094 19.008C99.8974 19.266 100.134 19.56 100.32 19.89C100.512 20.214 100.653 20.556 100.743 20.916L99.3034 21.042C99.1534 20.544 98.9014 20.151 98.5474 19.863C98.1994 19.569 97.7734 19.422 97.2694 19.422C96.8434 19.422 96.4414 19.545 96.0634 19.791C95.6914 20.031 95.3884 20.394 95.1544 20.88C94.9204 21.36 94.8034 21.96 94.8034 22.68C94.8034 23.346 94.9084 23.925 95.1184 24.417C95.3344 24.903 95.6284 25.281 96.0004 25.551C96.3724 25.821 96.7954 25.956 97.2694 25.956C97.9354 25.956 98.4394 25.794 98.7814 25.47C99.1294 25.14 99.3034 24.684 99.3034 24.102H100.743C100.743 24.702 100.602 25.236 100.32 25.704C100.038 26.172 99.6364 26.541 99.1144 26.811C98.5984 27.081 97.9894 27.216 97.2874 27.216Z"
    fill="#1A1A1A" />
  <path
    d="M106.191 27.216C105.723 27.216 105.303 27.126 104.931 26.946C104.559 26.766 104.265 26.496 104.049 26.136C103.833 25.776 103.725 25.326 103.725 24.786V16.002H105.111V24.75C105.111 25.638 105.525 26.082 106.353 26.082C106.599 26.082 106.836 26.055 107.064 26.001C107.298 25.947 107.559 25.866 107.847 25.758L108.045 26.766C107.739 26.898 107.433 27.006 107.127 27.09C106.827 27.174 106.515 27.216 106.191 27.216ZM102.339 19.368V18.396H107.829V19.368H102.339Z"
    fill="#1A1A1A" />
  <path
    d="M109.034 26.163C109.034 25.881 109.133 25.638 109.331 25.434C109.529 25.23 109.778 25.128 110.078 25.128C110.378 25.128 110.633 25.23 110.843 25.434C111.053 25.638 111.158 25.881 111.158 26.163C111.158 26.445 111.053 26.682 110.843 26.874C110.633 27.066 110.378 27.162 110.078 27.162C109.778 27.162 109.529 27.066 109.331 26.874C109.133 26.676 109.034 26.439 109.034 26.163Z"
    fill="#1A1A1A" />
  <path
    d="M125.625 27V21.942C125.625 21.12 125.427 20.496 125.031 20.07C124.641 19.638 124.113 19.422 123.447 19.422C122.667 19.422 122.07 19.725 121.656 20.331C121.242 20.931 121.035 21.762 121.035 22.824H120.387C120.387 22.05 120.462 21.372 120.612 20.79C120.768 20.208 120.993 19.725 121.287 19.341C121.581 18.951 121.938 18.66 122.358 18.468C122.778 18.276 123.255 18.18 123.789 18.18C124.467 18.18 125.046 18.333 125.526 18.639C126.012 18.939 126.384 19.371 126.642 19.935C126.9 20.499 127.029 21.168 127.029 21.942V27H125.625ZM113.529 27V18.396H114.735L114.897 20.124C115.167 19.5 115.545 19.02 116.031 18.684C116.523 18.348 117.111 18.18 117.795 18.18C118.473 18.18 119.052 18.333 119.532 18.639C120.018 18.939 120.39 19.371 120.648 19.935C120.906 20.499 121.035 21.168 121.035 21.942V27H119.649V21.942C119.649 21.12 119.451 20.496 119.055 20.07C118.665 19.638 118.131 19.422 117.453 19.422C116.937 19.422 116.49 19.563 116.112 19.845C115.734 20.127 115.443 20.532 115.239 21.06C115.035 21.582 114.933 22.206 114.933 22.932V27H113.529Z"
    fill="#1A1A1A" />
  <path
    d="M128.947 18.396H130.513L133.321 25.776H132.997L135.175 18.396H136.615L133.375 28.728C133.105 29.592 132.745 30.258 132.295 30.726C131.845 31.194 131.269 31.428 130.567 31.428C130.189 31.428 129.829 31.374 129.487 31.266C129.151 31.158 128.803 31.002 128.443 30.798V29.502C128.761 29.754 129.067 29.934 129.361 30.042C129.661 30.15 129.973 30.204 130.297 30.204C130.657 30.204 130.957 30.09 131.197 29.862C131.443 29.634 131.647 29.34 131.809 28.98C131.971 28.626 132.109 28.254 132.223 27.864L132.475 27L128.947 18.396Z"
    fill="#1A1A1A" />
  <path
    d="M142.696 27.216C142.12 27.216 141.598 27.066 141.13 26.766C140.668 26.466 140.299 26.028 140.023 25.452C139.753 24.87 139.618 24.162 139.618 23.328H140.158C140.158 23.886 140.272 24.363 140.5 24.759C140.734 25.149 141.034 25.446 141.4 25.65C141.766 25.854 142.15 25.956 142.552 25.956C143.014 25.956 143.437 25.824 143.821 25.56C144.205 25.296 144.511 24.918 144.739 24.426C144.973 23.934 145.09 23.346 145.09 22.662C145.09 21.99 144.976 21.414 144.748 20.934C144.52 20.448 144.211 20.076 143.821 19.818C143.437 19.554 143.008 19.422 142.534 19.422C142.126 19.422 141.739 19.524 141.373 19.728C141.013 19.926 140.719 20.22 140.491 20.61C140.269 21 140.158 21.48 140.158 22.05H139.618C139.618 21.234 139.75 20.538 140.014 19.962C140.284 19.386 140.656 18.945 141.13 18.639C141.604 18.333 142.156 18.18 142.786 18.18C143.464 18.18 144.085 18.363 144.649 18.729C145.219 19.089 145.675 19.605 146.017 20.277C146.359 20.949 146.53 21.744 146.53 22.662C146.53 23.586 146.356 24.39 146.008 25.074C145.66 25.752 145.195 26.28 144.613 26.658C144.031 27.03 143.392 27.216 142.696 27.216ZM138.754 27V14.724H140.158V24.984L139.744 27H138.754Z"
    fill="#1A1A1A" />
  <path
    d="M149.424 27V18.378H150.828V27H149.424ZM150.396 23.112C150.396 22.02 150.501 21.114 150.711 20.394C150.921 19.668 151.227 19.128 151.629 18.774C152.037 18.414 152.532 18.234 153.114 18.234C153.306 18.234 153.48 18.249 153.636 18.279C153.798 18.303 153.96 18.342 154.122 18.396L154.032 19.782C153.864 19.728 153.681 19.683 153.483 19.647C153.285 19.605 153.108 19.584 152.952 19.584C152.442 19.584 152.031 19.731 151.719 20.025C151.407 20.313 151.179 20.721 151.035 21.249C150.897 21.777 150.828 22.398 150.828 23.112H150.396Z"
    fill="#1A1A1A" />
  <path
    d="M161.255 27L161.075 25.11V21.42C161.075 20.646 160.91 20.091 160.58 19.755C160.25 19.413 159.755 19.242 159.095 19.242C158.723 19.242 158.384 19.296 158.078 19.404C157.778 19.512 157.538 19.68 157.358 19.908C157.184 20.13 157.097 20.418 157.097 20.772H155.531C155.531 20.148 155.684 19.647 155.99 19.269C156.296 18.885 156.716 18.609 157.25 18.441C157.79 18.267 158.405 18.18 159.095 18.18C159.755 18.18 160.34 18.291 160.85 18.513C161.36 18.735 161.759 19.089 162.047 19.575C162.335 20.055 162.479 20.682 162.479 21.456V27H161.255ZM158.321 27.216C157.613 27.216 157.028 27.09 156.566 26.838C156.104 26.586 155.759 26.259 155.531 25.857C155.303 25.455 155.189 25.032 155.189 24.588C155.189 24.006 155.333 23.532 155.621 23.166C155.915 22.8 156.314 22.533 156.818 22.365C157.322 22.191 157.889 22.104 158.519 22.104C158.969 22.104 159.419 22.149 159.869 22.239C160.325 22.329 160.769 22.452 161.201 22.608V23.49C160.841 23.346 160.433 23.232 159.977 23.148C159.527 23.064 159.113 23.022 158.735 23.022C158.159 23.022 157.673 23.142 157.277 23.382C156.881 23.616 156.683 24.018 156.683 24.588C156.683 25.008 156.833 25.368 157.133 25.668C157.439 25.968 157.925 26.118 158.591 26.118C159.059 26.118 159.479 26.01 159.851 25.794C160.229 25.572 160.526 25.296 160.742 24.966C160.964 24.636 161.075 24.306 161.075 23.976H161.417C161.417 24.552 161.291 25.086 161.039 25.578C160.793 26.07 160.439 26.466 159.977 26.766C159.515 27.066 158.963 27.216 158.321 27.216Z"
    fill="#1A1A1A" />
  <path
    d="M171.962 27V21.942C171.962 21.12 171.764 20.496 171.368 20.07C170.978 19.638 170.444 19.422 169.766 19.422C169.25 19.422 168.803 19.563 168.425 19.845C168.047 20.127 167.756 20.532 167.552 21.06C167.348 21.582 167.246 22.206 167.246 22.932H166.706C166.706 21.93 166.838 21.075 167.102 20.367C167.366 19.659 167.75 19.119 168.254 18.747C168.764 18.369 169.382 18.18 170.108 18.18C170.786 18.18 171.365 18.333 171.845 18.639C172.331 18.939 172.703 19.371 172.961 19.935C173.219 20.499 173.348 21.168 173.348 21.942V27H171.962ZM165.842 27V18.396H167.048L167.246 20.376V27H165.842Z"
    fill="#1A1A1A" />
  <path
    d="M179.783 27.216C179.087 27.216 178.448 27.03 177.866 26.658C177.284 26.28 176.819 25.752 176.471 25.074C176.123 24.39 175.949 23.586 175.949 22.662C175.949 21.744 176.12 20.949 176.462 20.277C176.804 19.605 177.257 19.089 177.821 18.729C178.391 18.363 179.015 18.18 179.693 18.18C180.323 18.18 180.875 18.333 181.349 18.639C181.829 18.945 182.201 19.386 182.465 19.962C182.729 20.538 182.861 21.234 182.861 22.05H182.321C182.321 21.48 182.207 21 181.979 20.61C181.757 20.22 181.466 19.926 181.106 19.728C180.746 19.524 180.359 19.422 179.945 19.422C179.477 19.422 179.048 19.554 178.658 19.818C178.274 20.076 177.965 20.448 177.731 20.934C177.503 21.414 177.389 21.99 177.389 22.662C177.389 23.346 177.503 23.934 177.731 24.426C177.965 24.918 178.274 25.296 178.658 25.56C179.048 25.824 179.477 25.956 179.945 25.956C180.335 25.956 180.71 25.854 181.07 25.65C181.436 25.446 181.736 25.149 181.97 24.759C182.204 24.363 182.321 23.886 182.321 23.328H182.861C182.861 24.162 182.723 24.87 182.447 25.452C182.177 26.028 181.808 26.466 181.34 26.766C180.878 27.066 180.359 27.216 179.783 27.216ZM182.555 27L182.321 24.984V14.724H183.725V27H182.555Z"
    fill="#1A1A1A" />
  <path
    d="M186.097 26.163C186.097 25.881 186.196 25.638 186.394 25.434C186.592 25.23 186.841 25.128 187.141 25.128C187.441 25.128 187.696 25.23 187.906 25.434C188.116 25.638 188.221 25.881 188.221 26.163C188.221 26.445 188.116 26.682 187.906 26.874C187.696 27.066 187.441 27.162 187.141 27.162C186.841 27.162 186.592 27.066 186.394 26.874C186.196 26.676 186.097 26.439 186.097 26.163Z"
    fill="#1A1A1A" />
  <path
    d="M196.712 27V21.942C196.712 21.12 196.514 20.496 196.118 20.07C195.728 19.638 195.194 19.422 194.516 19.422C194 19.422 193.553 19.563 193.175 19.845C192.797 20.127 192.506 20.532 192.302 21.06C192.098 21.582 191.996 22.206 191.996 22.932H191.456C191.456 21.93 191.588 21.075 191.852 20.367C192.116 19.659 192.5 19.119 193.004 18.747C193.514 18.369 194.132 18.18 194.858 18.18C195.536 18.18 196.115 18.333 196.595 18.639C197.081 18.939 197.453 19.371 197.711 19.935C197.969 20.499 198.098 21.168 198.098 21.942V27H196.712ZM190.592 27V18.396H191.798L191.996 20.376V27H190.592Z"
    fill="#1A1A1A" />
  <path
    d="M201.923 27V17.064C201.923 16.494 202.031 16.029 202.247 15.669C202.469 15.303 202.763 15.033 203.129 14.859C203.501 14.685 203.915 14.598 204.371 14.598C204.617 14.598 204.866 14.616 205.118 14.652C205.376 14.688 205.631 14.742 205.883 14.814L205.613 15.93C205.433 15.858 205.253 15.804 205.073 15.768C204.899 15.732 204.731 15.714 204.569 15.714C204.377 15.714 204.185 15.75 203.993 15.822C203.801 15.894 203.642 16.029 203.516 16.227C203.39 16.425 203.327 16.71 203.327 17.082V27H201.923ZM200.519 19.368V18.396H205.109V19.368H200.519Z"
    fill="#1A1A1A" />
  <path
    d="M210.271 27.216C209.803 27.216 209.383 27.126 209.011 26.946C208.639 26.766 208.345 26.496 208.129 26.136C207.913 25.776 207.805 25.326 207.805 24.786V16.002H209.191V24.75C209.191 25.638 209.605 26.082 210.433 26.082C210.679 26.082 210.916 26.055 211.144 26.001C211.378 25.947 211.639 25.866 211.927 25.758L212.125 26.766C211.819 26.898 211.513 27.006 211.207 27.09C210.907 27.174 210.595 27.216 210.271 27.216ZM206.419 19.368V18.396H211.909V19.368H206.419Z"
    fill="#1A1A1A" />
  <path d="M213.6 28.296L218.118 13.842H219.558L215.004 28.296H213.6Z" fill="#1A1A1A" />
  <path
    d="M32.9256 20.5629H22.278C21.7352 20.5629 21.2952 21.0064 21.2952 21.5535V28.9531C21.2952 29.5002 21.7352 29.9437 22.278 29.9437H32.9256C33.4684 29.9437 33.9085 29.5002 33.9085 28.9531V21.5535C33.9085 21.0064 33.4684 20.5629 32.9256 20.5629Z"
    fill="#1A1A1A" />
  <path fill-rule="evenodd" clip-rule="evenodd"
    d="M28.2944 25.4559C28.5268 25.3086 28.7054 25.0891 28.8032 24.8305C28.9011 24.572 28.9129 24.2884 28.8368 24.0225C28.7607 23.7566 28.601 23.5228 28.3816 23.3564C28.1622 23.1901 27.8951 23.1001 27.6205 23.1001C27.346 23.1001 27.0789 23.1901 26.8595 23.3564C26.6401 23.5228 26.4803 23.7566 26.4043 24.0225C26.3282 24.2884 26.34 24.572 26.4378 24.8305C26.5357 25.0891 26.7143 25.3086 26.9467 25.4559L26.5074 27.4146H28.7411L28.2944 25.4559Z"
    fill="#E8E8E8" />
  <path
    d="M32.7096 20.5629V17.1182C32.7096 15.8274 31.965 14.7842 30.8407 14.7842H24.2437C23.1119 14.7842 22.3748 15.8274 22.3748 17.1182V20.5629"
    stroke="#1A1A1A" stroke-width="1.3" stroke-miterlimit="10" />
  <path
    d="M347.774 18.7617C346.798 19.5122 344.796 21.0131 341.75 23.3996C342.008 24.2101 342.383 25.4309 342.875 27.0619C343.373 28.6904 343.738 29.9062 343.984 30.7092L337.737 26.3865C337.772 26.3865 335.699 27.8274 331.52 30.7092C332.954 25.9912 333.674 23.5722 333.679 23.4521C333.679 23.4521 331.654 21.8912 327.618 18.8067L334.52 18.6341H335.198C335.704 17.1332 336.538 14.7617 337.677 11.4221C338.67 14.2289 339.509 16.6204 340.194 18.5966C340.341 18.6317 340.49 18.6568 340.641 18.6716C342.391 18.6716 344.743 18.7092 347.774 18.7617Z"
    fill="#0080FF" />
</svg>