<svg height="fit-content" viewBox="0 0 119 151" fill="none" xmlns="http://www.w3.org/2000/svg">
  <path
    d="M2.74229 26.202C1.68013 26.6925 1 27.7557 1 28.9257V86.1053C1 120.347 47.769 145.463 56.0677 149.651C56.8682 150.054 57.7695 150.054 58.5701 149.651C66.8687 145.463 113.638 120.347 113.638 86.1053V28.9257C113.638 27.7557 112.958 26.6925 111.895 26.202L58.5766 1.58077C57.7786 1.21229 56.8592 1.21229 56.0612 1.58077L2.74229 26.202Z"
    stroke="#999999" stroke-width="1.5" stroke-miterlimit="10" />
  <path
    d="M14.2194 33.8008C12.4696 34.6265 11.3533 36.3877 11.3533 38.3226V83.7065C11.3533 110.775 45.9253 130.369 54.8328 134.968C56.1444 135.646 57.6678 135.646 58.9796 134.969C67.8878 130.374 102.459 110.795 102.459 83.7065V38.3225C102.459 36.3877 101.342 34.6265 99.5927 33.8008L59.0399 14.6634C57.6888 14.0258 56.1233 14.0258 54.7722 14.6634L14.2194 33.8008Z"
    fill="url(#paint0_radial--shield)" />
  <path
    d="M76 57.0253C76 45.937 67.4976 37.8171 56.9952 37.8171C46.4928 37.8171 38 45.8987 38 57.0253C38 65.3942 42.9179 71.9004 50.3478 74.8305L44.8406 106.817H55.9034H69.2367L63.6522 74.7922C71.0821 71.8621 76 65.3559 76 57.0253Z"
    fill="url(#paint1_radial--shield)" />
  <path
    d="M94.2876 144.201C107.936 144.201 119 132.824 119 118.79C119 104.756 107.936 93.3795 94.2876 93.3795C80.6392 93.3795 69.575 104.756 69.575 118.79C69.575 132.824 80.6392 144.201 94.2876 144.201Z"
    fill="url(#paint2_radial--shield)" />
  <path d="M83.2783 120.867L88.9025 126.009L90.4413 127.326L91.7646 125.813L105.337 110.474" stroke="black"
    stroke-width="3" stroke-miterlimit="10" />
  <defs>
    <radialGradient id="paint0_radial--shield" cx="0" cy="0" r="1" gradientUnits="userSpaceOnUse"
      gradientTransform="translate(57.5379 74.9626) scale(98.756 235.375)">
      <stop stop-color="#0080FF" />
      <stop offset="0.99" stop-color="#F9FCFF" />
    </radialGradient>
    <radialGradient id="paint1_radial--shield" cx="0" cy="0" r="1" gradientUnits="userSpaceOnUse"
      gradientTransform="translate(57.1525 69.5307) scale(69.5391 73.3156)">
      <stop offset="0.223958" stop-color="white" />
      <stop offset="1" stop-color="#0080FF" />
    </radialGradient>
    <radialGradient id="paint2_radial--shield" cx="0" cy="0" r="1" gradientUnits="userSpaceOnUse"
      gradientTransform="translate(95.0102 118.928) scale(24.7698 25.4941)">
      <stop stop-color="#50E6D9" />
      <stop offset="0.4" stop-color="#52E6D9" />
      <stop offset="0.55" stop-color="#59E7DB" />
      <stop offset="0.65" stop-color="#64E9DD" />
      <stop offset="0.73" stop-color="#75EBE1" />
      <stop offset="0.8" stop-color="#8BEEE6" />
      <stop offset="0.87" stop-color="#A7F2EC" />
      <stop offset="0.93" stop-color="#C7F7F3" />
      <stop offset="0.98" stop-color="#EBFCFB" />
      <stop offset="1" stop-color="white" />
    </radialGradient>
  </defs>
</svg>