<svg width="100%" height="100%" viewBox="0 0 517 540" fill="none" xmlns="http://www.w3.org/2000/svg">
  <path d="M52.4066 125.23L232.545 21.7873L412.683 125.23V333.251L232.545 436.694L52.4066 333.251V125.23Z"
    stroke="white" />
  <path d="M511.02 178.159H505.04V184.139H511.02V178.159Z" fill="white" />
  <path d="M511.02 190.118H505.04V196.098H511.02V190.118Z" fill="white" />
  <path d="M505.04 184.138H499.06V190.118H505.04V184.138Z" fill="white" />
  <path d="M517 184.138H511.02V190.118H517V184.138Z" fill="white" />
  <path d="M34.6388 114.837L232.545 1.05843L430.451 114.837V343.644L232.545 457.423L34.6388 343.644V114.837Z"
    stroke="white" />
  <path
    d="M408.434 256.639L408.329 256.485L409.57 253.052L418.185 247.226L423.368 246.427L420.697 250.94L416.489 253.785C416.376 253.834 416.296 253.888 416.209 253.975L412.081 256.766L408.434 256.639ZM417.999 254.766L421.806 252.191C421.906 252.123 422.013 252.023 422.054 251.911L425.11 246.715C425.508 246.051 425.277 245.192 424.617 244.821C424.34 244.67 424.042 244.618 423.723 244.664L417.776 245.585C417.65 245.614 417.523 245.643 417.423 245.711L413.617 248.286L410.935 244.32C414.014 241.533 429.567 227.66 440.253 221.787C441.146 221.295 442.066 220.842 443.026 220.447L454.799 237.856C454.075 238.599 453.312 239.284 452.523 239.931C443.093 247.661 424.427 256.93 420.694 258.75L417.999 254.766ZM429.517 266.399L421.238 271.039L421.303 260.255C422.603 259.63 425.863 258.017 429.944 255.849L429.517 266.399ZM464.8 218.407C464.291 220.978 462.164 229.577 455.999 236.565L444.67 219.814C453.452 216.694 462.224 217.922 464.8 218.407ZM417.059 236.796C413.527 239.777 410.816 242.202 409.752 243.175L399.719 239.22L407.121 233.284L417.059 236.796Z"
    fill="white" />
  <path
    d="M417.948 287.873C423.197 284.428 420.563 271.139 412.065 258.191C403.567 245.244 392.423 237.54 387.174 240.985C381.925 244.431 384.559 257.719 393.057 270.667C401.555 283.615 412.699 291.318 417.948 287.873Z"
    stroke="white" stroke-width="0.75" stroke-miterlimit="10" />
  <path
    d="M408.935 311.332C416.983 306.05 413.019 285.787 400.081 266.074C387.142 246.361 370.129 234.663 362.081 239.946C354.032 245.228 357.996 265.491 370.935 285.204C383.873 304.917 400.886 316.615 408.935 311.332Z"
    stroke="white" stroke-width="0.75" stroke-miterlimit="10" />
  <path
    d="M394.204 336.609C404.877 329.603 399.565 302.649 382.339 276.404C365.114 250.159 342.497 234.562 331.824 241.567C321.151 248.572 326.463 275.527 343.689 301.772C360.915 328.017 383.531 343.614 394.204 336.609Z"
    stroke="white" stroke-width="0.75" stroke-miterlimit="10" />
  <path
    d="M141.225 300.833C167.658 307.916 190.968 306.634 193.289 297.969C195.611 289.305 176.065 276.539 149.633 269.457C123.2 262.374 99.8899 263.656 97.5683 272.321C95.2467 280.985 114.793 293.751 141.225 300.833Z"
    stroke="white" stroke-miterlimit="10" />
  <path
    d="M142.535 295.945C160.743 300.824 176.799 299.943 178.397 293.979C179.995 288.014 166.531 279.224 148.323 274.345C130.115 269.466 114.059 270.347 112.461 276.311C110.863 282.276 124.327 291.066 142.535 295.945Z"
    stroke="white" stroke-miterlimit="10" />
  <path
    d="M144.088 290.147C152.627 292.435 160.149 292.05 160.89 289.288C161.63 286.525 155.308 282.431 146.769 280.143C138.23 277.855 130.708 278.24 129.968 281.002C129.228 283.765 135.55 287.859 144.088 290.147Z"
    stroke="white" stroke-miterlimit="10" />
  <path
    d="M144.21 289.692C147.664 290.618 151.213 288.568 152.138 285.115C153.064 281.662 151.014 278.113 147.561 277.187C144.108 276.262 140.559 278.311 139.633 281.765C138.708 285.218 140.757 288.767 144.21 289.692Z"
    fill="white" />
  <path
    d="M176.219 308.017C177.789 308.437 179.402 307.506 179.823 305.936C180.244 304.367 179.312 302.753 177.742 302.333C176.173 301.912 174.559 302.843 174.139 304.413C173.718 305.983 174.65 307.596 176.219 308.017Z"
    fill="white" />
  <path
    d="M112.645 280.625C114.215 281.046 115.828 280.114 116.249 278.545C116.67 276.975 115.738 275.362 114.168 274.941C112.599 274.521 110.985 275.452 110.565 277.022C110.144 278.591 111.076 280.205 112.645 280.625Z"
    fill="white" />
  <path
    d="M160.79 290.114C161.669 290.35 162.572 289.828 162.808 288.949C163.044 288.07 162.522 287.167 161.643 286.931C160.764 286.695 159.86 287.217 159.625 288.096C159.389 288.975 159.911 289.879 160.79 290.114Z"
    fill="white" />
  <path
    d="M2.89726 38.09C5.1356 38.09 7.28226 38.9792 8.865 40.5619C10.4477 42.1447 11.3369 44.2913 11.3369 46.5297C11.3369 47.2758 11.6333 47.9913 12.1609 48.5189C12.6885 49.0465 13.404 49.3429 14.1501 49.3429C14.8963 49.3429 15.6118 49.0465 16.1394 48.5189C16.667 47.9913 16.9634 47.2758 16.9634 46.5297C16.9634 44.2913 17.8525 42.1447 19.4353 40.5619C21.018 38.9792 23.1647 38.09 25.403 38.09C26.1491 38.09 26.8647 37.7936 27.3923 37.266C27.9198 36.7385 28.2162 36.0229 28.2162 35.2768C28.2162 34.5307 27.9198 33.8151 27.3923 33.2875C26.8647 32.76 26.1491 32.4636 25.403 32.4636C23.1647 32.4636 21.018 31.5744 19.4353 29.9917C17.8525 28.4089 16.9634 26.2622 16.9634 24.0239C16.9634 23.2778 16.667 22.5622 16.1394 22.0347C15.6118 21.5071 14.8963 21.2107 14.1501 21.2107C13.404 21.2107 12.6885 21.5071 12.1609 22.0347C11.6333 22.5622 11.3369 23.2778 11.3369 24.0239C11.3369 26.2622 10.4477 28.4089 8.865 29.9917C7.28226 31.5744 5.1356 32.4636 2.89726 32.4636C2.15115 32.4636 1.4356 32.76 0.908019 33.2875C0.380438 33.8151 0.0840454 34.5307 0.0840454 35.2768C0.0840454 36.0229 0.380438 36.7385 0.908019 37.266C1.4356 37.7936 2.15115 38.09 2.89726 38.09Z"
    fill="white" />
  <path
    d="M126.571 155.234C125.791 155.234 125.074 155.096 124.42 154.82C123.766 154.538 123.238 154.121 122.836 153.569C122.44 153.017 122.233 152.327 122.215 151.499H123.889C123.889 151.997 124.009 152.405 124.249 152.723C124.495 153.041 124.819 153.278 125.221 153.434C125.623 153.584 126.067 153.659 126.553 153.659C127.045 153.659 127.48 153.584 127.858 153.434C128.236 153.284 128.527 153.083 128.731 152.831C128.941 152.579 129.046 152.291 129.046 151.967C129.046 151.529 128.911 151.178 128.641 150.914C128.371 150.644 127.96 150.416 127.408 150.23L125.275 149.438C124.357 149.096 123.658 148.703 123.178 148.259C122.698 147.809 122.458 147.185 122.458 146.387C122.458 145.481 122.812 144.746 123.52 144.182C124.228 143.612 125.224 143.327 126.508 143.327C127.726 143.327 128.671 143.609 129.343 144.173C130.021 144.737 130.408 145.505 130.504 146.477H128.821C128.737 145.985 128.506 145.595 128.128 145.307C127.756 145.019 127.216 144.875 126.508 144.875C125.824 144.875 125.29 145.025 124.906 145.325C124.522 145.619 124.33 145.991 124.33 146.441C124.33 146.813 124.45 147.11 124.69 147.332C124.936 147.554 125.317 147.755 125.833 147.935L128.263 148.826C129.097 149.12 129.748 149.516 130.216 150.014C130.684 150.512 130.918 151.145 130.918 151.913C130.918 152.561 130.75 153.134 130.414 153.632C130.078 154.13 129.586 154.523 128.938 154.811C128.29 155.093 127.501 155.234 126.571 155.234Z"
    fill="white" />
  <path
    d="M136.663 155.234C136.171 155.234 135.727 155.141 135.331 154.955C134.935 154.769 134.62 154.49 134.386 154.118C134.158 153.74 134.044 153.266 134.044 152.696V143.984H135.745V152.642C135.745 153.458 136.126 153.866 136.888 153.866C137.122 153.866 137.35 153.842 137.572 153.794C137.794 153.74 138.046 153.662 138.328 153.56L138.571 154.775C138.253 154.907 137.938 155.015 137.626 155.099C137.32 155.189 136.999 155.234 136.663 155.234ZM132.721 147.503V146.342H138.31V147.503H132.721Z"
    fill="white" />
  <path
    d="M143.895 155.234C143.151 155.234 142.479 155.042 141.879 154.658C141.279 154.274 140.802 153.74 140.448 153.056C140.1 152.372 139.926 151.58 139.926 150.68C139.926 149.726 140.1 148.91 140.448 148.232C140.796 147.548 141.27 147.023 141.87 146.657C142.47 146.291 143.145 146.108 143.895 146.108C144.567 146.108 145.143 146.246 145.623 146.522C146.103 146.792 146.49 147.158 146.784 147.62C147.078 148.076 147.279 148.595 147.387 149.177C147.501 149.759 147.522 150.359 147.45 150.977H141.294V149.987H146.28L145.866 150.257C145.884 149.933 145.866 149.609 145.812 149.285C145.764 148.961 145.668 148.664 145.524 148.394C145.38 148.118 145.176 147.899 144.912 147.737C144.654 147.569 144.324 147.485 143.922 147.485C143.418 147.485 142.995 147.611 142.653 147.863C142.317 148.115 142.062 148.454 141.888 148.88C141.714 149.3 141.627 149.762 141.627 150.266V150.959C141.627 151.517 141.711 152.012 141.879 152.444C142.047 152.876 142.296 153.218 142.626 153.47C142.962 153.716 143.385 153.839 143.895 153.839C144.393 153.839 144.804 153.722 145.128 153.488C145.458 153.254 145.662 152.903 145.74 152.435H147.486C147.396 152.999 147.189 153.491 146.865 153.911C146.541 154.331 146.124 154.658 145.614 154.892C145.11 155.12 144.537 155.234 143.895 155.234Z"
    fill="white" />
  <path
    d="M154.263 155.234C153.633 155.234 153.087 155.093 152.625 154.811C152.163 154.523 151.809 154.103 151.563 153.551C151.323 152.993 151.203 152.303 151.203 151.481H151.869C151.869 151.955 151.971 152.357 152.175 152.687C152.379 153.011 152.646 153.26 152.976 153.434C153.312 153.602 153.669 153.686 154.047 153.686C154.443 153.686 154.827 153.575 155.199 153.353C155.577 153.125 155.886 152.786 156.126 152.336C156.366 151.886 156.486 151.328 156.486 150.662C156.486 150.026 156.378 149.483 156.162 149.033C155.952 148.583 155.664 148.238 155.298 147.998C154.932 147.758 154.521 147.638 154.065 147.638C153.681 147.638 153.321 147.731 152.985 147.917C152.649 148.097 152.379 148.364 152.175 148.718C151.971 149.066 151.869 149.492 151.869 149.996H151.203C151.203 149.126 151.341 148.403 151.617 147.827C151.899 147.251 152.277 146.822 152.751 146.54C153.225 146.252 153.75 146.108 154.326 146.108C155.004 146.108 155.64 146.291 156.234 146.657C156.828 147.017 157.308 147.536 157.674 148.214C158.046 148.892 158.232 149.708 158.232 150.662C158.232 151.616 158.046 152.435 157.674 153.119C157.302 153.803 156.813 154.328 156.207 154.694C155.607 155.054 154.959 155.234 154.263 155.234ZM150.159 159.248V146.342H151.572L151.869 148.421V159.248H150.159Z"
    fill="white" />
  <path
    d="M169.444 155.234C168.88 155.234 168.367 155.084 167.905 154.784C167.449 154.478 167.083 154.028 166.807 153.434C166.537 152.84 166.402 152.111 166.402 151.247H166.987C166.987 151.751 167.095 152.186 167.311 152.552C167.533 152.918 167.815 153.2 168.157 153.398C168.499 153.59 168.856 153.686 169.228 153.686C169.672 153.686 170.071 153.563 170.425 153.317C170.785 153.071 171.07 152.72 171.28 152.264C171.496 151.802 171.604 151.259 171.604 150.635C171.604 150.017 171.499 149.486 171.289 149.042C171.079 148.592 170.794 148.247 170.434 148.007C170.074 147.761 169.666 147.638 169.21 147.638C168.826 147.638 168.463 147.731 168.121 147.917C167.785 148.103 167.512 148.379 167.302 148.745C167.092 149.105 166.987 149.546 166.987 150.068H166.402C166.402 149.222 166.534 148.505 166.798 147.917C167.062 147.329 167.428 146.882 167.896 146.576C168.37 146.264 168.925 146.108 169.561 146.108C170.251 146.108 170.881 146.294 171.451 146.666C172.027 147.032 172.486 147.554 172.828 148.232C173.176 148.91 173.35 149.711 173.35 150.635C173.35 151.565 173.173 152.375 172.819 153.065C172.465 153.749 171.991 154.283 171.397 154.667C170.809 155.045 170.158 155.234 169.444 155.234ZM165.277 155V142.697H166.987V152.921L166.438 155H165.277Z"
    fill="white" />
  <path
    d="M179.363 155.234C178.577 155.234 177.872 155.063 177.248 154.721C176.63 154.379 176.141 153.869 175.781 153.191C175.421 152.513 175.241 151.676 175.241 150.68C175.241 149.666 175.421 148.823 175.781 148.151C176.141 147.473 176.63 146.963 177.248 146.621C177.872 146.279 178.577 146.108 179.363 146.108C180.137 146.108 180.833 146.279 181.451 146.621C182.069 146.963 182.555 147.473 182.909 148.151C183.269 148.823 183.449 149.666 183.449 150.68C183.449 151.676 183.269 152.513 182.909 153.191C182.555 153.869 182.069 154.379 181.451 154.721C180.833 155.063 180.137 155.234 179.363 155.234ZM179.309 153.74C179.807 153.74 180.236 153.62 180.596 153.38C180.962 153.14 181.241 152.792 181.433 152.336C181.631 151.874 181.73 151.322 181.73 150.68C181.73 149.696 181.529 148.934 181.127 148.394C180.731 147.854 180.158 147.584 179.408 147.584C178.904 147.584 178.469 147.707 178.103 147.953C177.743 148.193 177.464 148.544 177.266 149.006C177.074 149.462 176.978 150.02 176.978 150.68C176.978 151.646 177.179 152.399 177.581 152.939C177.983 153.473 178.559 153.74 179.309 153.74Z"
    fill="white" />
  <path d="M186.089 155V142.697H187.799V155H186.089Z" fill="white" />
  <path
    d="M194.451 155.234C193.743 155.234 193.092 155.045 192.498 154.667C191.904 154.283 191.43 153.749 191.076 153.065C190.728 152.375 190.554 151.565 190.554 150.635C190.554 149.711 190.725 148.91 191.067 148.232C191.415 147.554 191.874 147.032 192.444 146.666C193.014 146.294 193.647 146.108 194.343 146.108C194.979 146.108 195.534 146.264 196.008 146.576C196.482 146.882 196.848 147.329 197.106 147.917C197.37 148.505 197.502 149.222 197.502 150.068H196.908C196.908 149.546 196.803 149.105 196.593 148.745C196.383 148.379 196.11 148.103 195.774 147.917C195.438 147.731 195.078 147.638 194.694 147.638C194.244 147.638 193.836 147.761 193.47 148.007C193.11 148.247 192.822 148.592 192.606 149.042C192.396 149.486 192.291 150.017 192.291 150.635C192.291 151.259 192.396 151.802 192.606 152.264C192.822 152.72 193.11 153.071 193.47 153.317C193.836 153.563 194.241 153.686 194.685 153.686C195.051 153.686 195.402 153.59 195.738 153.398C196.08 153.2 196.359 152.918 196.575 152.552C196.797 152.186 196.908 151.751 196.908 151.247H197.502C197.502 152.111 197.364 152.84 197.088 153.434C196.818 154.028 196.452 154.478 195.99 154.784C195.528 155.084 195.015 155.234 194.451 155.234ZM197.205 155L196.908 152.921V142.697H198.627V155H197.205Z"
    fill="white" />
  <path d="M202.138 155V142.697H203.848V155H202.138Z" fill="white" />
  <path
    d="M205.982 146.342H207.899L210.509 153.506H210.158L212.255 146.342H214.001L210.716 156.665C210.416 157.601 210.029 158.3 209.555 158.762C209.087 159.23 208.499 159.464 207.791 159.464C207.395 159.464 207.014 159.413 206.648 159.311C206.288 159.209 205.919 159.059 205.541 158.861V157.322C205.865 157.55 206.177 157.715 206.477 157.817C206.777 157.919 207.089 157.97 207.413 157.97C207.737 157.97 208.013 157.871 208.241 157.673C208.475 157.481 208.67 157.223 208.826 156.899C208.988 156.581 209.126 156.233 209.24 155.855L209.501 155L205.982 146.342Z"
    fill="white" />
  <path
    d="M221.409 144.497C221.067 144.497 220.797 144.404 220.599 144.218C220.407 144.026 220.311 143.768 220.311 143.444C220.311 143.132 220.407 142.886 220.599 142.706C220.797 142.52 221.067 142.427 221.409 142.427C221.745 142.427 222.009 142.52 222.201 142.706C222.399 142.886 222.498 143.132 222.498 143.444C222.498 143.768 222.399 144.026 222.201 144.218C222.009 144.404 221.745 144.497 221.409 144.497ZM220.554 155V146.315H222.264V155H220.554Z"
    fill="white" />
  <path
    d="M232.075 155V149.924C232.075 149.174 231.895 148.607 231.535 148.223C231.181 147.833 230.701 147.638 230.095 147.638C229.615 147.638 229.195 147.77 228.835 148.034C228.481 148.292 228.205 148.673 228.007 149.177C227.815 149.675 227.719 150.284 227.719 151.004H227.107C227.107 149.942 227.242 149.048 227.512 148.322C227.788 147.596 228.181 147.047 228.691 146.675C229.201 146.297 229.813 146.108 230.527 146.108C231.223 146.108 231.811 146.264 232.291 146.576C232.777 146.888 233.146 147.332 233.398 147.908C233.65 148.478 233.776 149.15 233.776 149.924V155H232.075ZM226.009 155V146.342H227.494L227.719 148.214V155H226.009Z"
    fill="white" />
  <path
    d="M239.811 155.234C239.319 155.234 238.875 155.141 238.479 154.955C238.083 154.769 237.768 154.49 237.534 154.118C237.306 153.74 237.192 153.266 237.192 152.696V143.984H238.893V152.642C238.893 153.458 239.274 153.866 240.036 153.866C240.27 153.866 240.498 153.842 240.72 153.794C240.942 153.74 241.194 153.662 241.476 153.56L241.719 154.775C241.401 154.907 241.086 155.015 240.774 155.099C240.468 155.189 240.147 155.234 239.811 155.234ZM235.869 147.503V146.342H241.458V147.503H235.869Z"
    fill="white" />
  <path
    d="M247.197 155.234C246.411 155.234 245.706 155.063 245.082 154.721C244.464 154.379 243.975 153.869 243.615 153.191C243.255 152.513 243.075 151.676 243.075 150.68C243.075 149.666 243.255 148.823 243.615 148.151C243.975 147.473 244.464 146.963 245.082 146.621C245.706 146.279 246.411 146.108 247.197 146.108C247.971 146.108 248.667 146.279 249.285 146.621C249.903 146.963 250.389 147.473 250.743 148.151C251.103 148.823 251.283 149.666 251.283 150.68C251.283 151.676 251.103 152.513 250.743 153.191C250.389 153.869 249.903 154.379 249.285 154.721C248.667 155.063 247.971 155.234 247.197 155.234ZM247.143 153.74C247.641 153.74 248.07 153.62 248.43 153.38C248.796 153.14 249.075 152.792 249.267 152.336C249.465 151.874 249.564 151.322 249.564 150.68C249.564 149.696 249.363 148.934 248.961 148.394C248.565 147.854 247.992 147.584 247.242 147.584C246.738 147.584 246.303 147.707 245.937 147.953C245.577 148.193 245.298 148.544 245.1 149.006C244.908 149.462 244.812 150.02 244.812 150.68C244.812 151.646 245.013 152.399 245.415 152.939C245.817 153.473 246.393 153.74 247.143 153.74Z"
    fill="white" />
  <path
    d="M261.099 155.234C260.607 155.234 260.163 155.141 259.767 154.955C259.371 154.769 259.056 154.49 258.822 154.118C258.594 153.74 258.48 153.266 258.48 152.696V143.984H260.181V152.642C260.181 153.458 260.562 153.866 261.324 153.866C261.558 153.866 261.786 153.842 262.008 153.794C262.23 153.74 262.482 153.662 262.764 153.56L263.007 154.775C262.689 154.907 262.374 155.015 262.062 155.099C261.756 155.189 261.435 155.234 261.099 155.234ZM257.157 147.503V146.342H262.746V147.503H257.157Z"
    fill="white" />
  <path
    d="M271.292 155V149.924C271.292 149.174 271.112 148.607 270.752 148.223C270.398 147.833 269.918 147.638 269.312 147.638C268.832 147.638 268.412 147.77 268.052 148.034C267.698 148.292 267.422 148.673 267.224 149.177C267.032 149.675 266.936 150.284 266.936 151.004H266.324C266.324 149.942 266.459 149.048 266.729 148.322C267.005 147.596 267.398 147.047 267.908 146.675C268.418 146.297 269.03 146.108 269.744 146.108C270.44 146.108 271.028 146.264 271.508 146.576C271.994 146.888 272.363 147.332 272.615 147.908C272.867 148.478 272.993 149.15 272.993 149.924V155H271.292ZM265.226 155V142.697H266.936V155H265.226Z"
    fill="white" />
  <path
    d="M279.352 155.234C278.608 155.234 277.936 155.042 277.336 154.658C276.736 154.274 276.259 153.74 275.905 153.056C275.557 152.372 275.383 151.58 275.383 150.68C275.383 149.726 275.557 148.91 275.905 148.232C276.253 147.548 276.727 147.023 277.327 146.657C277.927 146.291 278.602 146.108 279.352 146.108C280.024 146.108 280.6 146.246 281.08 146.522C281.56 146.792 281.947 147.158 282.241 147.62C282.535 148.076 282.736 148.595 282.844 149.177C282.958 149.759 282.979 150.359 282.907 150.977H276.751V149.987H281.737L281.323 150.257C281.341 149.933 281.323 149.609 281.269 149.285C281.221 148.961 281.125 148.664 280.981 148.394C280.837 148.118 280.633 147.899 280.369 147.737C280.111 147.569 279.781 147.485 279.379 147.485C278.875 147.485 278.452 147.611 278.11 147.863C277.774 148.115 277.519 148.454 277.345 148.88C277.171 149.3 277.084 149.762 277.084 150.266V150.959C277.084 151.517 277.168 152.012 277.336 152.444C277.504 152.876 277.753 153.218 278.083 153.47C278.419 153.716 278.842 153.839 279.352 153.839C279.85 153.839 280.261 153.722 280.585 153.488C280.915 153.254 281.119 152.903 281.197 152.435H282.943C282.853 152.999 282.646 153.491 282.322 153.911C281.998 154.331 281.581 154.658 281.071 154.892C280.567 155.12 279.994 155.234 279.352 155.234Z"
    fill="white" />
  <path
    d="M290.497 155V145.127C290.497 144.527 290.611 144.041 290.839 143.669C291.073 143.291 291.382 143.012 291.766 142.832C292.15 142.652 292.573 142.562 293.035 142.562C293.299 142.562 293.569 142.58 293.845 142.616C294.127 142.652 294.403 142.706 294.673 142.778L294.349 144.11C294.181 144.05 294.01 144.002 293.836 143.966C293.668 143.93 293.506 143.912 293.35 143.912C293.164 143.912 292.984 143.948 292.81 144.02C292.636 144.086 292.492 144.209 292.378 144.389C292.27 144.569 292.216 144.824 292.216 145.154V155H290.497ZM289.138 147.503V146.342H293.917V147.503H289.138Z"
    fill="white" />
  <path
    d="M302.189 146.315H303.908V155H302.189V146.315ZM296.141 146.315H297.851V151.679C297.851 152.333 298.01 152.828 298.328 153.164C298.652 153.5 299.105 153.668 299.687 153.668C300.179 153.668 300.611 153.539 300.983 153.281C301.361 153.023 301.655 152.657 301.865 152.183C302.081 151.709 302.189 151.148 302.189 150.5H302.738C302.738 151.514 302.6 152.366 302.324 153.056C302.048 153.746 301.661 154.271 301.163 154.631C300.665 154.985 300.083 155.162 299.417 155.162C298.781 155.162 298.214 155.045 297.716 154.811C297.224 154.577 296.837 154.217 296.555 153.731C296.279 153.239 296.141 152.606 296.141 151.832V146.315Z"
    fill="white" />
  <path
    d="M310.194 155.234C309.702 155.234 309.258 155.141 308.862 154.955C308.466 154.769 308.151 154.49 307.917 154.118C307.689 153.74 307.575 153.266 307.575 152.696V143.984H309.276V152.642C309.276 153.458 309.657 153.866 310.419 153.866C310.653 153.866 310.881 153.842 311.103 153.794C311.325 153.74 311.577 153.662 311.859 153.56L312.102 154.775C311.784 154.907 311.469 155.015 311.157 155.099C310.851 155.189 310.53 155.234 310.194 155.234ZM306.252 147.503V146.342H311.841V147.503H306.252Z"
    fill="white" />
  <path
    d="M320.153 146.315H321.872V155H320.153V146.315ZM314.105 146.315H315.815V151.679C315.815 152.333 315.974 152.828 316.292 153.164C316.616 153.5 317.069 153.668 317.651 153.668C318.143 153.668 318.575 153.539 318.947 153.281C319.325 153.023 319.619 152.657 319.829 152.183C320.045 151.709 320.153 151.148 320.153 150.5H320.702C320.702 151.514 320.564 152.366 320.288 153.056C320.012 153.746 319.625 154.271 319.127 154.631C318.629 154.985 318.047 155.162 317.381 155.162C316.745 155.162 316.178 155.045 315.68 154.811C315.188 154.577 314.801 154.217 314.519 153.731C314.243 153.239 314.105 152.606 314.105 151.832V146.315Z"
    fill="white" />
  <path
    d="M325.378 155V146.315H327.088V155H325.378ZM326.62 151.13C326.62 150.02 326.734 149.099 326.962 148.367C327.196 147.629 327.52 147.08 327.934 146.72C328.354 146.36 328.846 146.18 329.41 146.18C329.578 146.18 329.734 146.192 329.878 146.216C330.028 146.24 330.175 146.273 330.319 146.315L330.256 148.016C330.094 147.974 329.917 147.938 329.725 147.908C329.539 147.872 329.368 147.854 329.212 147.854C328.72 147.854 328.318 147.986 328.006 148.25C327.694 148.508 327.463 148.883 327.313 149.375C327.163 149.861 327.088 150.446 327.088 151.13H326.62Z"
    fill="white" />
  <path
    d="M335.215 155.234C334.471 155.234 333.799 155.042 333.199 154.658C332.599 154.274 332.122 153.74 331.768 153.056C331.42 152.372 331.247 151.58 331.247 150.68C331.247 149.726 331.42 148.91 331.768 148.232C332.116 147.548 332.591 147.023 333.191 146.657C333.791 146.291 334.465 146.108 335.215 146.108C335.887 146.108 336.463 146.246 336.943 146.522C337.423 146.792 337.81 147.158 338.104 147.62C338.398 148.076 338.6 148.595 338.708 149.177C338.822 149.759 338.842 150.359 338.77 150.977H332.615V149.987H337.6L337.186 150.257C337.204 149.933 337.186 149.609 337.132 149.285C337.084 148.961 336.988 148.664 336.844 148.394C336.7 148.118 336.496 147.899 336.232 147.737C335.974 147.569 335.644 147.485 335.242 147.485C334.738 147.485 334.315 147.611 333.973 147.863C333.637 148.115 333.382 148.454 333.208 148.88C333.034 149.3 332.947 149.762 332.947 150.266V150.959C332.947 151.517 333.031 152.012 333.199 152.444C333.367 152.876 333.617 153.218 333.947 153.47C334.283 153.716 334.705 153.839 335.215 153.839C335.713 153.839 336.125 153.722 336.449 153.488C336.779 153.254 336.983 152.903 337.061 152.435H338.807C338.717 152.999 338.51 153.491 338.186 153.911C337.862 154.331 337.444 154.658 336.934 154.892C336.43 155.12 335.857 155.234 335.215 155.234Z"
    fill="white" />
  <path
    d="M340.22 153.992C340.22 153.656 340.334 153.371 340.562 153.137C340.796 152.903 341.09 152.786 341.444 152.786C341.798 152.786 342.098 152.903 342.344 153.137C342.59 153.371 342.713 153.656 342.713 153.992C342.713 154.322 342.59 154.601 342.344 154.829C342.098 155.051 341.798 155.162 341.444 155.162C341.09 155.162 340.796 155.048 340.562 154.82C340.334 154.592 340.22 154.316 340.22 153.992Z"
    fill="white" />
  <path d="M57.5 539.5V496.5H416.5V539.5H57.5Z" fill="rgb(1, 14, 28, 0.7)" stroke="white" />
  <path
    d="M105.842 523.216C105.152 523.216 104.507 523.03 103.907 522.658C103.313 522.286 102.833 521.761 102.467 521.083C102.101 520.405 101.918 519.604 101.918 518.68C101.918 517.732 102.101 516.922 102.467 516.25C102.833 515.578 103.313 515.065 103.907 514.711C104.507 514.357 105.152 514.18 105.842 514.18C106.328 514.18 106.763 514.255 107.147 514.405C107.537 514.549 107.876 514.75 108.164 515.008C108.452 515.266 108.689 515.56 108.875 515.89C109.067 516.214 109.208 516.556 109.298 516.916L107.858 517.042C107.708 516.544 107.456 516.151 107.102 515.863C106.754 515.569 106.328 515.422 105.824 515.422C105.398 515.422 104.996 515.545 104.618 515.791C104.246 516.031 103.943 516.394 103.709 516.88C103.475 517.36 103.358 517.96 103.358 518.68C103.358 519.346 103.463 519.925 103.673 520.417C103.889 520.903 104.183 521.281 104.555 521.551C104.927 521.821 105.35 521.956 105.824 521.956C106.49 521.956 106.994 521.794 107.336 521.47C107.684 521.14 107.858 520.684 107.858 520.102H109.298C109.298 520.702 109.157 521.236 108.875 521.704C108.593 522.172 108.191 522.541 107.669 522.811C107.153 523.081 106.544 523.216 105.842 523.216Z"
    fill="white" />
  <path
    d="M115.213 523.216C114.439 523.216 113.749 523.045 113.143 522.703C112.543 522.361 112.069 521.854 111.721 521.182C111.373 520.51 111.199 519.682 111.199 518.698C111.199 517.708 111.373 516.88 111.721 516.214C112.069 515.542 112.543 515.035 113.143 514.693C113.749 514.351 114.439 514.18 115.213 514.18C115.981 514.18 116.665 514.351 117.265 514.693C117.871 515.035 118.345 515.542 118.687 516.214C119.035 516.88 119.209 517.708 119.209 518.698C119.209 519.682 119.035 520.51 118.687 521.182C118.345 521.854 117.871 522.361 117.265 522.703C116.665 523.045 115.981 523.216 115.213 523.216ZM115.177 521.992C115.735 521.992 116.209 521.86 116.599 521.596C116.989 521.326 117.283 520.945 117.481 520.453C117.685 519.961 117.787 519.376 117.787 518.698C117.787 517.672 117.574 516.865 117.148 516.277C116.722 515.683 116.089 515.386 115.249 515.386C114.685 515.386 114.208 515.521 113.818 515.791C113.434 516.055 113.14 516.436 112.936 516.934C112.738 517.426 112.639 518.014 112.639 518.698C112.639 519.712 112.852 520.516 113.278 521.11C113.71 521.698 114.343 521.992 115.177 521.992Z"
    fill="white" />
  <path d="M121.943 523V510.724H123.347V523H121.943Z" fill="white" />
  <path d="M126.988 523V510.724H128.392V523H126.988Z" fill="white" />
  <path
    d="M135.021 523.216C134.277 523.216 133.611 523.027 133.023 522.649C132.441 522.265 131.979 521.734 131.637 521.056C131.301 520.378 131.133 519.598 131.133 518.716C131.133 517.774 131.301 516.964 131.637 516.286C131.973 515.608 132.432 515.089 133.014 514.729C133.602 514.363 134.271 514.18 135.021 514.18C135.675 514.18 136.233 514.312 136.695 514.576C137.157 514.84 137.529 515.197 137.811 515.647C138.093 516.097 138.288 516.607 138.396 517.177C138.51 517.741 138.543 518.326 138.495 518.932H132.267V518.068H137.568L137.154 518.338C137.172 517.984 137.151 517.63 137.091 517.276C137.037 516.922 136.932 516.598 136.776 516.304C136.62 516.004 136.401 515.764 136.119 515.584C135.837 515.404 135.477 515.314 135.039 515.314C134.487 515.314 134.025 515.455 133.653 515.737C133.281 516.019 133.002 516.391 132.816 516.853C132.63 517.309 132.537 517.804 132.537 518.338V518.914C132.537 519.514 132.627 520.051 132.807 520.525C132.993 520.999 133.269 521.374 133.635 521.65C134.001 521.926 134.463 522.064 135.021 522.064C135.579 522.064 136.038 521.929 136.398 521.659C136.758 521.389 136.977 520.99 137.055 520.462H138.513C138.423 521.032 138.219 521.524 137.901 521.938C137.583 522.346 137.178 522.661 136.686 522.883C136.194 523.105 135.639 523.216 135.021 523.216Z"
    fill="white" />
  <path
    d="M144.303 523.216C143.613 523.216 142.968 523.03 142.368 522.658C141.774 522.286 141.294 521.761 140.928 521.083C140.562 520.405 140.379 519.604 140.379 518.68C140.379 517.732 140.562 516.922 140.928 516.25C141.294 515.578 141.774 515.065 142.368 514.711C142.968 514.357 143.613 514.18 144.303 514.18C144.789 514.18 145.224 514.255 145.608 514.405C145.998 514.549 146.337 514.75 146.625 515.008C146.913 515.266 147.15 515.56 147.336 515.89C147.528 516.214 147.669 516.556 147.759 516.916L146.319 517.042C146.169 516.544 145.917 516.151 145.563 515.863C145.215 515.569 144.789 515.422 144.285 515.422C143.859 515.422 143.457 515.545 143.079 515.791C142.707 516.031 142.404 516.394 142.17 516.88C141.936 517.36 141.819 517.96 141.819 518.68C141.819 519.346 141.924 519.925 142.134 520.417C142.35 520.903 142.644 521.281 143.016 521.551C143.388 521.821 143.811 521.956 144.285 521.956C144.951 521.956 145.455 521.794 145.797 521.47C146.145 521.14 146.319 520.684 146.319 520.102H147.759C147.759 520.702 147.618 521.236 147.336 521.704C147.054 522.172 146.652 522.541 146.13 522.811C145.614 523.081 145.005 523.216 144.303 523.216Z"
    fill="white" />
  <path
    d="M153.206 523.216C152.738 523.216 152.318 523.126 151.946 522.946C151.574 522.766 151.28 522.496 151.064 522.136C150.848 521.776 150.74 521.326 150.74 520.786V512.002H152.126V520.75C152.126 521.638 152.54 522.082 153.368 522.082C153.614 522.082 153.851 522.055 154.079 522.001C154.313 521.947 154.574 521.866 154.862 521.758L155.06 522.766C154.754 522.898 154.448 523.006 154.142 523.09C153.842 523.174 153.53 523.216 153.206 523.216ZM149.354 515.368V514.396H154.844V515.368H149.354Z"
    fill="white" />
  <path
    d="M158.12 512.362C157.832 512.362 157.604 512.281 157.436 512.119C157.268 511.951 157.184 511.732 157.184 511.462C157.184 511.198 157.268 510.988 157.436 510.832C157.604 510.676 157.832 510.598 158.12 510.598C158.408 510.598 158.636 510.676 158.804 510.832C158.972 510.988 159.056 511.198 159.056 511.462C159.056 511.732 158.972 511.951 158.804 512.119C158.636 512.281 158.408 512.362 158.12 512.362ZM157.418 523V514.378H158.822V523H157.418Z"
    fill="white" />
  <path
    d="M166.631 523.216C166.055 523.216 165.533 523.066 165.065 522.766C164.603 522.466 164.234 522.028 163.958 521.452C163.688 520.87 163.553 520.162 163.553 519.328H164.093C164.093 519.886 164.207 520.363 164.435 520.759C164.669 521.149 164.969 521.446 165.335 521.65C165.701 521.854 166.085 521.956 166.487 521.956C166.949 521.956 167.372 521.824 167.756 521.56C168.14 521.296 168.446 520.918 168.674 520.426C168.908 519.934 169.025 519.346 169.025 518.662C169.025 517.99 168.911 517.414 168.683 516.934C168.455 516.448 168.146 516.076 167.756 515.818C167.372 515.554 166.943 515.422 166.469 515.422C166.061 515.422 165.674 515.524 165.308 515.728C164.948 515.926 164.654 516.22 164.426 516.61C164.204 517 164.093 517.48 164.093 518.05H163.553C163.553 517.234 163.685 516.538 163.949 515.962C164.219 515.386 164.591 514.945 165.065 514.639C165.539 514.333 166.091 514.18 166.721 514.18C167.399 514.18 168.02 514.363 168.584 514.729C169.154 515.089 169.61 515.605 169.952 516.277C170.294 516.949 170.465 517.744 170.465 518.662C170.465 519.586 170.291 520.39 169.943 521.074C169.595 521.752 169.13 522.28 168.548 522.658C167.966 523.03 167.327 523.216 166.631 523.216ZM162.689 523V510.724H164.093V520.984L163.679 523H162.689Z"
    fill="white" />
  <path d="M173.359 523V510.724H174.763V523H173.359Z" fill="white" />
  <path
    d="M181.392 523.216C180.648 523.216 179.982 523.027 179.394 522.649C178.812 522.265 178.35 521.734 178.008 521.056C177.672 520.378 177.504 519.598 177.504 518.716C177.504 517.774 177.672 516.964 178.008 516.286C178.344 515.608 178.803 515.089 179.385 514.729C179.973 514.363 180.642 514.18 181.392 514.18C182.046 514.18 182.604 514.312 183.066 514.576C183.528 514.84 183.9 515.197 184.182 515.647C184.464 516.097 184.659 516.607 184.767 517.177C184.881 517.741 184.914 518.326 184.866 518.932H178.638V518.068H183.939L183.525 518.338C183.543 517.984 183.522 517.63 183.462 517.276C183.408 516.922 183.303 516.598 183.147 516.304C182.991 516.004 182.772 515.764 182.49 515.584C182.208 515.404 181.848 515.314 181.41 515.314C180.858 515.314 180.396 515.455 180.024 515.737C179.652 516.019 179.373 516.391 179.187 516.853C179.001 517.309 178.908 517.804 178.908 518.338V518.914C178.908 519.514 178.998 520.051 179.178 520.525C179.364 520.999 179.64 521.374 180.006 521.65C180.372 521.926 180.834 522.064 181.392 522.064C181.95 522.064 182.409 521.929 182.769 521.659C183.129 521.389 183.348 520.99 183.426 520.462H184.884C184.794 521.032 184.59 521.524 184.272 521.938C183.954 522.346 183.549 522.661 183.057 522.883C182.565 523.105 182.01 523.216 181.392 523.216Z"
    fill="white" />
  <path
    d="M186.372 522.163C186.372 521.881 186.471 521.638 186.669 521.434C186.867 521.23 187.116 521.128 187.416 521.128C187.716 521.128 187.971 521.23 188.181 521.434C188.391 521.638 188.496 521.881 188.496 522.163C188.496 522.445 188.391 522.682 188.181 522.874C187.971 523.066 187.716 523.162 187.416 523.162C187.116 523.162 186.867 523.066 186.669 522.874C186.471 522.676 186.372 522.439 186.372 522.163Z"
    fill="white" />
  <path
    d="M196.987 523V517.942C196.987 517.12 196.789 516.496 196.393 516.07C196.003 515.638 195.469 515.422 194.791 515.422C194.275 515.422 193.828 515.563 193.45 515.845C193.072 516.127 192.781 516.532 192.577 517.06C192.373 517.582 192.271 518.206 192.271 518.932H191.731C191.731 517.93 191.863 517.075 192.127 516.367C192.391 515.659 192.775 515.119 193.279 514.747C193.789 514.369 194.407 514.18 195.133 514.18C195.811 514.18 196.39 514.333 196.87 514.639C197.356 514.939 197.728 515.371 197.986 515.935C198.244 516.499 198.373 517.168 198.373 517.942V523H196.987ZM190.867 523V514.396H192.073L192.271 516.376V523H190.867Z"
    fill="white" />
  <path
    d="M202.198 523V513.064C202.198 512.494 202.306 512.029 202.522 511.669C202.744 511.303 203.038 511.033 203.404 510.859C203.776 510.685 204.19 510.598 204.646 510.598C204.892 510.598 205.141 510.616 205.393 510.652C205.651 510.688 205.906 510.742 206.158 510.814L205.888 511.93C205.708 511.858 205.528 511.804 205.348 511.768C205.174 511.732 205.006 511.714 204.844 511.714C204.652 511.714 204.46 511.75 204.268 511.822C204.076 511.894 203.917 512.029 203.791 512.227C203.665 512.425 203.602 512.71 203.602 513.082V523H202.198ZM200.794 515.368V514.396H205.384V515.368H200.794Z"
    fill="white" />
  <path
    d="M210.546 523.216C210.078 523.216 209.658 523.126 209.286 522.946C208.914 522.766 208.62 522.496 208.404 522.136C208.188 521.776 208.08 521.326 208.08 520.786V512.002H209.466V520.75C209.466 521.638 209.88 522.082 210.708 522.082C210.954 522.082 211.191 522.055 211.419 522.001C211.653 521.947 211.914 521.866 212.202 521.758L212.4 522.766C212.094 522.898 211.788 523.006 211.482 523.09C211.182 523.174 210.87 523.216 210.546 523.216ZM206.694 515.368V514.396H212.184V515.368H206.694Z"
    fill="white" />
  <path d="M213.876 524.296L218.394 509.842H219.834L215.28 524.296H213.876Z" fill="white" />
  <path
    d="M89.9256 516.563H79.278C78.7352 516.563 78.2952 517.006 78.2952 517.553V524.953C78.2952 525.5 78.7352 525.944 79.278 525.944H89.9256C90.4684 525.944 90.9085 525.5 90.9085 524.953V517.553C90.9085 517.006 90.4684 516.563 89.9256 516.563Z"
    fill="white" />
  <path fill-rule="evenodd" clip-rule="evenodd"
    d="M85.2944 521.456C85.5268 521.309 85.7054 521.089 85.8032 520.831C85.9011 520.572 85.9129 520.288 85.8368 520.022C85.7607 519.757 85.601 519.523 85.3816 519.356C85.1622 519.19 84.8951 519.1 84.6205 519.1C84.346 519.1 84.0789 519.19 83.8595 519.356C83.6401 519.523 83.4803 519.757 83.4043 520.022C83.3282 520.288 83.34 520.572 83.4378 520.831C83.5357 521.089 83.7143 521.309 83.9467 521.456L83.5074 523.415H85.7411L85.2944 521.456Z"
    fill="#252525" />
  <path
    d="M89.7096 516.563V513.118C89.7096 511.827 88.965 510.784 87.8407 510.784H81.2437C80.1119 510.784 79.3748 511.827 79.3748 513.118V516.563"
    stroke="white" stroke-width="1.3" stroke-miterlimit="10" />
  <path
    d="M404.774 514.762C403.798 515.512 401.796 517.013 398.75 519.4C399.008 520.21 399.383 521.431 399.875 523.062C400.373 524.69 400.738 525.906 400.984 526.709L394.737 522.386C394.772 522.386 392.699 523.827 388.52 526.709C389.954 521.991 390.674 519.572 390.679 519.452C390.679 519.452 388.654 517.891 384.618 514.807L391.52 514.634H392.198C392.704 513.133 393.538 510.762 394.677 507.422C395.67 510.229 396.509 512.62 397.194 514.597C397.341 514.632 397.49 514.657 397.641 514.672C399.391 514.672 401.743 514.709 404.774 514.762Z"
    fill="#0080FF" />
</svg>